SplineFontDB: 3.0
FontName: Lohit-Kannada
FullName: Lohit Kannada
FamilyName: Lohit Kannada
Weight: Book
Copyright: Copyright 2011-12 Lohit Fonts Project contributors.\n<http://fedorahosted.org/lohit>\n\n  Licensed under the SIL Open Font License 1.1 (see file OFL.txt)
Version: 2.5.4
ItalicAngle: 0
UnderlinePosition: -300
UnderlineWidth: 20
Ascent: 620
Descent: 404
LayerCount: 2
Layer: 0 1 "Back"  1
Layer: 1 1 "Fore"  0
XUID: [1021 722 38139966 6691028]
FSType: 0
OS2Version: 1
OS2_WeightWidthSlopeOnly: 0
OS2_UseTypoMetrics: 1
CreationTime: 1161073346
ModificationTime: 1357804770
PfmFamily: 33
TTFWeight: 400
TTFWidth: 5
LineGap: 200
VLineGap: 0
Panose: 2 11 6 0 0 0 0 0 0 0
OS2TypoAscent: 900
OS2TypoAOffset: 0
OS2TypoDescent: -700
OS2TypoDOffset: 0
OS2TypoLinegap: 200
OS2WinAscent: 900
OS2WinAOffset: 0
OS2WinDescent: 700
OS2WinDOffset: 0
HheadAscent: 900
HheadAOffset: 0
HheadDescent: -700
HheadDOffset: 0
OS2SubXSize: 717
OS2SubYSize: 666
OS2SubXOff: 0
OS2SubYOff: 205
OS2SupXSize: 717
OS2SupYSize: 666
OS2SupXOff: 0
OS2SupYOff: 512
OS2StrikeYSize: 50
OS2StrikeYPos: 250
OS2Vendor: 'MODI'
Lookup: 4 0 0 "Ligature Substitution for Ra ZWJ"  {"Ligature Substitution for Ra ZWJ-1"  } []
Lookup: 6 0 0 "'abvs' Above Base Substitutions lookup 20"  {"'abvs' Above Base Substitutions lookup 20-1"  } ['abvs' ('knda' <'dflt' > 'latn' <'dflt' > ) ]
Lookup: 5 0 0 "'psts' Post Base Substitutions lookup 18"  {"'psts' Post Base Substitutions lookup 18-1"  } ['psts' ('knda' <'dflt' > 'latn' <'dflt' > ) ]
Lookup: 4 0 0 "'abvs' Above Base Substitutions in Kannada lookup 0"  {"'abvs' Above Base Substitutions in Kannada lookup 0"  } ['abvs' ('knda' <'dflt' > ) ]
Lookup: 4 0 0 "'akhn' Akhand in Kannada lookup 1"  {"'akhn' Akhand in Kannada lookup 1"  } ['akhn' ('knda' <'dflt' > ) ]
Lookup: 4 0 0 "'blwf' Below Base Forms in Kannada lookup 2"  {"'blwf' Below Base Forms in Kannada lookup 2"  } ['blwf' ('knda' <'dflt' > ) ]

StartChar: .notdef
Encoding: 65536 -1 0
Width: 800
GlyphClass: 2
Flags: W
LayerCount: 2
Fore
SplineSet
100 0 m 1,0,-1
 100 700 l 1,1,-1
 700 700 l 1,2,-1
 700 0 l 1,3,-1
 100 0 l 1,4,-1
 100 0 l 1,0,-1
150 50 m 1,5,-1
 650 50 l 1,6,-1
 650 650 l 1,7,-1
 150 650 l 1,8,-1
 150 50 l 1,9,-1
 150 50 l 1,5,-1
EndSplineSet
EndChar

StartChar: hyphen
Encoding: 45 45 4
Width: 692
GlyphClass: 2
Flags: W
LayerCount: 2
Fore
SplineSet
100 293 m 1,0,-1
 100 366 l 1,1,-1
 593 366 l 1,2,-1
 593 293 l 1,3,-1
 100 293 l 1,4,-1
 100 293 l 1,0,-1
EndSplineSet
EndChar

StartChar: uni0964
Encoding: 2404 2404 5
Width: 234
GlyphClass: 2
Flags: W
LayerCount: 2
Fore
SplineSet
72 -39 m 1,0,-1
 72 624 l 1,1,-1
 163 624 l 1,2,-1
 163 -39 l 1,3,-1
 72 -39 l 1,4,-1
 72 -39 l 1,0,-1
EndSplineSet
EndChar

StartChar: uni0965
Encoding: 2405 2405 6
Width: 436
GlyphClass: 2
Flags: W
LayerCount: 2
Fore
SplineSet
143 -39 m 1,0,-1
 143 624 l 1,1,-1
 234 624 l 1,2,-1
 234 -39 l 1,3,-1
 143 -39 l 1,4,-1
 143 -39 l 1,0,-1
371 -39 m 1,5,-1
 371 624 l 1,6,-1
 462 624 l 1,7,-1
 462 -39 l 1,8,-1
 371 -39 l 1,9,-1
 371 -39 l 1,5,-1
EndSplineSet
EndChar

StartChar: U0C82
Encoding: 3202 3202 7
Width: 542
GlyphClass: 2
Flags: W
LayerCount: 2
Fore
SplineSet
100 299 m 1,0,1
 100 412 100 412 168.5 492 c 128,-1,2
 237 572 237 572 334 572 c 256,3,4
 431 572 431 572 499.5 492 c 128,-1,5
 568 412 568 412 568 299 c 256,6,7
 568 186 568 186 499.5 106 c 128,-1,8
 431 26 431 26 334 26 c 256,9,10
 237 26 237 26 168.5 106 c 128,-1,11
 100 186 100 186 100 299 c 1,12,-1
 100 299 l 1,0,1
191 299 m 1,13,14
 191 218 191 218 233 161 c 128,-1,15
 275 104 275 104 334 104 c 256,16,17
 393 104 393 104 435 161 c 128,-1,18
 477 218 477 218 477 299 c 256,19,20
 477 380 477 380 435 437 c 128,-1,21
 393 494 393 494 334 494 c 256,22,23
 275 494 275 494 233 437 c 128,-1,24
 191 380 191 380 191 299 c 1,25,-1
 191 299 l 1,13,14
EndSplineSet
EndChar

StartChar: U0C83
Encoding: 3203 3203 8
Width: 337
GlyphClass: 2
Flags: W
LayerCount: 2
Fore
SplineSet
103 455 m 1,0,1
 103 509 103 509 141 547 c 128,-1,2
 179 585 179 585 233 585 c 256,3,4
 287 585 287 585 325 547 c 128,-1,5
 363 509 363 509 363 455 c 256,6,7
 363 401 363 401 325 363 c 128,-1,8
 287 325 287 325 233 325 c 256,9,10
 179 325 179 325 141 363 c 128,-1,11
 103 401 103 401 103 455 c 1,12,-1
 103 455 l 1,0,1
168 455 m 1,13,14
 168 428 168 428 187 409 c 128,-1,15
 206 390 206 390 233 390 c 256,16,17
 260 390 260 390 279 409 c 128,-1,18
 298 428 298 428 298 455 c 256,19,20
 298 482 298 482 279 501 c 128,-1,21
 260 520 260 520 233 520 c 256,22,23
 206 520 206 520 187 501 c 128,-1,24
 168 482 168 482 168 455 c 1,25,-1
 168 455 l 1,13,14
103 130 m 1,26,27
 103 184 103 184 141 222 c 128,-1,28
 179 260 179 260 233 260 c 256,29,30
 287 260 287 260 325 222 c 128,-1,31
 363 184 363 184 363 130 c 256,32,33
 363 76 363 76 325 38 c 128,-1,34
 287 0 287 0 233 0 c 256,35,36
 179 0 179 0 141 38 c 128,-1,37
 103 76 103 76 103 130 c 1,38,-1
 103 130 l 1,26,27
168 130 m 1,39,40
 168 103 168 103 187 84 c 128,-1,41
 206 65 206 65 233 65 c 256,42,43
 260 65 260 65 279 84 c 128,-1,44
 298 103 298 103 298 130 c 256,45,46
 298 157 298 157 279 176 c 128,-1,47
 260 195 260 195 233 195 c 256,48,49
 206 195 206 195 187 176 c 128,-1,50
 168 157 168 157 168 130 c 1,51,-1
 168 130 l 1,39,40
EndSplineSet
EndChar

StartChar: U0C85
Encoding: 3205 3205 9
Width: 761
GlyphClass: 2
Flags: W
LayerCount: 2
Fore
SplineSet
207 455 m 1,0,1
 207 431 207 431 220 414 c 128,-1,2
 233 397 233 397 252 397 c 0,3,4
 268 397 268 397 279.5 414 c 128,-1,5
 291 431 291 431 291 455 c 256,6,7
 291 479 291 479 279.5 496.5 c 128,-1,8
 268 514 268 514 252 514 c 0,9,10
 233 514 233 514 220 496.5 c 128,-1,11
 207 479 207 479 207 455 c 1,12,-1
 207 455 l 1,0,1
622 351 m 1,13,-1
 622 260 l 1,14,-1
 395 260 l 1,15,-1
 395 351 l 1,16,-1
 507 351 l 1,17,18
 486.289 361.35 486.289 361.35 466 400.5 c 0,19,20
 452 427 452 427 452 455 c 0,21,22
 452 518.111 452 518.111 499.5 560 c 0,23,24
 542.591 598 542.591 598 616 598 c 0,25,26
 691 598 691 598 741 530 c 128,-1,27
 791 462 791 462 791 347 c 0,28,29
 791 190 791 190 689 95 c 128,-1,30
 587 0 587 0 434 0 c 0,31,32
 284 0 284 0 193.5 94 c 128,-1,33
 103 188 103 188 103 345 c 1,34,-1
 103 345 l 1,35,36
 103 460 103 460 145.5 529 c 128,-1,37
 188 598 188 598 259 598 c 0,38,39
 310 598 310 598 346 556 c 128,-1,40
 382 514 382 514 382 455 c 256,41,42
 382 396 382 396 344 354 c 128,-1,43
 306 312 306 312 252 312 c 0,44,45
 241 312 241 312 226.5 315.5 c 128,-1,46
 212 319 212 319 194 325 c 1,47,48
 194 212.598 194 212.598 259.5 155 c 0,49,50
 347.142 77.0421 347.142 77.0421 439 84 c 256,51,52
 574.03 94.1641 574.03 94.1641 623 156 c 0,53,54
 736.101 297.608 736.101 297.608 684 437 c 0,55,56
 659.139 502.852 659.139 502.852 622 506 c 256,57,58
 571.754 510.037 571.754 510.037 550 469 c 0,59,60
 537.442 445.559 537.442 445.559 546 413 c 0,61,62
 556.757 370.442 556.757 370.442 622 351 c 1,13,-1
EndSplineSet
EndChar

StartChar: U0C86
Encoding: 3206 3206 10
Width: 745
GlyphClass: 2
Flags: W
LayerCount: 2
Fore
SplineSet
205 455 m 1,0,1
 205 431 205 431 216.5 414 c 128,-1,2
 228 397 228 397 244 397 c 256,3,4
 260 397 260 397 271.5 414 c 128,-1,5
 283 431 283 431 283 455 c 256,6,7
 283 479 283 479 271.5 496.5 c 128,-1,8
 260 514 260 514 244 514 c 256,9,10
 228 514 228 514 216.5 496.5 c 128,-1,11
 205 479 205 479 205 455 c 1,12,-1
 205 455 l 1,0,1
608 468 m 1,13,14
 608 445 608 445 621.5 421.5 c 128,-1,15
 635 398 635 398 660 377 c 1,16,17
 673 392 673 392 679.5 414 c 128,-1,18
 686 436 686 436 686 462 c 0,19,20
 686 481 686 481 674.5 494 c 128,-1,21
 663 507 663 507 647 507 c 256,22,23
 631 507 631 507 619.5 495.5 c 128,-1,24
 608 484 608 484 608 468 c 1,25,-1
 608 468 l 1,13,14
101 351 m 1,26,27
 101 463 101 463 143.5 530.5 c 128,-1,28
 186 598 186 598 257 598 c 0,29,30
 305 598 305 598 339.5 556 c 128,-1,31
 374 514 374 514 374 455 c 256,32,33
 374 396 374 396 338 354 c 128,-1,34
 302 312 302 312 251 312 c 0,35,36
 239 312 239 312 224.5 315.5 c 128,-1,37
 210 319 210 319 192 325 c 1,38,39
 192 219 192 219 258 155 c 128,-1,40
 324 91 324 91 433 91 c 0,41,42
 527 91 527 91 593.5 123.5 c 128,-1,43
 660 156 660 156 660 202 c 0,44,45
 660 224 660 224 651.5 244.5 c 128,-1,46
 643 265 643 265 628 280 c 1,47,48
 618 277 618 277 606.5 275 c 128,-1,49
 595 273 595 273 582 273 c 2,50,-1
 381 273 l 1,51,-1
 381 351 l 1,52,-1
 582 351 l 1,53,54
 555 370 555 370 539.5 401 c 128,-1,55
 524 432 524 432 524 468 c 0,56,57
 524 522 524 522 560 560 c 128,-1,58
 596 598 596 598 647 598 c 256,59,60
 698 598 698 598 734.5 558 c 128,-1,61
 771 518 771 518 771 462 c 0,62,63
 771 425 771 425 754 387.5 c 128,-1,64
 737 350 737 350 706 319 c 1,65,66
 728 293 728 293 739.5 263 c 128,-1,67
 751 233 751 233 751 202 c 0,68,69
 751 110 751 110 664 55 c 128,-1,70
 577 0 577 0 433 0 c 0,71,72
 282 0 282 0 191.5 96 c 128,-1,73
 101 192 101 192 101 351 c 1,74,-1
 101 351 l 1,26,27
EndSplineSet
EndChar

StartChar: U0C87
Encoding: 3207 3207 11
Width: 689
GlyphClass: 2
Flags: W
LayerCount: 2
Fore
SplineSet
273 130 m 1,0,1
 273 114 273 114 303.5 102.5 c 128,-1,2
 334 91 334 91 377 91 c 0,3,4
 413 91 413 91 446.5 103 c 128,-1,5
 480 115 480 115 507 137 c 1,6,7
 481 159 481 159 447.5 170.5 c 128,-1,8
 414 182 414 182 377 182 c 0,9,10
 334 182 334 182 303.5 167 c 128,-1,11
 273 152 273 152 273 130 c 1,12,-1
 273 130 l 1,0,1
52 429 m 1,13,14
 52 499 52 499 101.5 548.5 c 128,-1,15
 151 598 151 598 221 598 c 0,16,17
 270 598 270 598 312.5 570 c 128,-1,18
 355 542 355 542 377 494 c 1,19,20
 399 542 399 542 441.5 570 c 128,-1,21
 484 598 484 598 533 598 c 0,22,23
 608 598 608 598 661.5 529.5 c 128,-1,24
 715 461 715 461 715 364 c 0,25,26
 715 296 715 296 695 235.5 c 128,-1,27
 675 175 675 175 637 130 c 1,28,29
 668 92 668 92 685 42 c 128,-1,30
 702 -8 702 -8 702 -65 c 1,31,-1
 611 -65 l 1,32,33
 611 -28 611 -28 601 8.5 c 128,-1,34
 591 45 591 45 572 78 c 1,35,36
 527 40 527 40 476.5 20 c 128,-1,37
 426 0 426 0 377 0 c 0,38,39
 296 0 296 0 239 38 c 128,-1,40
 182 76 182 76 182 130 c 256,41,42
 182 184 182 184 239 222 c 128,-1,43
 296 260 296 260 377 260 c 0,44,45
 434 260 434 260 484 243 c 128,-1,46
 534 226 534 226 572 195 c 1,47,48
 597 225 597 225 610.5 268.5 c 128,-1,49
 624 312 624 312 624 364 c 0,50,51
 624 423 624 423 597.5 465 c 128,-1,52
 571 507 571 507 533 507 c 0,53,54
 487 507 487 507 455 469 c 128,-1,55
 423 431 423 431 423 377 c 2,56,-1
 423 325 l 1,57,-1
 332 325 l 1,58,-1
 332 377 l 2,59,60
 332 431 332 431 299.5 469 c 128,-1,61
 267 507 267 507 221 507 c 0,62,63
 189 507 189 507 166 484 c 128,-1,64
 143 461 143 461 143 429 c 0,65,66
 143 414 143 414 153 394 c 128,-1,67
 163 374 163 374 182 351 c 1,68,-1
 117 299 l 1,69,70
 86 325 86 325 69 359 c 128,-1,71
 52 393 52 393 52 429 c 1,72,-1
 52 429 l 1,13,14
EndSplineSet
EndChar

StartChar: U0C88
Encoding: 3208 3208 12
Width: 992
GlyphClass: 2
Flags: W
LayerCount: 2
Fore
SplineSet
212 338 m 1,0,-1
 595 338 l 1,1,2
 582 411 582 411 529 459 c 128,-1,3
 476 507 476 507 407 507 c 0,4,5
 335 507 335 507 280 459 c 128,-1,6
 225 411 225 411 212 338 c 1,7,-1
 212 338 l 1,0,-1
212 260 m 1,8,9
 225 187 225 187 280 139 c 128,-1,10
 335 91 335 91 407 91 c 0,11,12
 476 91 476 91 529 139 c 128,-1,13
 582 187 582 187 595 260 c 1,14,-1
 212 260 l 1,15,-1
 212 260 l 1,8,9
888 338 m 1,16,17
 907 354 907 354 917 374 c 128,-1,18
 927 394 927 394 927 416 c 256,19,20
 927 438 927 438 917.5 453 c 128,-1,21
 908 468 908 468 894 468 c 0,22,23
 878 468 878 468 866.5 451 c 128,-1,24
 855 434 855 434 855 410 c 0,25,26
 855 391 855 391 863.5 372.5 c 128,-1,27
 872 354 872 354 888 338 c 1,28,-1
 888 338 l 1,16,17
56 260 m 1,29,-1
 56 338 l 1,30,-1
 121 338 l 1,31,32
 130 391 130 391 153.5 434.5 c 128,-1,33
 177 478 177 478 212 507 c 1,34,-1
 108 507 l 1,35,-1
 108 585 l 1,36,-1
 602 585 l 2,37,38
 640 585 640 585 666.5 608 c 128,-1,39
 693 631 693 631 693 663 c 0,40,41
 693 690 693 690 677.5 716 c 128,-1,42
 662 742 662 742 634 761 c 1,43,-1
 693 806 l 1,44,45
 730 775 730 775 750.5 737.5 c 128,-1,46
 771 700 771 700 771 663 c 0,47,48
 771 598 771 598 721.5 552.5 c 128,-1,49
 672 507 672 507 602 507 c 1,50,51
 637 478 637 478 660.5 434.5 c 128,-1,52
 684 391 684 391 693 338 c 1,53,-1
 784 338 l 1,54,55
 774 355 774 355 769 373.5 c 128,-1,56
 764 392 764 392 764 411 c 0,57,58
 764 467 764 467 802 506.5 c 128,-1,59
 840 546 840 546 894 546 c 0,60,61
 945 546 945 546 981.5 508 c 128,-1,62
 1018 470 1018 470 1018 416 c 0,63,64
 1018 369 1018 369 991.5 328.5 c 128,-1,65
 965 288 965 288 920 267 c 1,66,67
 942 240 942 240 954 210 c 128,-1,68
 966 180 966 180 966 150 c 0,69,70
 966 82 966 82 918.5 34.5 c 128,-1,71
 871 -13 871 -13 803 -13 c 1,72,-1
 803 81 l 1,73,74
 833 81 833 81 854 101 c 128,-1,75
 875 121 875 121 875 150 c 0,76,77
 875 173 875 173 861.5 201.5 c 128,-1,78
 848 230 848 230 823 260 c 1,79,-1
 693 260 l 1,80,81
 683 150 683 150 601 75 c 128,-1,82
 519 0 519 0 407 0 c 256,83,84
 295 0 295 0 213 75 c 128,-1,85
 131 150 131 150 121 260 c 1,86,-1
 56 260 l 1,87,-1
 56 260 l 1,29,-1
EndSplineSet
EndChar

StartChar: U0C89
Encoding: 3209 3209 13
Width: 1138
GlyphClass: 2
Flags: W
LayerCount: 2
Fore
SplineSet
228 455 m 1,0,1
 228 433 228 433 243 418 c 128,-1,2
 258 403 258 403 280 403 c 256,3,4
 302 403 302 403 317 418 c 128,-1,5
 332 433 332 433 332 455 c 256,6,7
 332 477 332 477 317 492 c 128,-1,8
 302 507 302 507 280 507 c 256,9,10
 258 507 258 507 243 492 c 128,-1,11
 228 477 228 477 228 455 c 1,12,-1
 228 455 l 1,0,1
930 91 m 1,13,14
 989 91 989 91 1031 148 c 128,-1,15
 1073 205 1073 205 1073 286 c 0,16,17
 1073 366 1073 366 1041 427 c 128,-1,18
 1009 488 1009 488 956 507 c 1,19,-1
 1008 585 l 1,20,21
 1079 552 1079 552 1121.5 471 c 128,-1,22
 1164 390 1164 390 1164 286 c 0,23,24
 1164 168 1164 168 1095.5 84 c 128,-1,25
 1027 0 1027 0 930 0 c 0,26,27
 849 0 849 0 792 64.5 c 128,-1,28
 735 129 735 129 735 221 c 2,29,-1
 735 325 l 2,30,31
 735 400 735 400 708.5 453.5 c 128,-1,32
 682 507 682 507 644 507 c 0,33,34
 612 507 612 507 589 472.5 c 128,-1,35
 566 438 566 438 566 390 c 0,36,37
 566 364 566 364 572.5 312 c 128,-1,38
 579 260 579 260 579 234 c 0,39,40
 579 137 579 137 522 68.5 c 128,-1,41
 465 0 465 0 384 0 c 0,42,43
 268 0 268 0 186 93.5 c 128,-1,44
 104 187 104 187 104 319 c 0,45,46
 104 446 104 446 152 522 c 128,-1,47
 200 598 200 598 280 598 c 0,48,49
 339 598 339 598 381 556 c 128,-1,50
 423 514 423 514 423 455 c 256,51,52
 423 396 423 396 381 354 c 128,-1,53
 339 312 339 312 280 312 c 0,54,55
 255 312 255 312 233 320.5 c 128,-1,56
 211 329 211 329 195 345 c 1,57,58
 195 339 195 339 194.5 334 c 128,-1,59
 194 329 194 329 194 324 c 0,60,61
 194 227 194 227 249.5 159 c 128,-1,62
 305 91 305 91 384 91 c 0,63,64
 427 91 427 91 457.5 133 c 128,-1,65
 488 175 488 175 488 234 c 0,66,67
 488 260 488 260 481.5 312 c 128,-1,68
 475 364 475 364 475 390 c 0,69,70
 475 476 475 476 524.5 537 c 128,-1,71
 574 598 574 598 644 598 c 0,72,73
 719 598 719 598 772.5 518 c 128,-1,74
 826 438 826 438 826 325 c 2,75,-1
 826 221 l 2,76,77
 826 167 826 167 856.5 129 c 128,-1,78
 887 91 887 91 930 91 c 1,79,-1
 930 91 l 1,13,14
EndSplineSet
EndChar

StartChar: U0C8A
Encoding: 3210 3210 14
Width: 1547
GlyphClass: 2
Flags: W
LayerCount: 2
Fore
SplineSet
215 455 m 1,0,1
 215 428 215 428 230 409 c 128,-1,2
 245 390 245 390 267 390 c 0,3,4
 286 390 286 390 299 409 c 128,-1,5
 312 428 312 428 312 455 c 256,6,7
 312 482 312 482 299 501 c 128,-1,8
 286 520 286 520 267 520 c 0,9,10
 245 520 245 520 230 501 c 128,-1,11
 215 482 215 482 215 455 c 1,12,-1
 215 455 l 1,0,1
917 78 m 1,13,14
 955 78 955 78 981.5 123.5 c 128,-1,15
 1008 169 1008 169 1008 234 c 0,16,17
 1008 260 1008 260 1001.5 312 c 128,-1,18
 995 364 995 364 995 390 c 0,19,20
 995 476 995 476 1071 537 c 128,-1,21
 1147 598 1147 598 1255 598 c 0,22,23
 1387 598 1387 598 1480 506.5 c 128,-1,24
 1573 415 1573 415 1573 286 c 0,25,26
 1573 168 1573 168 1508.5 84 c 128,-1,27
 1444 0 1444 0 1352 0 c 0,28,29
 1271 0 1271 0 1214 57 c 128,-1,30
 1157 114 1157 114 1157 195 c 0,31,32
 1157 260 1157 260 1202.5 305.5 c 128,-1,33
 1248 351 1248 351 1313 351 c 0,34,35
 1361 351 1361 351 1395.5 324.5 c 128,-1,36
 1430 298 1430 298 1430 260 c 0,37,38
 1430 233 1430 233 1411 214 c 128,-1,39
 1392 195 1392 195 1365 195 c 256,40,41
 1338 195 1338 195 1319 218 c 128,-1,42
 1300 241 1300 241 1300 273 c 1,43,44
 1277 264 1277 264 1262.5 243 c 128,-1,45
 1248 222 1248 222 1248 195 c 0,46,47
 1248 147 1248 147 1278.5 112.5 c 128,-1,48
 1309 78 1309 78 1352 78 c 0,49,50
 1406 78 1406 78 1444 139 c 128,-1,51
 1482 200 1482 200 1482 286 c 0,52,53
 1482 383 1482 383 1415.5 451.5 c 128,-1,54
 1349 520 1349 520 1255 520 c 0,55,56
 1185 520 1185 520 1135.5 482 c 128,-1,57
 1086 444 1086 444 1086 390 c 0,58,59
 1086 364 1086 364 1092.5 312 c 128,-1,60
 1099 260 1099 260 1099 234 c 0,61,62
 1099 137 1099 137 1045.5 68.5 c 128,-1,63
 992 0 992 0 917 0 c 0,64,65
 836 0 836 0 779 64.5 c 128,-1,66
 722 129 722 129 722 221 c 0,67,68
 722 249 722 249 728.5 305.5 c 128,-1,69
 735 362 735 362 735 390 c 0,70,71
 735 444 735 444 704.5 482 c 128,-1,72
 674 520 674 520 631 520 c 0,73,74
 599 520 599 520 576 482 c 128,-1,75
 553 444 553 444 553 390 c 0,76,77
 553 364 553 364 559.5 312 c 128,-1,78
 566 260 566 260 566 234 c 0,79,80
 566 137 566 137 509 68.5 c 128,-1,81
 452 0 452 0 371 0 c 0,82,83
 260 0 260 0 182 99 c 128,-1,84
 104 198 104 198 104 338 c 0,85,86
 104 456 104 456 148.5 527 c 128,-1,87
 193 598 193 598 267 598 c 0,88,89
 321 598 321 598 359 552.5 c 128,-1,90
 397 507 397 507 397 442 c 0,91,92
 397 388 397 388 359 350 c 128,-1,93
 321 312 321 312 267 312 c 0,94,95
 248 312 248 312 228 322 c 128,-1,96
 208 332 208 332 189 351 c 1,97,98
 189 238 189 238 242.5 158 c 128,-1,99
 296 78 296 78 371 78 c 0,100,101
 414 78 414 78 444.5 123.5 c 128,-1,102
 475 169 475 169 475 234 c 0,103,104
 475 260 475 260 468.5 312 c 128,-1,105
 462 364 462 364 462 390 c 0,106,107
 462 476 462 476 511.5 537 c 128,-1,108
 561 598 561 598 631 598 c 0,109,110
 712 598 712 598 769 537 c 128,-1,111
 826 476 826 476 826 390 c 0,112,113
 826 362 826 362 819.5 305.5 c 128,-1,114
 813 249 813 249 813 221 c 0,115,116
 813 162 813 162 843.5 120 c 128,-1,117
 874 78 874 78 917 78 c 1,118,-1
 917 78 l 1,13,14
EndSplineSet
EndChar

StartChar: U0C8B
Encoding: 3211 3211 15
Width: 1359
GlyphClass: 2
Flags: W
LayerCount: 2
Fore
SplineSet
163 468 m 1,0,1
 163 446 163 446 174.5 431 c 128,-1,2
 186 416 186 416 202 416 c 256,3,4
 218 416 218 416 229.5 431 c 128,-1,5
 241 446 241 446 241 468 c 0,6,7
 241 482 241 482 237.5 495.5 c 128,-1,8
 234 509 234 509 228 520 c 1,9,10
 201 520 201 520 182 505 c 128,-1,11
 163 490 163 490 163 468 c 1,12,-1
 163 468 l 1,0,1
163 130 m 1,13,14
 163 108 163 108 182 93 c 128,-1,15
 201 78 201 78 228 78 c 1,16,17
 234 89 234 89 237.5 102.5 c 128,-1,18
 241 116 241 116 241 130 c 0,19,20
 241 149 241 149 229.5 162.5 c 128,-1,21
 218 176 218 176 202 176 c 256,22,23
 186 176 186 176 174.5 162.5 c 128,-1,24
 163 149 163 149 163 130 c 1,25,-1
 163 130 l 1,13,14
72 130 m 1,26,27
 72 184 72 184 110 222 c 128,-1,28
 148 260 148 260 202 260 c 0,29,30
 248 260 248 260 285 223 c 128,-1,31
 322 186 322 186 332 130 c 1,32,33
 351 146 351 146 361 190 c 128,-1,34
 371 234 371 234 371 299 c 0,35,36
 371 358 371 358 361 398.5 c 128,-1,37
 351 439 351 439 332 455 c 1,38,39
 332 407 332 407 294 372.5 c 128,-1,40
 256 338 256 338 202 338 c 256,41,42
 148 338 148 338 110 376 c 128,-1,43
 72 414 72 414 72 468 c 256,44,45
 72 522 72 522 117.5 560 c 128,-1,46
 163 598 163 598 228 598 c 0,47,48
 325 598 325 598 393.5 510.5 c 128,-1,49
 462 423 462 423 462 299 c 2,50,-1
 462 247 l 1,51,52
 475 174 475 174 512 126 c 128,-1,53
 549 78 549 78 592 78 c 0,54,55
 654 78 654 78 697.5 141 c 128,-1,56
 741 204 741 204 741 293 c 256,57,58
 741 382 741 382 697.5 444.5 c 128,-1,59
 654 507 654 507 592 507 c 2,60,-1
 559 507 l 1,61,-1
 559 585 l 1,62,-1
 689 585 l 2,63,64
 713 585 713 585 730.5 604 c 128,-1,65
 748 623 748 623 748 650 c 0,66,67
 748 672 748 672 734 693 c 128,-1,68
 720 714 720 714 696 728 c 1,69,-1
 741 793 l 1,70,71
 786 772 786 772 812.5 733.5 c 128,-1,72
 839 695 839 695 839 650 c 0,73,74
 839 595 839 595 813 554.5 c 128,-1,75
 787 514 787 514 748 507 c 1,76,77
 788 473 788 473 810 417 c 128,-1,78
 832 361 832 361 832 293 c 0,79,80
 832 277 832 277 830.5 262 c 128,-1,81
 829 247 829 247 827 233 c 1,82,83
 857 163 857 163 908 120.5 c 128,-1,84
 959 78 959 78 1014 78 c 0,85,86
 1089 78 1089 78 1142.5 141 c 128,-1,87
 1196 204 1196 204 1196 293 c 256,88,89
 1196 382 1196 382 1142.5 444.5 c 128,-1,90
 1089 507 1089 507 1014 507 c 1,91,-1
 1021 585 l 1,92,93
 1131 585 1131 585 1209 499.5 c 128,-1,94
 1287 414 1287 414 1287 293 c 256,95,96
 1287 172 1287 172 1207 86 c 128,-1,97
 1127 0 1127 0 1014 0 c 0,98,99
 946 0 946 0 888 39.5 c 128,-1,100
 830 79 830 79 800 146 c 1,101,102
 767 79 767 79 711 39.5 c 128,-1,103
 655 0 655 0 592 0 c 0,104,105
 540 0 540 0 494 31.5 c 128,-1,106
 448 63 448 63 423 117 c 1,107,108
 398 63 398 63 345 31.5 c 128,-1,109
 292 0 292 0 228 0 c 0,110,111
 163 0 163 0 117.5 38 c 128,-1,112
 72 76 72 76 72 130 c 1,113,-1
 72 130 l 1,26,27
EndSplineSet
EndChar

StartChar: U0C8C
Encoding: 3212 3212 16
Width: 946
GlyphClass: 2
Flags: W
LayerCount: 2
Fore
SplineSet
712 436 m 1,0,1
 712 394 712 394 676.5 319 c 128,-1,2
 641 244 641 244 641 202 c 0,3,4
 641 148 641 148 675.5 110 c 128,-1,5
 710 72 710 72 758 72 c 0,6,7
 809 72 809 72 845 135.5 c 128,-1,8
 881 199 881 199 881 289 c 0,9,10
 881 351 881 351 854 415.5 c 128,-1,11
 827 480 827 480 777 540 c 1,12,-1
 849 592 l 1,13,14
 909 521 909 521 940.5 442 c 128,-1,15
 972 363 972 363 972 286 c 0,16,17
 972 165 972 165 909.5 79 c 128,-1,18
 847 -7 847 -7 758 -7 c 0,19,20
 672 -7 672 -7 611 54 c 128,-1,21
 550 115 550 115 550 202 c 0,22,23
 550 244 550 244 585.5 319 c 128,-1,24
 621 394 621 394 621 436 c 0,25,26
 621 468 621 468 598 491 c 128,-1,27
 575 514 575 514 543 514 c 0,28,29
 495 514 495 514 460.5 468.5 c 128,-1,30
 426 423 426 423 426 358 c 1,31,-1
 348 358 l 1,32,33
 348 423 348 423 313.5 468.5 c 128,-1,34
 279 514 279 514 231 514 c 0,35,36
 193 514 193 514 166.5 489 c 128,-1,37
 140 464 140 464 140 429 c 0,38,39
 140 403 140 403 155.5 376 c 128,-1,40
 171 349 171 349 199 325 c 1,41,-1
 153 267 l 1,42,43
 108 293 108 293 82 336.5 c 128,-1,44
 56 380 56 380 56 429 c 0,45,46
 56 497 56 497 107.5 544.5 c 128,-1,47
 159 592 159 592 231 592 c 0,48,49
 282 592 282 592 325 560 c 128,-1,50
 368 528 368 528 387 475 c 1,51,52
 406 528 406 528 449 560 c 128,-1,53
 492 592 492 592 543 592 c 0,54,55
 613 592 613 592 662.5 546.5 c 128,-1,56
 712 501 712 501 712 436 c 1,57,-1
 712 436 l 1,0,1
EndSplineSet
EndChar

StartChar: U0C8E
Encoding: 3214 3214 17
Width: 720
GlyphClass: 2
Flags: W
LayerCount: 2
Fore
SplineSet
655 234 m 1,0,1
 655 358 655 358 529.5 445.5 c 128,-1,2
 404 533 404 533 226 533 c 1,3,-1
 226 611 l 1,4,5
 441 611 441 611 593.5 500.5 c 128,-1,6
 746 390 746 390 746 234 c 0,7,8
 746 137 746 137 689 68.5 c 128,-1,9
 632 0 632 0 551 0 c 0,10,11
 500 0 500 0 457 32 c 128,-1,12
 414 64 414 64 395 117 c 1,13,14
 376 64 376 64 333 32 c 128,-1,15
 290 0 290 0 239 0 c 0,16,17
 169 0 169 0 119.5 53.5 c 128,-1,18
 70 107 70 107 70 182 c 0,19,20
 70 236 70 236 108 274 c 128,-1,21
 146 312 146 312 200 312 c 0,22,23
 240 312 240 312 270 278.5 c 128,-1,24
 300 245 300 245 304 195 c 1,25,-1
 239 195 l 1,26,27
 239 211 239 211 227.5 222.5 c 128,-1,28
 216 234 216 234 200 234 c 256,29,30
 184 234 184 234 172.5 215 c 128,-1,31
 161 196 161 196 161 169 c 0,32,33
 161 131 161 131 184 104.5 c 128,-1,34
 207 78 207 78 239 78 c 0,35,36
 287 78 287 78 321.5 123.5 c 128,-1,37
 356 169 356 169 356 234 c 1,38,-1
 434 234 l 1,39,40
 434 169 434 169 468.5 123.5 c 128,-1,41
 503 78 503 78 551 78 c 0,42,43
 594 78 594 78 624.5 123.5 c 128,-1,44
 655 169 655 169 655 234 c 1,45,-1
 655 234 l 1,0,1
EndSplineSet
EndChar

StartChar: U0C8F
Encoding: 3215 3215 18
Width: 724
GlyphClass: 2
Flags: W
LayerCount: 2
Fore
SplineSet
659 273 m 1,0,1
 659 352 659 352 605.5 420 c 128,-1,2
 552 488 552 488 464 520 c 1,3,4
 449 462 449 462 409 426 c 128,-1,5
 369 390 369 390 321 390 c 0,6,7
 246 390 246 390 192.5 451 c 128,-1,8
 139 512 139 512 139 598 c 1,9,-1
 217 598 l 1,10,11
 217 550 217 550 247.5 515.5 c 128,-1,12
 278 481 278 481 321 481 c 0,13,14
 353 481 353 481 376 523 c 128,-1,15
 399 565 399 565 399 624 c 1,16,17
 551 597 551 597 650.5 497.5 c 128,-1,18
 750 398 750 398 750 273 c 0,19,20
 750 149 750 149 696.5 74.5 c 128,-1,21
 643 0 643 0 555 0 c 0,22,23
 502 0 502 0 459 28.5 c 128,-1,24
 416 57 416 57 399 104 c 1,25,26
 382 57 382 57 339 28.5 c 128,-1,27
 296 0 296 0 243 0 c 0,28,29
 173 0 173 0 123.5 49.5 c 128,-1,30
 74 99 74 99 74 169 c 0,31,32
 74 228 74 228 112 270 c 128,-1,33
 150 312 150 312 204 312 c 0,34,35
 244 312 244 312 274 278.5 c 128,-1,36
 304 245 304 245 308 195 c 1,37,-1
 243 195 l 1,38,39
 243 211 243 211 231.5 222.5 c 128,-1,40
 220 234 220 234 204 234 c 256,41,42
 188 234 188 234 176.5 215 c 128,-1,43
 165 196 165 196 165 169 c 0,44,45
 165 131 165 131 188 104.5 c 128,-1,46
 211 78 211 78 243 78 c 0,47,48
 291 78 291 78 325.5 123.5 c 128,-1,49
 360 169 360 169 360 234 c 1,50,-1
 438 234 l 1,51,52
 438 169 438 169 472.5 123.5 c 128,-1,53
 507 78 507 78 555 78 c 0,54,55
 602 78 602 78 630.5 131.5 c 128,-1,56
 659 185 659 185 659 273 c 1,57,-1
 659 273 l 1,0,1
EndSplineSet
EndChar

StartChar: U0C90
Encoding: 3216 3216 19
Width: 755
GlyphClass: 2
Flags: W
LayerCount: 2
Fore
SplineSet
690 299 m 1,0,1
 690 391 690 391 659.5 455.5 c 128,-1,2
 629 520 629 520 586 520 c 0,3,4
 538 520 538 520 503.5 474.5 c 128,-1,5
 469 429 469 429 469 364 c 1,6,-1
 391 364 l 1,7,8
 391 429 391 429 360.5 474.5 c 128,-1,9
 330 520 330 520 287 520 c 256,10,11
 244 520 244 520 213.5 474.5 c 128,-1,12
 183 429 183 429 183 364 c 1,13,-1
 105 364 l 1,14,15
 105 461 105 461 158.5 529.5 c 128,-1,16
 212 598 212 598 287 598 c 0,17,18
 330 598 330 598 369 570 c 128,-1,19
 408 542 408 542 430 494 c 1,20,21
 452 542 452 542 494.5 570 c 128,-1,22
 537 598 537 598 586 598 c 0,23,24
 667 598 667 598 724 510.5 c 128,-1,25
 781 423 781 423 781 299 c 256,26,27
 781 175 781 175 724 87.5 c 128,-1,28
 667 0 667 0 586 0 c 0,29,30
 533 0 533 0 490 28.5 c 128,-1,31
 447 57 447 57 430 104 c 1,32,33
 413 57 413 57 370 28.5 c 128,-1,34
 327 0 327 0 274 0 c 0,35,36
 204 0 204 0 154.5 49.5 c 128,-1,37
 105 99 105 99 105 169 c 0,38,39
 105 228 105 228 143 270 c 128,-1,40
 181 312 181 312 235 312 c 0,41,42
 275 312 275 312 305 278.5 c 128,-1,43
 335 245 335 245 339 195 c 1,44,-1
 274 195 l 1,45,46
 274 211 274 211 262.5 222.5 c 128,-1,47
 251 234 251 234 235 234 c 256,48,49
 219 234 219 234 207.5 215 c 128,-1,50
 196 196 196 196 196 169 c 0,51,52
 196 131 196 131 219 104.5 c 128,-1,53
 242 78 242 78 274 78 c 0,54,55
 322 78 322 78 356.5 123.5 c 128,-1,56
 391 169 391 169 391 234 c 1,57,-1
 469 234 l 1,58,59
 469 169 469 169 503.5 123.5 c 128,-1,60
 538 78 538 78 586 78 c 0,61,62
 629 78 629 78 659.5 142.5 c 128,-1,63
 690 207 690 207 690 299 c 1,64,-1
 690 299 l 1,0,1
EndSplineSet
EndChar

StartChar: U0C92
Encoding: 3218 3218 20
Width: 751
GlyphClass: 2
Flags: W
LayerCount: 2
Fore
SplineSet
361 468 m 1,0,1
 361 419 361 419 340.5 374.5 c 128,-1,2
 320 330 320 330 283 299 c 0,3,4
 249 271 249 271 230.5 240 c 128,-1,5
 212 209 212 209 212 182 c 0,6,7
 212 144 212 144 235 117.5 c 128,-1,8
 258 91 258 91 290 91 c 0,9,10
 338 91 338 91 372.5 133 c 128,-1,11
 407 175 407 175 407 234 c 1,12,-1
 485 234 l 1,13,14
 485 175 485 175 521 133 c 128,-1,15
 557 91 557 91 608 91 c 0,16,17
 643 91 643 91 668 119.5 c 128,-1,18
 693 148 693 148 693 189 c 0,19,20
 693 221 693 221 677 247 c 128,-1,21
 661 273 661 273 634 286 c 1,22,-1
 686 345 l 1,23,24
 728 321 728 321 752.5 279 c 128,-1,25
 777 237 777 237 777 189 c 0,26,27
 777 111 777 111 725.5 55.5 c 128,-1,28
 674 0 674 0 602 0 c 0,29,30
 550 0 550 0 507 30.5 c 128,-1,31
 464 61 464 61 446 111 c 1,32,33
 428 61 428 61 385 30.5 c 128,-1,34
 342 0 342 0 290 0 c 0,35,36
 220 0 220 0 170.5 53.5 c 128,-1,37
 121 107 121 107 121 182 c 0,38,39
 121 223 121 223 143 263.5 c 128,-1,40
 165 304 165 304 205 338 c 0,41,42
 236 364 236 364 253 398 c 128,-1,43
 270 432 270 432 270 468 c 0,44,45
 270 490 270 490 255.5 505 c 128,-1,46
 241 520 241 520 221 520 c 256,47,48
 201 520 201 520 187 505 c 128,-1,49
 173 490 173 490 173 468 c 0,50,51
 173 454 173 454 178 440.5 c 128,-1,52
 183 427 183 427 192 416 c 1,53,-1
 121 377 l 1,54,55
 102 400 102 400 92 423 c 128,-1,56
 82 446 82 446 82 468 c 0,57,58
 82 525 82 525 122.5 565 c 128,-1,59
 163 605 163 605 221 605 c 256,60,61
 279 605 279 605 320 565 c 128,-1,62
 361 525 361 525 361 468 c 1,63,-1
 361 468 l 1,0,1
EndSplineSet
EndChar

StartChar: U0C93
Encoding: 3219 3219 21
Width: 751
GlyphClass: 2
Flags: W
LayerCount: 2
Fore
SplineSet
127 696 m 1,0,1
 127 731 127 731 152 761 c 128,-1,2
 177 791 177 791 218 806 c 1,3,-1
 264 767 l 1,4,5
 229 742 229 742 224 694 c 128,-1,6
 219 646 219 646 248 602 c 1,7,8
 297 592 297 592 329 554.5 c 128,-1,9
 361 517 361 517 361 468 c 256,10,11
 361 419 361 419 340.5 374.5 c 128,-1,12
 320 330 320 330 283 299 c 0,13,14
 249 271 249 271 230.5 240 c 128,-1,15
 212 209 212 209 212 182 c 0,16,17
 212 144 212 144 235 117.5 c 128,-1,18
 258 91 258 91 290 91 c 0,19,20
 338 91 338 91 372.5 133 c 128,-1,21
 407 175 407 175 407 234 c 1,22,-1
 485 234 l 1,23,24
 485 175 485 175 521 133 c 128,-1,25
 557 91 557 91 608 91 c 0,26,27
 643 91 643 91 668 119.5 c 128,-1,28
 693 148 693 148 693 189 c 0,29,30
 693 221 693 221 677 247 c 128,-1,31
 661 273 661 273 634 286 c 1,32,-1
 686 345 l 1,33,34
 728 321 728 321 752.5 279 c 128,-1,35
 777 237 777 237 777 189 c 0,36,37
 777 111 777 111 725.5 55.5 c 128,-1,38
 674 0 674 0 602 0 c 0,39,40
 550 0 550 0 507 30.5 c 128,-1,41
 464 61 464 61 446 111 c 1,42,43
 428 61 428 61 385 30.5 c 128,-1,44
 342 0 342 0 290 0 c 0,45,46
 220 0 220 0 170.5 53.5 c 128,-1,47
 121 107 121 107 121 182 c 0,48,49
 121 223 121 223 143 263.5 c 128,-1,50
 165 304 165 304 205 338 c 0,51,52
 236 364 236 364 253 398 c 128,-1,53
 270 432 270 432 270 468 c 0,54,55
 270 490 270 490 255.5 505 c 128,-1,56
 241 520 241 520 221 520 c 256,57,58
 201 520 201 520 187 505 c 128,-1,59
 173 490 173 490 173 468 c 0,60,61
 173 454 173 454 178 440.5 c 128,-1,62
 183 427 183 427 192 416 c 1,63,-1
 121 377 l 1,64,65
 102 400 102 400 92 423 c 128,-1,66
 82 446 82 446 82 468 c 0,67,68
 82 514 82 514 110.5 550.5 c 128,-1,69
 139 587 139 587 185 599 c 1,70,71
 157 622 157 622 142 647.5 c 128,-1,72
 127 673 127 673 127 696 c 1,73,-1
 127 696 l 1,0,1
EndSplineSet
EndChar

StartChar: U0C94
Encoding: 3220 3220 22
Width: 751
GlyphClass: 2
Flags: W
LayerCount: 2
Fore
SplineSet
95 598 m 1,0,-1
 95 663 l 1,1,-1
 316 663 l 2,2,3
 339 663 339 663 339 689 c 128,-1,4
 339 715 339 715 316 728 c 1,5,-1
 95 728 l 1,6,-1
 95 806 l 1,7,-1
 550 806 l 2,8,9
 647 806 647 806 715.5 737.5 c 128,-1,10
 784 669 784 669 784 572 c 256,11,12
 784 475 784 475 730.5 406.5 c 128,-1,13
 677 338 677 338 602 338 c 0,14,15
 532 338 532 338 482.5 383.5 c 128,-1,16
 433 429 433 429 433 494 c 0,17,18
 433 548 433 548 471 586 c 128,-1,19
 509 624 509 624 563 624 c 0,20,21
 601 624 601 624 627.5 601 c 128,-1,22
 654 578 654 578 654 546 c 0,23,24
 654 524 654 524 639 509 c 128,-1,25
 624 494 624 494 602 494 c 0,26,27
 583 494 583 494 571 512 c 128,-1,28
 559 530 559 530 563 553 c 1,29,30
 541 553 541 553 526 535.5 c 128,-1,31
 511 518 511 518 511 494 c 0,32,33
 511 459 511 459 537.5 434.5 c 128,-1,34
 564 410 564 410 602 410 c 256,35,36
 640 410 640 410 666.5 453.5 c 128,-1,37
 693 497 693 497 693 559 c 0,38,39
 693 629 693 629 651 678.5 c 128,-1,40
 609 728 609 728 550 728 c 2,41,-1
 394 728 l 1,42,43
 406 718 406 718 413 704 c 128,-1,44
 420 690 420 690 420 676 c 0,45,46
 420 644 420 644 389.5 621 c 128,-1,47
 359 598 359 598 316 598 c 2,48,-1
 264 598 l 1,49,50
 307 585 307 585 334 549 c 128,-1,51
 361 513 361 513 361 468 c 0,52,53
 361 419 361 419 340.5 374.5 c 128,-1,54
 320 330 320 330 283 299 c 0,55,56
 249 271 249 271 230.5 240 c 128,-1,57
 212 209 212 209 212 182 c 0,58,59
 212 144 212 144 235 117.5 c 128,-1,60
 258 91 258 91 290 91 c 0,61,62
 338 91 338 91 372.5 133 c 128,-1,63
 407 175 407 175 407 234 c 1,64,-1
 485 234 l 1,65,66
 485 175 485 175 521 133 c 128,-1,67
 557 91 557 91 608 91 c 0,68,69
 643 91 643 91 668 116 c 128,-1,70
 693 141 693 141 693 176 c 0,71,72
 693 207 693 207 679 231.5 c 128,-1,73
 665 256 665 256 641 267 c 1,74,-1
 693 325 l 1,75,76
 732 302 732 302 754.5 262.5 c 128,-1,77
 777 223 777 223 777 176 c 0,78,79
 777 103 777 103 725.5 51.5 c 128,-1,80
 674 0 674 0 602 0 c 0,81,82
 550 0 550 0 507 30.5 c 128,-1,83
 464 61 464 61 446 111 c 1,84,85
 428 61 428 61 385 30.5 c 128,-1,86
 342 0 342 0 290 0 c 0,87,88
 220 0 220 0 170.5 53.5 c 128,-1,89
 121 107 121 107 121 182 c 0,90,91
 121 223 121 223 143 263.5 c 128,-1,92
 165 304 165 304 205 338 c 0,93,94
 236 364 236 364 253 398 c 128,-1,95
 270 432 270 432 270 468 c 0,96,97
 270 490 270 490 255.5 505 c 128,-1,98
 241 520 241 520 221 520 c 256,99,100
 201 520 201 520 187 505 c 128,-1,101
 173 490 173 490 173 468 c 0,102,103
 173 454 173 454 178 440.5 c 128,-1,104
 183 427 183 427 192 416 c 1,105,-1
 121 377 l 1,106,107
 102 400 102 400 92 423 c 128,-1,108
 82 446 82 446 82 468 c 0,109,110
 82 513 82 513 108.5 549 c 128,-1,111
 135 585 135 585 178 598 c 1,112,-1
 95 598 l 1,113,-1
 95 598 l 1,0,-1
EndSplineSet
EndChar

StartChar: U0C95
Encoding: 3221 3221 23
Width: 546
GlyphClass: 2
Flags: W
AnchorPoint: "Anchor-0" 327 -15 basechar 0
LayerCount: 2
Fore
SplineSet
207 221 m 1,0,1
 207 167 207 167 241.5 129 c 128,-1,2
 276 91 276 91 324 91 c 256,3,4
 372 91 372 91 406.5 129 c 128,-1,5
 441 167 441 167 441 221 c 256,6,7
 441 275 441 275 406.5 313 c 128,-1,8
 372 351 372 351 324 351 c 256,9,10
 276 351 276 351 241.5 313 c 128,-1,11
 207 275 207 275 207 221 c 1,12,-1
 207 221 l 1,0,1
64 423 m 1,13,-1
 285 423 l 1,14,-1
 285 507 l 1,15,-1
 64 507 l 1,16,-1
 64 585 l 1,17,-1
 467 585 l 2,18,19
 491 585 491 585 508 600 c 128,-1,20
 525 615 525 615 525 637 c 0,21,22
 525 654 525 654 509.5 672 c 128,-1,23
 494 690 494 690 467 702 c 1,24,-1
 519 767 l 1,25,26
 558 744 558 744 580.5 709.5 c 128,-1,27
 603 675 603 675 603 637 c 0,28,29
 603 583 603 583 565 545 c 128,-1,30
 527 507 527 507 473 507 c 2,31,-1
 363 507 l 1,32,-1
 363 423 l 1,33,-1
 584 423 l 1,34,-1
 584 351 l 1,35,-1
 473 351 l 1,36,37
 501 327 501 327 516.5 293 c 128,-1,38
 532 259 532 259 532 221 c 0,39,40
 532 129 532 129 471 64.5 c 128,-1,41
 410 0 410 0 324 0 c 256,42,43
 238 0 238 0 177 63 c 128,-1,44
 116 126 116 126 116 215 c 0,45,46
 116 257 116 257 131 292.5 c 128,-1,47
 146 328 146 328 174 351 c 1,48,-1
 64 351 l 1,49,-1
 64 423 l 1,50,-1
 64 423 l 1,13,-1
EndSplineSet
EndChar

StartChar: U0C96
Encoding: 3222 3222 24
Width: 850
GlyphClass: 2
Flags: W
AnchorPoint: "Anchor-0" 450 -24 basechar 0
LayerCount: 2
Fore
SplineSet
161 130 m 1,0,1
 161 114 161 114 184 102.5 c 128,-1,2
 207 91 207 91 239 91 c 0,3,4
 273 91 273 91 303 101 c 128,-1,5
 333 111 333 111 356 130 c 1,6,7
 326 155 326 155 296 168.5 c 128,-1,8
 266 182 266 182 239 182 c 0,9,10
 207 182 207 182 184 167 c 128,-1,11
 161 152 161 152 161 130 c 1,12,-1
 161 130 l 1,0,1
629 91 m 1,13,14
 694 91 694 91 739.5 159.5 c 128,-1,15
 785 228 785 228 785 325 c 0,16,17
 785 454 785 454 705 545.5 c 128,-1,18
 625 637 625 637 512 637 c 1,19,-1
 512 715 l 1,20,21
 663 715 663 715 769.5 601 c 128,-1,22
 876 487 876 487 876 325 c 0,23,24
 876 190 876 190 803.5 95 c 128,-1,25
 731 0 731 0 629 0 c 0,26,27
 567 0 567 0 510 20 c 128,-1,28
 453 40 453 40 408 78 c 1,29,30
 377 41 377 41 332.5 20.5 c 128,-1,31
 288 0 288 0 239 0 c 0,32,33
 169 0 169 0 119.5 38 c 128,-1,34
 70 76 70 76 70 130 c 0,35,36
 70 187 70 187 119.5 227 c 128,-1,37
 169 267 169 267 239 267 c 0,38,39
 278 267 278 267 316.5 252 c 128,-1,40
 355 237 355 237 389 208 c 1,41,42
 398 234 398 234 403 263.5 c 128,-1,43
 408 293 408 293 408 325 c 0,44,45
 408 406 408 406 373.5 463 c 128,-1,46
 339 520 339 520 291 520 c 0,47,48
 264 520 264 520 245 503 c 128,-1,49
 226 486 226 486 226 462 c 1,50,51
 234 471 234 471 244 476 c 128,-1,52
 254 481 254 481 265 481 c 0,53,54
 287 481 287 481 302 464 c 128,-1,55
 317 447 317 447 317 423 c 256,56,57
 317 399 317 399 298 381.5 c 128,-1,58
 279 364 279 364 252 364 c 0,59,60
 209 364 209 364 178.5 398.5 c 128,-1,61
 148 433 148 433 148 481 c 256,62,63
 148 529 148 529 190 563.5 c 128,-1,64
 232 598 232 598 291 598 c 0,65,66
 377 598 377 598 438 518 c 128,-1,67
 499 438 499 438 499 325 c 0,68,69
 499 274 499 274 487.5 227.5 c 128,-1,70
 476 181 476 181 454 143 c 1,71,72
 484 118 484 118 529 104.5 c 128,-1,73
 574 91 574 91 629 91 c 1,74,-1
 629 91 l 1,13,14
EndSplineSet
EndChar

StartChar: U0C97
Encoding: 3223 3223 25
Width: 650
GlyphClass: 2
Flags: W
AnchorPoint: "Anchor-0" 388 -21 basechar 0
LayerCount: 2
Fore
SplineSet
126 0 m 1,0,-1
 126 195 l 2,1,2
 126 286 126 286 153 366.5 c 128,-1,3
 180 447 180 447 230 507 c 1,4,-1
 126 507 l 1,5,-1
 126 585 l 1,6,-1
 503 585 l 2,7,8
 525 585 525 585 540 604 c 128,-1,9
 555 623 555 623 555 650 c 0,10,11
 555 678 555 678 545 701.5 c 128,-1,12
 535 725 535 725 516 741 c 1,13,-1
 568 793 l 1,14,15
 605 762 605 762 625.5 724.5 c 128,-1,16
 646 687 646 687 646 650 c 0,17,18
 646 599 646 599 617 559 c 128,-1,19
 588 519 588 519 542 507 c 1,20,21
 592 447 592 447 619 366.5 c 128,-1,22
 646 286 646 286 646 195 c 2,23,-1
 646 0 l 1,24,-1
 555 0 l 1,25,-1
 555 195 l 2,26,27
 555 324 555 324 505.5 415.5 c 128,-1,28
 456 507 456 507 386 507 c 256,29,30
 316 507 316 507 266.5 415.5 c 128,-1,31
 217 324 217 324 217 195 c 2,32,-1
 217 0 l 1,33,-1
 126 0 l 1,34,-1
 126 0 l 1,0,-1
EndSplineSet
EndChar

StartChar: U0C98
Encoding: 3224 3224 26
Width: 915
GlyphClass: 2
Flags: W
AnchorPoint: "Anchor-0" 505 -197 basechar 0
LayerCount: 2
Fore
SplineSet
343 325 m 1,0,-1
 343 429 l 1,1,-1
 447 429 l 1,2,-1
 447 325 l 1,3,-1
 343 325 l 1,4,-1
 343 325 l 1,0,-1
343 -182 m 1,5,-1
 343 -143 l 1,6,-1
 369 26 l 1,7,-1
 421 26 l 1,8,-1
 447 -143 l 1,9,-1
 447 -182 l 1,10,-1
 343 -182 l 1,11,-1
 343 -182 l 1,5,-1
785 338 m 1,12,13
 812 338 812 338 831 361 c 128,-1,14
 850 384 850 384 850 416 c 0,15,16
 850 455 850 455 825.5 492 c 128,-1,17
 801 529 801 529 759 553 c 1,18,-1
 831 618 l 1,19,20
 886 579 886 579 917 525.5 c 128,-1,21
 948 472 948 472 948 416 c 0,22,23
 948 348 948 348 901.5 299.5 c 128,-1,24
 855 251 855 251 790 251 c 0,25,26
 771 251 771 251 752 256.5 c 128,-1,27
 733 262 733 262 714 273 c 1,28,29
 717 256 717 256 718.5 238 c 128,-1,30
 720 220 720 220 720 202 c 0,31,32
 720 118 720 118 670.5 59 c 128,-1,33
 621 0 621 0 551 0 c 0,34,35
 500 0 500 0 457 32 c 128,-1,36
 414 64 414 64 395 117 c 1,37,38
 376 64 376 64 331.5 32 c 128,-1,39
 287 0 287 0 233 0 c 0,40,41
 165 0 165 0 117.5 49.5 c 128,-1,42
 70 99 70 99 70 169 c 0,43,44
 70 228 70 228 108 270 c 128,-1,45
 146 312 146 312 200 312 c 0,46,47
 243 312 243 312 273.5 277.5 c 128,-1,48
 304 243 304 243 304 195 c 1,49,-1
 239 195 l 1,50,51
 239 211 239 211 227.5 222.5 c 128,-1,52
 216 234 216 234 200 234 c 256,53,54
 184 234 184 234 172.5 215 c 128,-1,55
 161 196 161 196 161 169 c 0,56,57
 161 137 161 137 182 114 c 128,-1,58
 203 91 203 91 233 91 c 0,59,60
 284 91 284 91 320 133 c 128,-1,61
 356 175 356 175 356 234 c 1,62,-1
 434 234 l 1,63,64
 434 175 434 175 468.5 133 c 128,-1,65
 503 91 503 91 551 91 c 0,66,67
 583 91 583 91 606 123.5 c 128,-1,68
 629 156 629 156 629 202 c 0,69,70
 629 258 629 258 609 311.5 c 128,-1,71
 589 365 589 365 551 410 c 1,72,-1
 636 455 l 1,73,74
 661 401 661 401 701.5 369.5 c 128,-1,75
 742 338 742 338 785 338 c 1,76,-1
 785 338 l 1,12,13
70 507 m 1,77,-1
 70 585 l 1,78,-1
 577 585 l 2,79,80
 604 585 604 585 623 604 c 128,-1,81
 642 623 642 623 642 650 c 0,82,83
 642 679 642 679 626.5 704 c 128,-1,84
 611 729 611 729 584 741 c 1,85,-1
 629 793 l 1,86,87
 671 774 671 774 695.5 735 c 128,-1,88
 720 696 720 696 720 650 c 0,89,90
 720 591 720 591 678 549 c 128,-1,91
 636 507 636 507 577 507 c 2,92,-1
 70 507 l 1,93,-1
 70 507 l 1,77,-1
EndSplineSet
EndChar

StartChar: U0C99
Encoding: 3225 3225 27
Width: 767
GlyphClass: 2
Flags: W
AnchorPoint: "Anchor-0" 447 -12 basechar 0
LayerCount: 2
Fore
SplineSet
403 273 m 1,0,-1
 403 364 l 1,1,-1
 494 364 l 1,2,-1
 494 273 l 1,3,-1
 403 273 l 1,4,-1
 403 273 l 1,0,-1
85 468 m 1,5,6
 85 522 85 522 125 560 c 128,-1,7
 165 598 165 598 221 598 c 0,8,9
 275 598 275 598 313 560 c 128,-1,10
 351 522 351 522 351 468 c 1,11,12
 442 531 442 531 511.5 564.5 c 128,-1,13
 581 598 581 598 624 598 c 0,14,15
 694 598 694 598 743.5 560 c 128,-1,16
 793 522 793 522 793 468 c 0,17,18
 793 445 793 445 786.5 425 c 128,-1,19
 780 405 780 405 767 390 c 1,20,-1
 689 429 l 1,21,22
 695 440 695 440 698.5 450 c 128,-1,23
 702 460 702 460 702 468 c 0,24,25
 702 490 702 490 679 505 c 128,-1,26
 656 520 656 520 624 520 c 0,27,28
 570 520 570 520 481.5 469.5 c 128,-1,29
 393 419 393 419 280 325 c 0,30,31
 246 296 246 296 227 258.5 c 128,-1,32
 208 221 208 221 208 182 c 0,33,34
 208 144 208 144 231 117.5 c 128,-1,35
 254 91 254 91 286 91 c 0,36,37
 334 91 334 91 368.5 131 c 128,-1,38
 403 171 403 171 403 228 c 1,39,-1
 481 228 l 1,40,41
 481 171 481 171 515.5 131 c 128,-1,42
 550 91 550 91 598 91 c 0,43,44
 636 91 636 91 662.5 117.5 c 128,-1,45
 689 144 689 144 689 182 c 0,46,47
 689 213 689 213 671.5 241 c 128,-1,48
 654 269 654 269 624 286 c 1,49,-1
 676 351 l 1,50,51
 724 323 724 323 752 278 c 128,-1,52
 780 233 780 233 780 182 c 0,53,54
 780 107 780 107 726.5 53.5 c 128,-1,55
 673 0 673 0 598 0 c 0,56,57
 552 0 552 0 509.5 31.5 c 128,-1,58
 467 63 467 63 442 117 c 1,59,60
 417 63 417 63 374.5 31.5 c 128,-1,61
 332 0 332 0 286 0 c 0,62,63
 216 0 216 0 166.5 53.5 c 128,-1,64
 117 107 117 107 117 182 c 0,65,66
 117 219 117 219 137.5 260 c 128,-1,67
 158 301 158 301 195 338 c 256,68,69
 232 375 232 375 252.5 409 c 128,-1,70
 273 443 273 443 273 468 c 0,71,72
 273 490 273 490 258 505 c 128,-1,73
 243 520 243 520 221 520 c 256,74,75
 199 520 199 520 184 505 c 128,-1,76
 169 490 169 490 169 468 c 0,77,78
 169 450 169 450 172.5 437 c 128,-1,79
 176 424 176 424 182 416 c 1,80,-1
 117 390 l 1,81,82
 102 405 102 405 93.5 425.5 c 128,-1,83
 85 446 85 446 85 468 c 1,84,-1
 85 468 l 1,5,6
EndSplineSet
EndChar

StartChar: U0C9A
Encoding: 3226 3226 28
Width: 758
GlyphClass: 2
Flags: W
AnchorPoint: "Anchor-0" 447 -24 basechar 0
LayerCount: 2
Fore
SplineSet
511 403 m 1,0,-1
 589 403 l 1,1,-1
 589 507 l 1,2,-1
 511 507 l 1,3,-1
 511 585 l 1,4,-1
 634 585 l 2,5,6
 658 585 658 585 675.5 604 c 128,-1,7
 693 623 693 623 693 650 c 0,8,9
 693 673 693 673 679.5 696.5 c 128,-1,10
 666 720 666 720 641 741 c 1,11,-1
 693 793 l 1,12,13
 730 767 730 767 750.5 726 c 128,-1,14
 771 685 771 685 771 637 c 256,15,16
 771 589 771 589 741.5 552 c 128,-1,17
 712 515 712 515 667 507 c 1,18,-1
 667 403 l 1,19,-1
 784 403 l 1,20,-1
 784 325 l 1,21,-1
 732 325 l 1,22,23
 757 304 757 304 770.5 270 c 128,-1,24
 784 236 784 236 784 195 c 0,25,26
 784 114 784 114 730.5 57 c 128,-1,27
 677 0 677 0 602 0 c 0,28,29
 556 0 556 0 513.5 31.5 c 128,-1,30
 471 63 471 63 446 117 c 1,31,32
 421 63 421 63 378.5 31.5 c 128,-1,33
 336 0 336 0 290 0 c 0,34,35
 220 0 220 0 170.5 53.5 c 128,-1,36
 121 107 121 107 121 182 c 0,37,38
 121 226 121 226 143 272 c 128,-1,39
 165 318 165 318 205 358 c 0,40,41
 236 389 236 389 253 417.5 c 128,-1,42
 270 446 270 446 270 468 c 256,43,44
 270 490 270 490 255 505 c 128,-1,45
 240 520 240 520 218 520 c 0,46,47
 199 520 199 520 186 505 c 128,-1,48
 173 490 173 490 173 468 c 0,49,50
 173 459 173 459 178 445.5 c 128,-1,51
 183 432 183 432 192 416 c 1,52,-1
 114 390 l 1,53,54
 98 408 98 408 90 428.5 c 128,-1,55
 82 449 82 449 82 468 c 0,56,57
 82 525 82 525 122 565 c 128,-1,58
 162 605 162 605 218 605 c 0,59,60
 277 605 277 605 319 565 c 128,-1,61
 361 525 361 525 361 468 c 0,62,63
 361 441 361 441 341 402.5 c 128,-1,64
 321 364 321 364 283 319 c 0,65,66
 249 278 249 278 230.5 242.5 c 128,-1,67
 212 207 212 207 212 182 c 0,68,69
 212 144 212 144 235 117.5 c 128,-1,70
 258 91 258 91 290 91 c 0,71,72
 338 91 338 91 372.5 133 c 128,-1,73
 407 175 407 175 407 234 c 1,74,-1
 485 234 l 1,75,76
 485 175 485 175 519.5 133 c 128,-1,77
 554 91 554 91 602 91 c 0,78,79
 640 91 640 91 666.5 125.5 c 128,-1,80
 693 160 693 160 693 208 c 256,81,82
 693 256 693 256 664.5 290.5 c 128,-1,83
 636 325 636 325 595 325 c 2,84,-1
 511 325 l 1,85,-1
 511 403 l 1,86,-1
 511 403 l 1,0,-1
EndSplineSet
EndChar

StartChar: U0C9B
Encoding: 3227 3227 29
Width: 740
GlyphClass: 2
Flags: W
AnchorPoint: "Anchor-0" 437 -202 basechar 0
LayerCount: 2
Fore
SplineSet
239 468 m 5,0,1
 239 444 239 444 252.5 427 c 132,-1,2
 266 410 266 410 285 410 c 260,3,4
 304 410 304 410 317 427 c 132,-1,5
 330 444 330 444 330 468 c 260,6,7
 330 492 330 492 317 509.5 c 132,-1,8
 304 527 304 527 285 527 c 260,9,10
 266 527 266 527 252.5 509.5 c 132,-1,11
 239 492 239 492 239 468 c 5,12,-1
 239 468 l 5,0,1
389 -182 m 5,13,-1
 389 -143 l 5,14,-1
 415 26 l 5,15,-1
 467 26 l 5,16,-1
 493 -143 l 5,17,-1
 493 -182 l 5,18,-1
 389 -182 l 5,19,-1
 389 -182 l 5,13,-1
584 91 m 5,20,21
 622 91 622 91 648.5 152 c 132,-1,22
 675 213 675 213 675 299 c 260,23,24
 675 385 675 385 631 446 c 132,-1,25
 587 507 587 507 525 507 c 5,26,-1
 525 585 l 5,27,-1
 623 585 l 6,28,29
 650 585 650 585 669 604 c 132,-1,30
 688 623 688 623 688 650 c 4,31,32
 688 673 688 673 674.5 696.5 c 132,-1,33
 661 720 661 720 636 741 c 5,34,-1
 688 793 l 5,35,36
 724 772 724 772 745 733.5 c 132,-1,37
 766 695 766 695 766 650 c 4,38,39
 766 601 766 601 745 562.5 c 132,-1,40
 724 524 724 524 688 507 c 5,41,42
 725 476 725 476 745.5 421.5 c 132,-1,43
 766 367 766 367 766 299 c 4,44,45
 766 175 766 175 712.5 87.5 c 132,-1,46
 659 0 659 0 584 0 c 4,47,48
 539 0 539 0 499.5 32 c 132,-1,49
 460 64 460 64 441 117 c 5,50,51
 422 64 422 64 382.5 32 c 132,-1,52
 343 0 343 0 298 0 c 4,53,54
 223 0 223 0 169.5 82 c 132,-1,55
 116 164 116 164 116 280 c 4,56,57
 116 424 116 424 165.5 511 c 132,-1,58
 215 598 215 598 298 598 c 4,59,60
 346 598 346 598 380.5 560 c 132,-1,61
 415 522 415 522 415 468 c 260,62,63
 415 414 415 414 377 376 c 132,-1,64
 339 338 339 338 285 338 c 4,65,66
 266 338 266 338 249 345 c 132,-1,67
 232 352 232 352 220 364 c 5,68,69
 214 346 214 346 210.5 325 c 132,-1,70
 207 304 207 304 207 280 c 4,71,72
 207 202 207 202 233.5 146.5 c 132,-1,73
 260 91 260 91 298 91 c 4,74,75
 341 91 341 91 371.5 133 c 132,-1,76
 402 175 402 175 402 234 c 5,77,-1
 480 234 l 5,78,79
 480 175 480 175 510.5 133 c 132,-1,80
 541 91 541 91 584 91 c 5,81,-1
 584 91 l 5,20,21
EndSplineSet
EndChar

StartChar: U0C9C
Encoding: 3228 3228 30
Width: 751
GlyphClass: 2
Flags: W
AnchorPoint: "Anchor-0" 444 0 basechar 0
LayerCount: 2
Fore
SplineSet
355 455 m 1,0,1
 355 410 355 410 336 369 c 128,-1,2
 317 328 317 328 283 299 c 0,3,4
 249 271 249 271 230.5 240 c 128,-1,5
 212 209 212 209 212 182 c 0,6,7
 212 144 212 144 235 117.5 c 128,-1,8
 258 91 258 91 290 91 c 0,9,10
 338 91 338 91 372.5 133 c 128,-1,11
 407 175 407 175 407 234 c 1,12,-1
 485 234 l 1,13,14
 485 175 485 175 521 133 c 128,-1,15
 557 91 557 91 608 91 c 0,16,17
 643 91 643 91 668 119.5 c 128,-1,18
 693 148 693 148 693 189 c 0,19,20
 693 221 693 221 677 247 c 128,-1,21
 661 273 661 273 634 286 c 1,22,-1
 686 345 l 1,23,24
 728 321 728 321 752.5 279 c 128,-1,25
 777 237 777 237 777 189 c 0,26,27
 777 111 777 111 725.5 55.5 c 128,-1,28
 674 0 674 0 602 0 c 0,29,30
 550 0 550 0 507 30.5 c 128,-1,31
 464 61 464 61 446 111 c 1,32,33
 428 61 428 61 385 30.5 c 128,-1,34
 342 0 342 0 290 0 c 0,35,36
 220 0 220 0 170.5 53.5 c 128,-1,37
 121 107 121 107 121 182 c 0,38,39
 121 223 121 223 143 263.5 c 128,-1,40
 165 304 165 304 205 338 c 0,41,42
 236 364 236 364 253 398 c 128,-1,43
 270 432 270 432 270 468 c 0,44,45
 270 490 270 490 257 505 c 128,-1,46
 244 520 244 520 225 520 c 0,47,48
 203 520 203 520 188 505 c 128,-1,49
 173 490 173 490 173 468 c 0,50,51
 173 454 173 454 178 440.5 c 128,-1,52
 183 427 183 427 192 416 c 1,53,-1
 121 377 l 1,54,55
 102 400 102 400 92 423 c 128,-1,56
 82 446 82 446 82 468 c 0,57,58
 82 525 82 525 124 565 c 128,-1,59
 166 605 166 605 225 605 c 0,60,61
 259 605 259 605 286.5 593 c 128,-1,62
 314 581 314 581 329 559 c 1,63,64
 389 509 389 509 446 482 c 128,-1,65
 503 455 503 455 550 455 c 0,66,67
 599 455 599 455 642 490.5 c 128,-1,68
 685 526 685 526 706 585 c 1,69,-1
 771 540 l 1,70,71
 743 464 743 464 682.5 417.5 c 128,-1,72
 622 371 622 371 550 371 c 0,73,74
 504 371 504 371 453.5 392.5 c 128,-1,75
 403 414 403 414 355 455 c 1,76,-1
 355 455 l 1,0,1
EndSplineSet
EndChar

StartChar: U0C9D
Encoding: 3229 3229 31
Width: 1541
GlyphClass: 2
Flags: W
AnchorPoint: "Anchor-0" 820 -200 basechar 0
LayerCount: 2
Fore
SplineSet
190 299 m 1,0,1
 190 213 190 213 247 152 c 128,-1,2
 304 91 304 91 385 91 c 256,3,4
 466 91 466 91 523 152 c 128,-1,5
 580 213 580 213 580 299 c 256,6,7
 580 385 580 385 523 446 c 128,-1,8
 466 507 466 507 385 507 c 256,9,10
 304 507 304 507 247 446 c 128,-1,11
 190 385 190 385 190 299 c 1,12,-1
 190 299 l 1,0,1
196 507 m 1,13,-1
 99 507 l 1,14,-1
 99 585 l 1,15,-1
 567 585 l 2,16,17
 594 585 594 585 613 604 c 128,-1,18
 632 623 632 623 632 650 c 0,19,20
 632 675 632 675 620 699 c 128,-1,21
 608 723 608 723 586 741 c 1,22,-1
 632 793 l 1,23,24
 668 772 668 772 689 733.5 c 128,-1,25
 710 695 710 695 710 650 c 0,26,27
 710 591 710 591 670 549 c 128,-1,28
 630 507 630 507 573 507 c 1,29,30
 620 468 620 468 645.5 413.5 c 128,-1,31
 671 359 671 359 671 299 c 0,32,33
 671 277 671 277 667.5 254 c 128,-1,34
 664 231 664 231 657 208 c 1,35,36
 688 154 688 154 734.5 122.5 c 128,-1,37
 781 91 781 91 829 91 c 0,38,39
 904 91 904 91 957.5 150 c 128,-1,40
 1011 209 1011 209 1011 293 c 0,41,42
 1011 382 1011 382 957.5 444.5 c 128,-1,43
 904 507 904 507 829 507 c 1,44,-1
 836 585 l 1,45,46
 946 585 946 585 1024 499.5 c 128,-1,47
 1102 414 1102 414 1102 293 c 2,48,-1
 1100 250 l 1,49,50
 1130 172 1130 172 1183 125 c 128,-1,51
 1236 78 1236 78 1294 78 c 0,52,53
 1369 78 1369 78 1422.5 141 c 128,-1,54
 1476 204 1476 204 1476 293 c 256,55,56
 1476 382 1476 382 1422.5 444.5 c 128,-1,57
 1369 507 1369 507 1294 507 c 1,58,-1
 1300 585 l 1,59,60
 1411 585 1411 585 1489 499.5 c 128,-1,61
 1567 414 1567 414 1567 293 c 256,62,63
 1567 172 1567 172 1487 86 c 128,-1,64
 1407 0 1407 0 1294 0 c 0,65,66
 1219 0 1219 0 1156.5 41 c 128,-1,67
 1094 82 1094 82 1067 150 c 1,68,69
 1030 81 1030 81 966 40.5 c 128,-1,70
 902 0 902 0 829 0 c 0,71,72
 770 0 770 0 714.5 35 c 128,-1,73
 659 70 659 70 621 131 c 1,74,75
 581 70 581 70 518.5 35 c 128,-1,76
 456 0 456 0 385 0 c 0,77,78
 267 0 267 0 183 87.5 c 128,-1,79
 99 175 99 175 99 299 c 0,80,81
 99 359 99 359 124.5 413.5 c 128,-1,82
 150 468 150 468 196 507 c 1,83,-1
 196 507 l 1,13,-1
1011 -182 m 1,84,-1
 1011 -143 l 1,85,-1
 1037 39 l 1,86,-1
 1089 39 l 1,87,-1
 1115 -143 l 1,88,-1
 1115 -182 l 1,89,-1
 1011 -182 l 1,90,-1
 1011 -182 l 1,84,-1
EndSplineSet
EndChar

StartChar: U0C9E
Encoding: 3230 3230 32
Width: 1000
GlyphClass: 2
Flags: W
AnchorPoint: "Anchor-0" 510 -82 basechar 0
LayerCount: 2
Fore
SplineSet
273 130 m 1,0,1
 273 114 273 114 303.5 102.5 c 128,-1,2
 334 91 334 91 377 91 c 256,3,4
 420 91 420 91 456.5 101 c 128,-1,5
 493 111 493 111 520 130 c 1,6,7
 476 156 476 156 439.5 169 c 128,-1,8
 403 182 403 182 377 182 c 0,9,10
 334 182 334 182 303.5 167 c 128,-1,11
 273 152 273 152 273 130 c 1,12,-1
 273 130 l 1,0,1
52 429 m 1,13,14
 52 499 52 499 105.5 548.5 c 128,-1,15
 159 598 159 598 234 598 c 0,16,17
 283 598 283 598 321.5 577 c 128,-1,18
 360 556 360 556 377 520 c 1,19,20
 394 556 394 556 431 577 c 128,-1,21
 468 598 468 598 514 598 c 0,22,23
 573 598 573 598 618.5 569 c 128,-1,24
 664 540 664 540 676 494 c 1,25,26
 688 540 688 540 731.5 569 c 128,-1,27
 775 598 775 598 832 598 c 0,28,29
 902 598 902 598 951.5 548.5 c 128,-1,30
 1001 499 1001 499 1001 429 c 0,31,32
 1001 393 1001 393 984 359 c 128,-1,33
 967 325 967 325 936 299 c 1,34,-1
 871 351 l 1,35,36
 889 364 889 364 899.5 384.5 c 128,-1,37
 910 405 910 405 910 429 c 0,38,39
 910 467 910 467 887 493.5 c 128,-1,40
 864 520 864 520 832 520 c 0,41,42
 784 520 784 520 749.5 474.5 c 128,-1,43
 715 429 715 429 715 364 c 0,44,45
 715 289 715 289 694.5 228 c 128,-1,46
 674 167 674 167 637 130 c 1,47,48
 668 104 668 104 685 53 c 128,-1,49
 702 2 702 2 702 -65 c 1,50,-1
 611 -65 l 1,51,52
 611 -18 611 -18 601 18.5 c 128,-1,53
 591 55 591 55 572 78 c 1,54,55
 535 41 535 41 484 20.5 c 128,-1,56
 433 0 433 0 377 0 c 0,57,58
 296 0 296 0 239 38 c 128,-1,59
 182 76 182 76 182 130 c 256,60,61
 182 184 182 184 239 222 c 128,-1,62
 296 260 296 260 377 260 c 0,63,64
 434 260 434 260 484 243 c 128,-1,65
 534 226 534 226 572 195 c 1,66,67
 598 239 598 239 611 282 c 128,-1,68
 624 325 624 325 624 364 c 0,69,70
 624 429 624 429 592 474.5 c 128,-1,71
 560 520 560 520 514 520 c 0,72,73
 473 520 473 520 444.5 485.5 c 128,-1,74
 416 451 416 451 416 403 c 2,75,-1
 416 351 l 1,76,-1
 338 351 l 1,77,-1
 338 403 l 2,78,79
 338 451 338 451 307.5 485.5 c 128,-1,80
 277 520 277 520 234 520 c 0,81,82
 196 520 196 520 169.5 493.5 c 128,-1,83
 143 467 143 467 143 429 c 0,84,85
 143 405 143 405 153.5 384.5 c 128,-1,86
 164 364 164 364 182 351 c 1,87,-1
 117 299 l 1,88,89
 86 330 86 330 69 364 c 128,-1,90
 52 398 52 398 52 429 c 1,91,-1
 52 429 l 1,13,14
EndSplineSet
EndChar

StartChar: U0C9F
Encoding: 3231 3231 33
Width: 811
GlyphClass: 2
Flags: W
AnchorPoint: "Anchor-0" 468 -21 basechar 0
LayerCount: 2
Fore
SplineSet
233 390 m 1,0,1
 233 368 233 368 246 353 c 128,-1,2
 259 338 259 338 278 338 c 0,3,4
 300 338 300 338 315 353 c 128,-1,5
 330 368 330 368 330 390 c 256,6,7
 330 412 330 412 315 427 c 128,-1,8
 300 442 300 442 278 442 c 0,9,10
 259 442 259 442 246 427 c 128,-1,11
 233 412 233 412 233 390 c 1,12,-1
 233 390 l 1,0,1
109 247 m 1,13,14
 109 338 109 338 137 405 c 128,-1,15
 165 472 165 472 213 494 c 1,16,17
 186 510 186 510 170.5 541 c 128,-1,18
 155 572 155 572 155 611 c 0,19,20
 155 641 155 641 168.5 673 c 128,-1,21
 182 705 182 705 207 735 c 1,22,-1
 278 689 l 1,23,24
 260 676 260 676 249.5 655.5 c 128,-1,25
 239 635 239 635 239 611 c 0,26,27
 239 580 239 580 253 555.5 c 128,-1,28
 267 531 267 531 291 520 c 1,29,30
 339 520 339 520 373.5 482 c 128,-1,31
 408 444 408 444 408 390 c 256,32,33
 408 336 408 336 370 298 c 128,-1,34
 332 260 332 260 278 260 c 0,35,36
 257 260 257 260 238.5 268.5 c 128,-1,37
 220 277 220 277 207 293 c 1,38,-1
 200 247 l 1,39,40
 200 182 200 182 230.5 136.5 c 128,-1,41
 261 91 261 91 304 91 c 0,42,43
 352 91 352 91 386.5 133 c 128,-1,44
 421 175 421 175 421 234 c 1,45,-1
 499 234 l 1,46,47
 499 175 499 175 537 133 c 128,-1,48
 575 91 575 91 629 91 c 0,49,50
 677 91 677 91 711.5 125.5 c 128,-1,51
 746 160 746 160 746 208 c 0,52,53
 746 262 746 262 714 300 c 128,-1,54
 682 338 682 338 636 338 c 2,55,-1
 590 338 l 1,56,-1
 590 416 l 1,57,-1
 642 416 l 2,58,59
 685 416 685 416 715.5 442.5 c 128,-1,60
 746 469 746 469 746 507 c 0,61,62
 746 532 746 532 724.5 554 c 128,-1,63
 703 576 703 576 668 585 c 1,64,-1
 694 663 l 1,65,66
 756 652 756 652 796.5 608 c 128,-1,67
 837 564 837 564 837 507 c 0,68,69
 837 459 837 459 815.5 421.5 c 128,-1,70
 794 384 794 384 759 371 c 1,71,72
 795 350 795 350 816 306.5 c 128,-1,73
 837 263 837 263 837 208 c 0,74,75
 837 122 837 122 776 61 c 128,-1,76
 715 0 715 0 629 0 c 0,77,78
 568 0 568 0 521 32.5 c 128,-1,79
 474 65 474 65 460 117 c 1,80,81
 446 65 446 65 402.5 32.5 c 128,-1,82
 359 0 359 0 304 0 c 0,83,84
 223 0 223 0 166 72.5 c 128,-1,85
 109 145 109 145 109 247 c 1,86,-1
 109 247 l 1,13,14
EndSplineSet
EndChar

StartChar: U0CA0
Encoding: 3232 3232 34
Width: 645
GlyphClass: 2
Flags: W
AnchorPoint: "Anchor-0" 388 -28 basechar 0
LayerCount: 2
Fore
SplineSet
190 299 m 1,0,1
 190 213 190 213 247 152 c 128,-1,2
 304 91 304 91 385 91 c 256,3,4
 466 91 466 91 523 152 c 128,-1,5
 580 213 580 213 580 299 c 256,6,7
 580 385 580 385 523 446 c 128,-1,8
 466 507 466 507 385 507 c 256,9,10
 304 507 304 507 247 446 c 128,-1,11
 190 385 190 385 190 299 c 1,12,-1
 190 299 l 1,0,1
196 507 m 1,13,-1
 99 507 l 1,14,-1
 99 585 l 1,15,-1
 567 585 l 2,16,17
 594 585 594 585 613 604 c 128,-1,18
 632 623 632 623 632 650 c 0,19,20
 632 675 632 675 620 699 c 128,-1,21
 608 723 608 723 586 741 c 1,22,-1
 632 793 l 1,23,24
 668 772 668 772 689 733.5 c 128,-1,25
 710 695 710 695 710 650 c 0,26,27
 710 591 710 591 670 549 c 128,-1,28
 630 507 630 507 573 507 c 1,29,30
 620 468 620 468 645.5 413.5 c 128,-1,31
 671 359 671 359 671 299 c 0,32,33
 671 175 671 175 587 87.5 c 128,-1,34
 503 0 503 0 385 0 c 256,35,36
 267 0 267 0 183 87.5 c 128,-1,37
 99 175 99 175 99 299 c 0,38,39
 99 359 99 359 124.5 413.5 c 128,-1,40
 150 468 150 468 196 507 c 1,41,-1
 196 507 l 1,13,-1
330 234 m 1,42,-1
 330 338 l 1,43,-1
 434 338 l 1,44,-1
 434 234 l 1,45,-1
 330 234 l 1,46,-1
 330 234 l 1,42,-1
EndSplineSet
EndChar

StartChar: U0CA1
Encoding: 3233 3233 35
Width: 741
GlyphClass: 2
Flags: W
AnchorPoint: "Anchor-0" 367 -28 basechar 0
LayerCount: 2
Fore
SplineSet
427 338 m 1,0,1
 427 322 427 322 442 310.5 c 128,-1,2
 457 299 457 299 479 299 c 0,3,4
 494 299 494 299 514 309 c 128,-1,5
 534 319 534 319 557 338 c 1,6,7
 534 357 534 357 514 367 c 128,-1,8
 494 377 494 377 479 377 c 0,9,10
 457 377 457 377 442 365.5 c 128,-1,11
 427 354 427 354 427 338 c 1,12,-1
 427 338 l 1,0,1
115 234 m 1,13,14
 115 175 115 175 143.5 133 c 128,-1,15
 172 91 172 91 213 91 c 0,16,17
 253 91 253 91 281.5 133 c 128,-1,18
 310 175 310 175 310 234 c 1,19,-1
 388 234 l 1,20,21
 388 175 388 175 422.5 133 c 128,-1,22
 457 91 457 91 505 91 c 0,23,24
 543 91 543 91 569.5 121.5 c 128,-1,25
 596 152 596 152 596 195 c 0,26,27
 596 223 596 223 592.5 244.5 c 128,-1,28
 589 266 589 266 583 280 c 1,29,30
 564 264 564 264 537 255.5 c 128,-1,31
 510 247 510 247 479 247 c 0,32,33
 436 247 436 247 405.5 273.5 c 128,-1,34
 375 300 375 300 375 338 c 256,35,36
 375 376 375 376 405.5 402.5 c 128,-1,37
 436 429 436 429 479 429 c 0,38,39
 507 429 507 429 533.5 419 c 128,-1,40
 560 409 560 409 583 390 c 1,41,42
 583 438 583 438 514.5 472.5 c 128,-1,43
 446 507 446 507 349 507 c 256,44,45
 252 507 252 507 183.5 427 c 128,-1,46
 115 347 115 347 115 234 c 1,47,-1
 115 234 l 1,13,14
583 507 m 1,48,49
 614 481 614 481 631 447 c 128,-1,50
 648 413 648 413 648 377 c 0,51,52
 648 366 648 366 644.5 356 c 128,-1,53
 641 346 641 346 635 338 c 1,54,55
 660 308 660 308 673.5 271 c 128,-1,56
 687 234 687 234 687 195 c 0,57,58
 687 114 687 114 633.5 57 c 128,-1,59
 580 0 580 0 505 0 c 0,60,61
 459 0 459 0 416.5 31.5 c 128,-1,62
 374 63 374 63 349 117 c 1,63,64
 324 63 324 63 287 31.5 c 128,-1,65
 250 0 250 0 213 0 c 0,66,67
 135 0 135 0 79.5 68.5 c 128,-1,68
 24 137 24 137 24 234 c 0,69,70
 24 315 24 315 62 387.5 c 128,-1,71
 100 460 100 460 167 507 c 1,72,-1
 24 507 l 1,73,-1
 24 585 l 1,74,-1
 596 585 l 2,75,76
 623 585 623 585 642 604 c 128,-1,77
 661 623 661 623 661 650 c 0,78,79
 661 673 661 673 647.5 696.5 c 128,-1,80
 634 720 634 720 609 741 c 1,81,-1
 661 793 l 1,82,83
 698 762 698 762 718.5 724.5 c 128,-1,84
 739 687 739 687 739 650 c 0,85,86
 739 591 739 591 693.5 549 c 128,-1,87
 648 507 648 507 583 507 c 1,88,-1
 583 507 l 1,48,49
EndSplineSet
EndChar

StartChar: U0CA2
Encoding: 3234 3234 36
Width: 741
GlyphClass: 2
Flags: W
AnchorPoint: "Anchor-0" 450 -192 basechar 0
LayerCount: 2
Fore
SplineSet
507 338 m 1,0,1
 507 322 507 322 522 310.5 c 128,-1,2
 537 299 537 299 559 299 c 0,3,4
 574 299 574 299 594 309 c 128,-1,5
 614 319 614 319 637 338 c 1,6,7
 614 357 614 357 594 367 c 128,-1,8
 574 377 574 377 559 377 c 0,9,10
 537 377 537 377 522 365.5 c 128,-1,11
 507 354 507 354 507 338 c 1,12,-1
 507 338 l 1,0,1
195 234 m 1,13,14
 195 175 195 175 223.5 133 c 128,-1,15
 252 91 252 91 293 91 c 0,16,17
 333 91 333 91 361.5 133 c 128,-1,18
 390 175 390 175 390 234 c 1,19,-1
 468 234 l 1,20,21
 468 175 468 175 502.5 133 c 128,-1,22
 537 91 537 91 585 91 c 0,23,24
 623 91 623 91 649.5 121.5 c 128,-1,25
 676 152 676 152 676 195 c 0,26,27
 676 223 676 223 672.5 244.5 c 128,-1,28
 669 266 669 266 663 280 c 1,29,30
 644 264 644 264 617 255.5 c 128,-1,31
 590 247 590 247 559 247 c 0,32,33
 516 247 516 247 485.5 273.5 c 128,-1,34
 455 300 455 300 455 338 c 256,35,36
 455 376 455 376 485.5 402.5 c 128,-1,37
 516 429 516 429 559 429 c 0,38,39
 587 429 587 429 613.5 419 c 128,-1,40
 640 409 640 409 663 390 c 1,41,42
 663 438 663 438 594.5 472.5 c 128,-1,43
 526 507 526 507 429 507 c 256,44,45
 332 507 332 507 263.5 427 c 128,-1,46
 195 347 195 347 195 234 c 1,47,-1
 195 234 l 1,13,14
663 507 m 1,48,49
 694 481 694 481 711 447 c 128,-1,50
 728 413 728 413 728 377 c 0,51,52
 728 366 728 366 724.5 356 c 128,-1,53
 721 346 721 346 715 338 c 1,54,55
 740 308 740 308 753.5 271 c 128,-1,56
 767 234 767 234 767 195 c 0,57,58
 767 114 767 114 713.5 57 c 128,-1,59
 660 0 660 0 585 0 c 0,60,61
 539 0 539 0 496.5 31.5 c 128,-1,62
 454 63 454 63 429 117 c 1,63,64
 404 63 404 63 367 31.5 c 128,-1,65
 330 0 330 0 293 0 c 0,66,67
 215 0 215 0 159.5 68.5 c 128,-1,68
 104 137 104 137 104 234 c 0,69,70
 104 315 104 315 142 387.5 c 128,-1,71
 180 460 180 460 247 507 c 1,72,-1
 104 507 l 1,73,-1
 104 585 l 1,74,-1
 676 585 l 2,75,76
 703 585 703 585 722 604 c 128,-1,77
 741 623 741 623 741 650 c 0,78,79
 741 673 741 673 727.5 696.5 c 128,-1,80
 714 720 714 720 689 741 c 1,81,-1
 741 793 l 1,82,83
 778 762 778 762 798.5 724.5 c 128,-1,84
 819 687 819 687 819 650 c 0,85,86
 819 591 819 591 773.5 549 c 128,-1,87
 728 507 728 507 663 507 c 1,88,-1
 663 507 l 1,48,49
378 -182 m 1,89,-1
 378 -143 l 1,90,-1
 404 26 l 1,91,-1
 456 26 l 1,92,-1
 482 -143 l 1,93,-1
 482 -182 l 1,94,-1
 378 -182 l 1,95,-1
 378 -182 l 1,89,-1
EndSplineSet
EndChar

StartChar: U0CA3
Encoding: 3235 3235 37
Width: 806
GlyphClass: 2
Flags: W
AnchorPoint: "Anchor-0" 474 -18 basechar 0
LayerCount: 2
Fore
SplineSet
618 598 m 1,0,1
 707 598 707 598 769.5 510.5 c 128,-1,2
 832 423 832 423 832 299 c 256,3,4
 832 175 832 175 775 87.5 c 128,-1,5
 718 0 718 0 637 0 c 0,6,7
 578 0 578 0 536 45.5 c 128,-1,8
 494 91 494 91 494 156 c 0,9,10
 494 215 494 215 536 257 c 128,-1,11
 578 299 578 299 637 299 c 0,12,13
 657 299 657 299 675.5 292.5 c 128,-1,14
 694 286 694 286 709 273 c 1,15,-1
 676 208 l 1,16,17
 667 214 667 214 659 217.5 c 128,-1,18
 651 221 651 221 644 221 c 0,19,20
 620 221 620 221 602.5 202 c 128,-1,21
 585 183 585 183 585 156 c 256,22,23
 585 129 585 129 600 110 c 128,-1,24
 615 91 615 91 637 91 c 0,25,26
 680 91 680 91 710.5 152 c 128,-1,27
 741 213 741 213 741 299 c 0,28,29
 741 391 741 391 705 455.5 c 128,-1,30
 669 520 669 520 618 520 c 256,31,32
 567 520 567 520 530.5 463 c 128,-1,33
 494 406 494 406 494 325 c 1,34,-1
 416 325 l 1,35,36
 416 406 416 406 381.5 463 c 128,-1,37
 347 520 347 520 299 520 c 0,38,39
 261 520 261 520 234.5 497 c 128,-1,40
 208 474 208 474 208 442 c 0,41,42
 208 399 208 399 238.5 368.5 c 128,-1,43
 269 338 269 338 312 338 c 1,44,-1
 312 260 l 1,45,46
 269 260 269 260 238.5 231.5 c 128,-1,47
 208 203 208 203 208 163 c 0,48,49
 208 133 208 133 234.5 112 c 128,-1,50
 261 91 261 91 299 91 c 0,51,52
 321 91 321 91 342 105 c 128,-1,53
 363 119 363 119 377 143 c 1,54,-1
 429 78 l 1,55,56
 408 42 408 42 373 21 c 128,-1,57
 338 0 338 0 299 0 c 0,58,59
 224 0 224 0 170.5 47.5 c 128,-1,60
 117 95 117 95 117 163 c 0,61,62
 117 210 117 210 140 249 c 128,-1,63
 163 288 163 288 202 306 c 1,64,65
 163 324 163 324 140 361 c 128,-1,66
 117 398 117 398 117 442 c 0,67,68
 117 507 117 507 168.5 552.5 c 128,-1,69
 220 598 220 598 293 598 c 0,70,71
 352 598 352 598 397.5 569 c 128,-1,72
 443 540 443 540 455 494 c 1,73,74
 467 540 467 540 512.5 569 c 128,-1,75
 558 598 558 598 618 598 c 1,76,-1
 618 598 l 1,0,1
EndSplineSet
EndChar

StartChar: U0CA4
Encoding: 3236 3236 38
Width: 567
GlyphClass: 2
Flags: W
AnchorPoint: "Anchor-0" 335 -24 basechar 0
LayerCount: 2
Fore
SplineSet
300 319 m 1,0,1
 300 303 300 303 317.5 291.5 c 128,-1,2
 335 280 335 280 359 280 c 0,3,4
 375 280 375 280 393.5 292 c 128,-1,5
 412 304 412 304 430 325 c 1,6,7
 414 341 414 341 395.5 349.5 c 128,-1,8
 377 358 377 358 359 358 c 0,9,10
 335 358 335 358 317.5 346.5 c 128,-1,11
 300 335 300 335 300 319 c 1,12,-1
 300 319 l 1,0,1
437 403 m 1,13,14
 437 434 437 434 419.5 462 c 128,-1,15
 402 490 402 490 372 507 c 1,16,-1
 73 507 l 1,17,-1
 73 585 l 1,18,-1
 450 585 l 2,19,20
 477 585 477 585 496 608 c 128,-1,21
 515 631 515 631 515 663 c 0,22,23
 515 679 515 679 501.5 699.5 c 128,-1,24
 488 720 488 720 463 741 c 1,25,-1
 515 793 l 1,26,27
 552 762 552 762 572.5 728 c 128,-1,28
 593 694 593 694 593 663 c 0,29,30
 593 598 593 598 555 552.5 c 128,-1,31
 517 507 517 507 463 507 c 1,32,33
 484 489 484 489 496 451.5 c 128,-1,34
 508 414 508 414 508 364 c 1,35,36
 548 330 548 330 570.5 289 c 128,-1,37
 593 248 593 248 593 208 c 0,38,39
 593 122 593 122 517 61 c 128,-1,40
 441 0 441 0 333 0 c 0,41,42
 220 0 220 0 140 61 c 128,-1,43
 60 122 60 122 60 208 c 0,44,45
 60 230 60 230 65 250 c 128,-1,46
 70 270 70 270 79 286 c 1,47,-1
 151 260 l 1,48,49
 145 249 145 249 141.5 235.5 c 128,-1,50
 138 222 138 222 138 208 c 0,51,52
 138 160 138 160 195 125.5 c 128,-1,53
 252 91 252 91 333 91 c 0,54,55
 403 91 403 91 452.5 125.5 c 128,-1,56
 502 160 502 160 502 208 c 0,57,58
 502 227 502 227 497 242 c 128,-1,59
 492 257 492 257 482 267 c 1,60,61
 465 237 465 237 432 219.5 c 128,-1,62
 399 202 399 202 359 202 c 0,63,64
 300 202 300 202 258 236.5 c 128,-1,65
 216 271 216 271 216 319 c 0,66,67
 216 365 216 365 256 397 c 128,-1,68
 296 429 296 429 352 429 c 0,69,70
 378 429 378 429 400 422.5 c 128,-1,71
 422 416 422 416 437 403 c 1,72,-1
 437 403 l 1,13,14
EndSplineSet
EndChar

StartChar: U0CA5
Encoding: 3237 3237 39
Width: 732
GlyphClass: 2
Flags: W
AnchorPoint: "Anchor-0" 427 -197 basechar 0
LayerCount: 2
Fore
SplineSet
199 234 m 1,0,1
 199 175 199 175 225.5 133 c 128,-1,2
 252 91 252 91 290 91 c 0,3,4
 333 91 333 91 363.5 133 c 128,-1,5
 394 175 394 175 394 234 c 1,6,-1
 472 234 l 1,7,8
 472 175 472 175 502.5 133 c 128,-1,9
 533 91 533 91 576 91 c 0,10,11
 614 91 614 91 640.5 136.5 c 128,-1,12
 667 182 667 182 667 247 c 0,13,14
 667 355 667 355 598.5 431 c 128,-1,15
 530 507 530 507 433 507 c 256,16,17
 336 507 336 507 267.5 427 c 128,-1,18
 199 347 199 347 199 234 c 1,19,-1
 199 234 l 1,0,1
225 507 m 1,20,-1
 108 507 l 1,21,-1
 108 585 l 1,22,-1
 641 585 l 2,23,24
 668 585 668 585 687 608 c 128,-1,25
 706 631 706 631 706 663 c 0,26,27
 706 679 706 679 692.5 699.5 c 128,-1,28
 679 720 679 720 654 741 c 1,29,-1
 693 793 l 1,30,31
 735 769 735 769 759.5 734 c 128,-1,32
 784 699 784 699 784 663 c 0,33,34
 784 598 784 598 742 552.5 c 128,-1,35
 700 507 700 507 641 507 c 1,36,37
 697 460 697 460 727.5 392 c 128,-1,38
 758 324 758 324 758 247 c 0,39,40
 758 145 758 145 704.5 72.5 c 128,-1,41
 651 0 651 0 576 0 c 0,42,43
 527 0 527 0 487 32.5 c 128,-1,44
 447 65 447 65 433 117 c 1,45,46
 419 65 419 65 379 32.5 c 128,-1,47
 339 0 339 0 290 0 c 0,48,49
 215 0 215 0 161.5 68.5 c 128,-1,50
 108 137 108 137 108 234 c 0,51,52
 108 317 108 317 138.5 388.5 c 128,-1,53
 169 460 169 460 225 507 c 1,54,-1
 225 507 l 1,20,-1
378 299 m 1,55,-1
 378 403 l 1,56,-1
 482 403 l 1,57,-1
 482 299 l 1,58,-1
 378 299 l 1,59,-1
 378 299 l 1,55,-1
378 -182 m 1,60,-1
 378 -143 l 1,61,-1
 404 26 l 1,62,-1
 456 26 l 1,63,-1
 482 -143 l 1,64,-1
 482 -182 l 1,65,-1
 378 -182 l 1,66,-1
 378 -182 l 1,60,-1
EndSplineSet
EndChar

StartChar: U0CA6
Encoding: 3238 3238 40
Width: 732
GlyphClass: 2
Flags: W
AnchorPoint: "Anchor-0" 349 -13 basechar 0
LayerCount: 2
Fore
SplineSet
116 234 m 1,0,1
 116 175 116 175 142.5 133 c 128,-1,2
 169 91 169 91 207 91 c 0,3,4
 250 91 250 91 280.5 133 c 128,-1,5
 311 175 311 175 311 234 c 1,6,-1
 389 234 l 1,7,8
 389 175 389 175 419.5 133 c 128,-1,9
 450 91 450 91 493 91 c 0,10,11
 531 91 531 91 557.5 136.5 c 128,-1,12
 584 182 584 182 584 247 c 0,13,14
 584 355 584 355 515.5 431 c 128,-1,15
 447 507 447 507 350 507 c 256,16,17
 253 507 253 507 184.5 427 c 128,-1,18
 116 347 116 347 116 234 c 1,19,-1
 116 234 l 1,0,1
142 507 m 1,20,-1
 25 507 l 1,21,-1
 25 585 l 1,22,-1
 558 585 l 2,23,24
 585 585 585 585 604 608 c 128,-1,25
 623 631 623 631 623 663 c 0,26,27
 623 679 623 679 609.5 699.5 c 128,-1,28
 596 720 596 720 571 741 c 1,29,-1
 610 793 l 1,30,31
 652 769 652 769 676.5 734 c 128,-1,32
 701 699 701 699 701 663 c 0,33,34
 701 598 701 598 659 552.5 c 128,-1,35
 617 507 617 507 558 507 c 1,36,37
 614 460 614 460 644.5 392 c 128,-1,38
 675 324 675 324 675 247 c 0,39,40
 675 145 675 145 621.5 72.5 c 128,-1,41
 568 0 568 0 493 0 c 0,42,43
 444 0 444 0 404 32.5 c 128,-1,44
 364 65 364 65 350 117 c 1,45,46
 336 65 336 65 296 32.5 c 128,-1,47
 256 0 256 0 207 0 c 0,48,49
 132 0 132 0 78.5 68.5 c 128,-1,50
 25 137 25 137 25 234 c 0,51,52
 25 317 25 317 55.5 388.5 c 128,-1,53
 86 460 86 460 142 507 c 1,54,-1
 142 507 l 1,20,-1
EndSplineSet
EndChar

StartChar: U0CA7
Encoding: 3239 3239 41
Width: 732
GlyphClass: 2
Flags: W
AnchorPoint: "Anchor-0" 437 -195 basechar 0
LayerCount: 2
Fore
SplineSet
199 234 m 1,0,1
 199 175 199 175 225.5 133 c 128,-1,2
 252 91 252 91 290 91 c 0,3,4
 333 91 333 91 363.5 133 c 128,-1,5
 394 175 394 175 394 234 c 1,6,-1
 472 234 l 1,7,8
 472 175 472 175 502.5 133 c 128,-1,9
 533 91 533 91 576 91 c 0,10,11
 614 91 614 91 640.5 136.5 c 128,-1,12
 667 182 667 182 667 247 c 0,13,14
 667 355 667 355 598.5 431 c 128,-1,15
 530 507 530 507 433 507 c 256,16,17
 336 507 336 507 267.5 427 c 128,-1,18
 199 347 199 347 199 234 c 1,19,-1
 199 234 l 1,0,1
225 507 m 1,20,-1
 108 507 l 1,21,-1
 108 585 l 1,22,-1
 641 585 l 2,23,24
 668 585 668 585 687 608 c 128,-1,25
 706 631 706 631 706 663 c 0,26,27
 706 679 706 679 692.5 699.5 c 128,-1,28
 679 720 679 720 654 741 c 1,29,-1
 693 793 l 1,30,31
 735 769 735 769 759.5 734 c 128,-1,32
 784 699 784 699 784 663 c 0,33,34
 784 598 784 598 742 552.5 c 128,-1,35
 700 507 700 507 641 507 c 1,36,37
 697 460 697 460 727.5 392 c 128,-1,38
 758 324 758 324 758 247 c 0,39,40
 758 145 758 145 704.5 72.5 c 128,-1,41
 651 0 651 0 576 0 c 0,42,43
 527 0 527 0 487 32.5 c 128,-1,44
 447 65 447 65 433 117 c 1,45,46
 419 65 419 65 379 32.5 c 128,-1,47
 339 0 339 0 290 0 c 0,48,49
 215 0 215 0 161.5 68.5 c 128,-1,50
 108 137 108 137 108 234 c 0,51,52
 108 317 108 317 138.5 388.5 c 128,-1,53
 169 460 169 460 225 507 c 1,54,-1
 225 507 l 1,20,-1
378 -182 m 1,55,-1
 378 -143 l 1,56,-1
 404 26 l 1,57,-1
 456 26 l 1,58,-1
 482 -143 l 1,59,-1
 482 -182 l 1,60,-1
 378 -182 l 1,61,-1
 378 -182 l 1,55,-1
EndSplineSet
EndChar

StartChar: U0CA8
Encoding: 3240 3240 42
Width: 702
GlyphClass: 2
Flags: W
AnchorPoint: "Anchor-0" 385 -77 basechar 0
LayerCount: 2
Fore
SplineSet
611 260 m 1,0,1
 611 362 611 362 538.5 434.5 c 128,-1,2
 466 507 466 507 364 507 c 2,3,-1
 98 507 l 1,4,-1
 98 585 l 1,5,-1
 540 585 l 2,6,7
 567 585 567 585 586 604 c 128,-1,8
 605 623 605 623 605 650 c 0,9,10
 605 673 605 673 591.5 696.5 c 128,-1,11
 578 720 578 720 553 741 c 1,12,-1
 605 793 l 1,13,14
 642 762 642 762 662.5 724.5 c 128,-1,15
 683 687 683 687 683 650 c 0,16,17
 683 591 683 591 648.5 549 c 128,-1,18
 614 507 614 507 566 507 c 1,19,20
 629 471 629 471 665.5 404.5 c 128,-1,21
 702 338 702 338 702 260 c 0,22,23
 702 142 702 142 650.5 71 c 128,-1,24
 599 0 599 0 514 0 c 0,25,26
 458 0 458 0 412 55 c 128,-1,27
 366 110 366 110 351 195 c 0,28,29
 341 251 341 251 313.5 288 c 128,-1,30
 286 325 286 325 254 325 c 0,31,32
 227 325 227 325 208 294.5 c 128,-1,33
 189 264 189 264 189 221 c 0,34,35
 189 145 189 145 216.5 83 c 128,-1,36
 244 21 244 21 293 -13 c 1,37,-1
 221 -65 l 1,38,39
 163 -16 163 -16 130.5 59 c 128,-1,40
 98 134 98 134 98 221 c 0,41,42
 98 302 98 302 143.5 359 c 128,-1,43
 189 416 189 416 254 416 c 256,44,45
 319 416 319 416 372 353.5 c 128,-1,46
 425 291 425 291 442 195 c 0,47,48
 450 150 450 150 470.5 120.5 c 128,-1,49
 491 91 491 91 514 91 c 0,50,51
 554 91 554 91 582.5 140.5 c 128,-1,52
 611 190 611 190 611 260 c 1,53,-1
 611 260 l 1,0,1
EndSplineSet
EndChar

StartChar: U0CAA
Encoding: 3242 3242 43
Width: 694
GlyphClass: 2
Flags: W
AnchorPoint: "Anchor-0" 346 -21 basechar 0
LayerCount: 2
Fore
SplineSet
289 325 m 1,0,-1
 289 429 l 1,1,-1
 393 429 l 1,2,-1
 393 325 l 1,3,-1
 289 325 l 1,4,-1
 289 325 l 1,0,-1
16 163 m 1,5,6
 16 225 16 225 54 268.5 c 128,-1,7
 92 312 92 312 146 312 c 0,8,9
 189 312 189 312 219.5 277.5 c 128,-1,10
 250 243 250 243 250 195 c 1,11,-1
 185 195 l 1,12,13
 185 211 185 211 173.5 222.5 c 128,-1,14
 162 234 162 234 146 234 c 256,15,16
 130 234 130 234 118.5 215 c 128,-1,17
 107 196 107 196 107 169 c 0,18,19
 107 137 107 137 130 114 c 128,-1,20
 153 91 153 91 185 91 c 0,21,22
 233 91 233 91 267.5 133 c 128,-1,23
 302 175 302 175 302 234 c 1,24,-1
 380 234 l 1,25,26
 380 175 380 175 414.5 133 c 128,-1,27
 449 91 449 91 497 91 c 0,28,29
 538 91 538 91 563 130 c 128,-1,30
 588 169 588 169 588 234 c 0,31,32
 588 278 588 278 564.5 325 c 128,-1,33
 541 372 541 372 497 416 c 1,34,-1
 569 462 l 1,35,36
 616 415 616 415 641 358 c 128,-1,37
 666 301 666 301 666 241 c 0,38,39
 666 132 666 132 620 66 c 128,-1,40
 574 0 574 0 497 0 c 0,41,42
 445 0 445 0 402 30.5 c 128,-1,43
 359 61 359 61 341 111 c 1,44,45
 323 61 323 61 280 30.5 c 128,-1,46
 237 0 237 0 185 0 c 0,47,48
 115 0 115 0 65.5 47.5 c 128,-1,49
 16 95 16 95 16 163 c 1,50,-1
 16 163 l 1,5,6
16 585 m 1,51,-1
 523 585 l 2,52,53
 550 585 550 585 569 604 c 128,-1,54
 588 623 588 623 588 650 c 0,55,56
 588 673 588 673 574.5 696.5 c 128,-1,57
 561 720 561 720 536 741 c 1,58,-1
 588 793 l 1,59,60
 625 762 625 762 645.5 724.5 c 128,-1,61
 666 687 666 687 666 650 c 0,62,63
 666 591 666 591 624 549 c 128,-1,64
 582 507 582 507 523 507 c 2,65,-1
 16 507 l 1,66,-1
 16 585 l 1,67,-1
 16 585 l 1,51,-1
EndSplineSet
EndChar

StartChar: U0CAB
Encoding: 3243 3243 44
Width: 694
GlyphClass: 2
Flags: W
AnchorPoint: "Anchor-0" 392 -195 basechar 0
LayerCount: 2
Fore
SplineSet
343 325 m 1,0,-1
 343 429 l 1,1,-1
 447 429 l 1,2,-1
 447 325 l 1,3,-1
 343 325 l 1,4,-1
 343 325 l 1,0,-1
70 163 m 1,5,6
 70 225 70 225 108 268.5 c 128,-1,7
 146 312 146 312 200 312 c 0,8,9
 243 312 243 312 273.5 277.5 c 128,-1,10
 304 243 304 243 304 195 c 1,11,-1
 239 195 l 1,12,13
 239 211 239 211 227.5 222.5 c 128,-1,14
 216 234 216 234 200 234 c 256,15,16
 184 234 184 234 172.5 215 c 128,-1,17
 161 196 161 196 161 169 c 0,18,19
 161 137 161 137 184 114 c 128,-1,20
 207 91 207 91 239 91 c 0,21,22
 287 91 287 91 321.5 133 c 128,-1,23
 356 175 356 175 356 234 c 1,24,-1
 434 234 l 1,25,26
 434 175 434 175 468.5 133 c 128,-1,27
 503 91 503 91 551 91 c 0,28,29
 592 91 592 91 617 130 c 128,-1,30
 642 169 642 169 642 234 c 0,31,32
 642 278 642 278 618.5 325 c 128,-1,33
 595 372 595 372 551 416 c 1,34,-1
 623 462 l 1,35,36
 670 415 670 415 695 358 c 128,-1,37
 720 301 720 301 720 241 c 0,38,39
 720 132 720 132 674 66 c 128,-1,40
 628 0 628 0 551 0 c 0,41,42
 499 0 499 0 456 30.5 c 128,-1,43
 413 61 413 61 395 111 c 1,44,45
 377 61 377 61 334 30.5 c 128,-1,46
 291 0 291 0 239 0 c 0,47,48
 169 0 169 0 119.5 47.5 c 128,-1,49
 70 95 70 95 70 163 c 1,50,-1
 70 163 l 1,5,6
70 585 m 1,51,-1
 577 585 l 2,52,53
 604 585 604 585 623 604 c 128,-1,54
 642 623 642 623 642 650 c 0,55,56
 642 673 642 673 628.5 696.5 c 128,-1,57
 615 720 615 720 590 741 c 1,58,-1
 642 793 l 1,59,60
 679 762 679 762 699.5 724.5 c 128,-1,61
 720 687 720 687 720 650 c 0,62,63
 720 591 720 591 678 549 c 128,-1,64
 636 507 636 507 577 507 c 2,65,-1
 70 507 l 1,66,-1
 70 585 l 1,67,-1
 70 585 l 1,51,-1
342 -182 m 1,68,-1
 342 -143 l 1,69,-1
 368 26 l 1,70,-1
 420 26 l 1,71,-1
 446 -143 l 1,72,-1
 446 -182 l 1,73,-1
 342 -182 l 1,74,-1
 342 -182 l 1,68,-1
EndSplineSet
EndChar

StartChar: U0CAC
Encoding: 3244 3244 45
Width: 781
GlyphClass: 2
Flags: W
AnchorPoint: "Anchor-0" 381 -18 basechar 0
LayerCount: 2
Fore
SplineSet
645 293 m 1,0,1
 645 359 645 359 611 423.5 c 128,-1,2
 577 488 577 488 515 540 c 1,3,-1
 580 598 l 1,4,5
 654 536 654 536 695 456 c 128,-1,6
 736 376 736 376 736 293 c 0,7,8
 736 160 736 160 679 80 c 128,-1,9
 622 0 622 0 528 0 c 0,10,11
 472 0 472 0 428.5 31 c 128,-1,12
 385 62 385 62 372 111 c 1,13,14
 359 62 359 62 315.5 31 c 128,-1,15
 272 0 272 0 216 0 c 0,16,17
 146 0 146 0 96.5 49.5 c 128,-1,18
 47 99 47 99 47 169 c 0,19,20
 47 215 47 215 67.5 258 c 128,-1,21
 88 301 88 301 125 332 c 256,22,23
 162 363 162 363 182.5 398.5 c 128,-1,24
 203 434 203 434 203 468 c 0,25,26
 203 490 203 490 188 505 c 128,-1,27
 173 520 173 520 151 520 c 256,28,29
 129 520 129 520 114 505 c 128,-1,30
 99 490 99 490 99 468 c 0,31,32
 99 454 99 454 102.5 440.5 c 128,-1,33
 106 427 106 427 112 416 c 1,34,-1
 34 390 l 1,35,36
 21 405 21 405 14.5 425 c 128,-1,37
 8 445 8 445 8 468 c 0,38,39
 8 525 8 525 50 565 c 128,-1,40
 92 605 92 605 151 605 c 256,41,42
 210 605 210 605 252 565 c 128,-1,43
 294 525 294 525 294 468 c 0,44,45
 294 431 294 431 270.5 387 c 128,-1,46
 247 343 247 343 203 299 c 0,47,48
 172 268 172 268 155 234 c 128,-1,49
 138 200 138 200 138 169 c 0,50,51
 138 137 138 137 161 114 c 128,-1,52
 184 91 184 91 216 91 c 0,53,54
 264 91 264 91 298.5 133 c 128,-1,55
 333 175 333 175 333 234 c 1,56,-1
 411 234 l 1,57,58
 411 175 411 175 445.5 133 c 128,-1,59
 480 91 480 91 528 91 c 0,60,61
 581 91 581 91 613 146 c 128,-1,62
 645 201 645 201 645 293 c 1,63,-1
 645 293 l 1,0,1
EndSplineSet
EndChar

StartChar: U0CAD
Encoding: 3245 3245 46
Width: 781
GlyphClass: 2
Flags: W
AnchorPoint: "Anchor-0" 440 -192 basechar 0
LayerCount: 2
Fore
SplineSet
716 293 m 1,0,1
 716 382 716 382 668.5 444.5 c 128,-1,2
 621 507 621 507 554 507 c 2,3,-1
 456 507 l 1,4,-1
 456 585 l 1,5,-1
 664 585 l 2,6,7
 691 585 691 585 710 604 c 128,-1,8
 729 623 729 623 729 650 c 0,9,10
 729 673 729 673 715.5 696.5 c 128,-1,11
 702 720 702 720 677 741 c 1,12,-1
 729 793 l 1,13,14
 766 762 766 762 786.5 724.5 c 128,-1,15
 807 687 807 687 807 650 c 0,16,17
 807 596 807 596 780.5 558 c 128,-1,18
 754 520 754 520 716 520 c 1,19,20
 759 490 759 490 783 430 c 128,-1,21
 807 370 807 370 807 293 c 0,22,23
 807 172 807 172 746 86 c 128,-1,24
 685 0 685 0 599 0 c 0,25,26
 543 0 543 0 499.5 31 c 128,-1,27
 456 62 456 62 443 111 c 1,28,29
 430 62 430 62 386.5 31 c 128,-1,30
 343 0 343 0 287 0 c 0,31,32
 217 0 217 0 167.5 49.5 c 128,-1,33
 118 99 118 99 118 169 c 0,34,35
 118 215 118 215 138.5 258 c 128,-1,36
 159 301 159 301 196 332 c 256,37,38
 233 363 233 363 253.5 398.5 c 128,-1,39
 274 434 274 434 274 468 c 0,40,41
 274 490 274 490 259 505 c 128,-1,42
 244 520 244 520 222 520 c 256,43,44
 200 520 200 520 185 505 c 128,-1,45
 170 490 170 490 170 468 c 0,46,47
 170 454 170 454 173.5 440.5 c 128,-1,48
 177 427 177 427 183 416 c 1,49,-1
 105 390 l 1,50,51
 92 405 92 405 85.5 425 c 128,-1,52
 79 445 79 445 79 468 c 0,53,54
 79 525 79 525 121 565 c 128,-1,55
 163 605 163 605 222 605 c 256,56,57
 281 605 281 605 323 565 c 128,-1,58
 365 525 365 525 365 468 c 0,59,60
 365 431 365 431 341.5 387 c 128,-1,61
 318 343 318 343 274 299 c 0,62,63
 243 268 243 268 226 234 c 128,-1,64
 209 200 209 200 209 169 c 0,65,66
 209 137 209 137 232 114 c 128,-1,67
 255 91 255 91 287 91 c 0,68,69
 335 91 335 91 369.5 133 c 128,-1,70
 404 175 404 175 404 234 c 1,71,-1
 482 234 l 1,72,73
 482 175 482 175 516.5 133 c 128,-1,74
 551 91 551 91 599 91 c 256,75,76
 647 91 647 91 681.5 150 c 128,-1,77
 716 209 716 209 716 293 c 1,78,-1
 716 293 l 1,0,1
387 -182 m 1,79,-1
 387 -143 l 1,80,-1
 413 26 l 1,81,-1
 465 26 l 1,82,-1
 491 -143 l 1,83,-1
 491 -182 l 1,84,-1
 387 -182 l 1,85,-1
 387 -182 l 1,79,-1
EndSplineSet
EndChar

StartChar: U0CAE
Encoding: 3246 3246 47
Width: 1154
GlyphClass: 2
Flags: W
AnchorPoint: "Anchor-0" 644 -38 basechar 0
LayerCount: 2
Fore
SplineSet
70 507 m 1,0,-1
 70 585 l 1,1,-1
 577 585 l 2,2,3
 604 585 604 585 623 604 c 128,-1,4
 642 623 642 623 642 650 c 0,5,6
 642 673 642 673 628.5 696.5 c 128,-1,7
 615 720 615 720 590 741 c 1,8,-1
 642 793 l 1,9,10
 679 762 679 762 699.5 724.5 c 128,-1,11
 720 687 720 687 720 650 c 0,12,13
 720 591 720 591 678 549 c 128,-1,14
 636 507 636 507 577 507 c 2,15,-1
 525 507 l 1,16,17
 613 475 613 475 666.5 402 c 128,-1,18
 720 329 720 329 720 241 c 1,19,20
 751 167 751 167 802 122.5 c 128,-1,21
 853 78 853 78 907 78 c 0,22,23
 982 78 982 78 1035.5 141 c 128,-1,24
 1089 204 1089 204 1089 293 c 256,25,26
 1089 382 1089 382 1035.5 444.5 c 128,-1,27
 982 507 982 507 907 507 c 1,28,-1
 914 585 l 1,29,30
 1024 585 1024 585 1102 499.5 c 128,-1,31
 1180 414 1180 414 1180 293 c 256,32,33
 1180 172 1180 172 1100 86 c 128,-1,34
 1020 0 1020 0 907 0 c 0,35,36
 840 0 840 0 784 33 c 128,-1,37
 728 66 728 66 699 122 c 1,38,39
 683 68 683 68 642 34 c 128,-1,40
 601 0 601 0 551 0 c 0,41,42
 499 0 499 0 456 30.5 c 128,-1,43
 413 61 413 61 395 111 c 1,44,45
 377 61 377 61 334 30.5 c 128,-1,46
 291 0 291 0 239 0 c 0,47,48
 169 0 169 0 119.5 47.5 c 128,-1,49
 70 95 70 95 70 163 c 0,50,51
 70 225 70 225 108 268.5 c 128,-1,52
 146 312 146 312 200 312 c 0,53,54
 243 312 243 312 273.5 277.5 c 128,-1,55
 304 243 304 243 304 195 c 1,56,-1
 239 195 l 1,57,58
 239 211 239 211 227.5 222.5 c 128,-1,59
 216 234 216 234 200 234 c 256,60,61
 184 234 184 234 172.5 215 c 128,-1,62
 161 196 161 196 161 169 c 0,63,64
 161 137 161 137 184 114 c 128,-1,65
 207 91 207 91 239 91 c 0,66,67
 287 91 287 91 321.5 133 c 128,-1,68
 356 175 356 175 356 234 c 1,69,-1
 434 234 l 1,70,71
 434 175 434 175 468.5 133 c 128,-1,72
 503 91 503 91 551 91 c 0,73,74
 592 91 592 91 617 130 c 128,-1,75
 642 169 642 169 642 234 c 0,76,77
 642 347 642 347 531.5 427 c 128,-1,78
 421 507 421 507 265 507 c 2,79,-1
 70 507 l 1,80,-1
 70 507 l 1,0,-1
EndSplineSet
EndChar

StartChar: U0CAF
Encoding: 3247 3247 48
Width: 1486
GlyphClass: 2
Flags: W
AnchorPoint: "Anchor-0" 820 -36 basechar 0
LayerCount: 2
Fore
SplineSet
194 299 m 1,0,1
 194 213 194 213 247.5 152 c 128,-1,2
 301 91 301 91 376 91 c 256,3,4
 451 91 451 91 504.5 152 c 128,-1,5
 558 213 558 213 558 299 c 256,6,7
 558 385 558 385 504.5 446 c 128,-1,8
 451 507 451 507 376 507 c 256,9,10
 301 507 301 507 247.5 446 c 128,-1,11
 194 385 194 385 194 299 c 1,12,-1
 194 299 l 1,0,1
961 299 m 1,13,14
 961 385 961 385 919 446 c 128,-1,15
 877 507 877 507 818 507 c 2,16,-1
 746 507 l 1,17,-1
 746 585 l 1,18,-1
 883 585 l 2,19,20
 910 585 910 585 929 604 c 128,-1,21
 948 623 948 623 948 650 c 0,22,23
 948 673 948 673 934.5 696.5 c 128,-1,24
 921 720 921 720 896 741 c 1,25,-1
 948 793 l 1,26,27
 985 762 985 762 1005.5 724.5 c 128,-1,28
 1026 687 1026 687 1026 650 c 0,29,30
 1026 602 1026 602 1004.5 565.5 c 128,-1,31
 983 529 983 529 948 520 c 1,32,33
 997 486 997 486 1024.5 427.5 c 128,-1,34
 1052 369 1052 369 1052 299 c 0,35,36
 1052 288 1052 288 1051 275 c 128,-1,37
 1050 262 1050 262 1048 248 c 1,38,39
 1079 171 1079 171 1131.5 124.5 c 128,-1,40
 1184 78 1184 78 1239 78 c 0,41,42
 1314 78 1314 78 1367.5 141 c 128,-1,43
 1421 204 1421 204 1421 293 c 256,44,45
 1421 382 1421 382 1367.5 444.5 c 128,-1,46
 1314 507 1314 507 1239 507 c 1,47,-1
 1245 585 l 1,48,49
 1356 585 1356 585 1434 499.5 c 128,-1,50
 1512 414 1512 414 1512 293 c 256,51,52
 1512 172 1512 172 1432 86 c 128,-1,53
 1352 0 1352 0 1239 0 c 0,54,55
 1171 0 1171 0 1112 40 c 128,-1,56
 1053 80 1053 80 1021 148 c 1,57,58
 989 80 989 80 934 40 c 128,-1,59
 879 0 879 0 818 0 c 0,60,61
 745 0 745 0 685 35.5 c 128,-1,62
 625 71 625 71 597 130 c 1,63,64
 562 70 562 70 503 35 c 128,-1,65
 444 0 444 0 376 0 c 0,66,67
 263 0 263 0 183 87.5 c 128,-1,68
 103 175 103 175 103 299 c 256,69,70
 103 423 103 423 183 510.5 c 128,-1,71
 263 598 263 598 376 598 c 256,72,73
 489 598 489 598 569 510.5 c 128,-1,74
 649 423 649 423 649 299 c 0,75,76
 649 294 649 294 646.5 273.5 c 128,-1,77
 644 253 644 253 642 234 c 1,78,79
 665 170 665 170 713.5 130.5 c 128,-1,80
 762 91 762 91 818 91 c 0,81,82
 877 91 877 91 919 152 c 128,-1,83
 961 213 961 213 961 299 c 1,84,-1
 961 299 l 1,13,14
EndSplineSet
EndChar

StartChar: U0CB0
Encoding: 3248 3248 49
Width: 645
GlyphClass: 2
Flags: W
AnchorPoint: "Anchor-0" 308 -38 basechar 0
LayerCount: 2
Fore
SplineSet
114 299 m 1,0,1
 114 213 114 213 171 152 c 128,-1,2
 228 91 228 91 309 91 c 256,3,4
 390 91 390 91 447 152 c 128,-1,5
 504 213 504 213 504 299 c 256,6,7
 504 385 504 385 447 446 c 128,-1,8
 390 507 390 507 309 507 c 256,9,10
 228 507 228 507 171 446 c 128,-1,11
 114 385 114 385 114 299 c 1,12,-1
 114 299 l 1,0,1
120 507 m 1,13,-1
 23 507 l 1,14,-1
 23 585 l 1,15,-1
 491 585 l 2,16,17
 518 585 518 585 537 604 c 128,-1,18
 556 623 556 623 556 650 c 0,19,20
 556 675 556 675 544 699 c 128,-1,21
 532 723 532 723 510 741 c 1,22,-1
 556 793 l 1,23,24
 592 772 592 772 613 733.5 c 128,-1,25
 634 695 634 695 634 650 c 0,26,27
 634 591 634 591 594 549 c 128,-1,28
 554 507 554 507 497 507 c 1,29,30
 544 468 544 468 569.5 413.5 c 128,-1,31
 595 359 595 359 595 299 c 0,32,33
 595 175 595 175 511 87.5 c 128,-1,34
 427 0 427 0 309 0 c 256,35,36
 191 0 191 0 107 87.5 c 128,-1,37
 23 175 23 175 23 299 c 0,38,39
 23 359 23 359 48.5 413.5 c 128,-1,40
 74 468 74 468 120 507 c 1,41,-1
 120 507 l 1,13,-1
EndSplineSet
EndChar

StartChar: U0CB1
Encoding: 3249 3249 50
Width: 745
GlyphClass: 2
Flags: W
AnchorPoint: "Anchor-0" 348 -15 basechar 0
LayerCount: 2
Fore
SplineSet
132 455 m 1,0,1
 132 433 132 433 143.5 418 c 128,-1,2
 155 403 155 403 171 403 c 256,3,4
 187 403 187 403 198.5 418 c 128,-1,5
 210 433 210 433 210 455 c 256,6,7
 210 477 210 477 198.5 492 c 128,-1,8
 187 507 187 507 171 507 c 256,9,10
 155 507 155 507 143.5 492 c 128,-1,11
 132 477 132 477 132 455 c 1,12,-1
 132 455 l 1,0,1
483 455 m 1,13,14
 483 433 483 433 494.5 418 c 128,-1,15
 506 403 506 403 522 403 c 256,16,17
 538 403 538 403 549.5 414.5 c 128,-1,18
 561 426 561 426 561 442 c 0,19,20
 561 469 561 469 549.5 488 c 128,-1,21
 538 507 538 507 522 507 c 256,22,23
 506 507 506 507 494.5 492 c 128,-1,24
 483 477 483 477 483 455 c 1,25,-1
 483 455 l 1,13,14
21 293 m 1,26,27
 21 431 21 431 63.5 514.5 c 128,-1,28
 106 598 106 598 177 598 c 0,29,30
 231 598 231 598 269 556 c 128,-1,31
 307 514 307 514 307 455 c 0,32,33
 307 430 307 430 299 406.5 c 128,-1,34
 291 383 291 383 276 364 c 1,35,-1
 422 364 l 1,36,37
 407 383 407 383 399.5 406.5 c 128,-1,38
 392 430 392 430 392 455 c 0,39,40
 392 514 392 514 430 556 c 128,-1,41
 468 598 468 598 522 598 c 0,42,43
 593 598 593 598 635.5 514.5 c 128,-1,44
 678 431 678 431 678 293 c 0,45,46
 678 172 678 172 621 86 c 128,-1,47
 564 0 564 0 483 0 c 0,48,49
 435 0 435 0 397.5 21.5 c 128,-1,50
 360 43 360 43 346 78 c 1,51,52
 332 43 332 43 298 21.5 c 128,-1,53
 264 0 264 0 223 0 c 0,54,55
 139 0 139 0 80 86 c 128,-1,56
 21 172 21 172 21 293 c 1,57,-1
 21 293 l 1,26,27
171 312 m 1,58,59
 163 312 163 312 150 315.5 c 128,-1,60
 137 319 137 319 119 325 c 1,61,-1
 116 293 l 2,62,63
 116 209 116 209 147.5 150 c 128,-1,64
 179 91 179 91 223 91 c 0,65,66
 261 91 261 91 287.5 125.5 c 128,-1,67
 314 160 314 160 314 208 c 1,68,-1
 392 208 l 1,69,70
 392 160 392 160 418.5 125.5 c 128,-1,71
 445 91 445 91 483 91 c 0,72,73
 527 91 527 91 558.5 151 c 128,-1,74
 590 211 590 211 590 295 c 2,75,-1
 587 325 l 1,76,77
 577 319 577 319 561 315.5 c 128,-1,78
 545 312 545 312 525 312 c 1,79,-1
 525 280 l 1,80,-1
 171 280 l 1,81,-1
 171 312 l 1,82,-1
 171 312 l 1,58,59
EndSplineSet
EndChar

StartChar: U0CB2
Encoding: 3250 3250 51
Width: 763
GlyphClass: 2
Flags: W
AnchorPoint: "Anchor-0" 444 -24 basechar 0
LayerCount: 2
Fore
SplineSet
282 468 m 1,0,1
 282 446 282 446 297 431 c 128,-1,2
 312 416 312 416 334 416 c 256,3,4
 356 416 356 416 371 431 c 128,-1,5
 386 446 386 446 386 468 c 256,6,7
 386 490 386 490 371 505 c 128,-1,8
 356 520 356 520 334 520 c 256,9,10
 312 520 312 520 297 505 c 128,-1,11
 282 490 282 490 282 468 c 1,12,-1
 282 468 l 1,0,1
445 91 m 1,13,14
 560 91 560 91 629 158.5 c 128,-1,15
 698 226 698 226 698 338 c 0,16,17
 698 394 698 394 662.5 443 c 128,-1,18
 627 492 627 492 568 520 c 1,19,-1
 620 598 l 1,20,21
 697 562 697 562 743 491.5 c 128,-1,22
 789 421 789 421 789 338 c 0,23,24
 789 185 789 185 695 92.5 c 128,-1,25
 601 0 601 0 445 0 c 0,26,27
 288 0 288 0 194 92.5 c 128,-1,28
 100 185 100 185 100 338 c 0,29,30
 100 446 100 446 168.5 522 c 128,-1,31
 237 598 237 598 334 598 c 0,32,33
 393 598 393 598 435 560 c 128,-1,34
 477 522 477 522 477 468 c 0,35,36
 477 412 477 412 435 372 c 128,-1,37
 393 332 393 332 334 332 c 0,38,39
 287 332 287 332 252 356 c 128,-1,40
 217 380 217 380 211 416 c 1,41,42
 201 404 201 404 196 384 c 128,-1,43
 191 364 191 364 191 338 c 0,44,45
 191 226 191 226 260.5 158.5 c 128,-1,46
 330 91 330 91 445 91 c 1,47,-1
 445 91 l 1,13,14
EndSplineSet
EndChar

StartChar: U0CB3
Encoding: 3251 3251 52
Width: 612
GlyphClass: 2
Flags: W
AnchorPoint: "Anchor-0" 388 -31 basechar 0
LayerCount: 2
Fore
SplineSet
209 468 m 1,0,1
 209 446 209 446 224 431 c 128,-1,2
 239 416 239 416 261 416 c 256,3,4
 283 416 283 416 298 431 c 128,-1,5
 313 446 313 446 313 468 c 256,6,7
 313 490 313 490 298 505 c 128,-1,8
 283 520 283 520 261 520 c 256,9,10
 239 520 239 520 224 505 c 128,-1,11
 209 490 209 490 209 468 c 1,12,-1
 209 468 l 1,0,1
339 130 m 1,13,14
 339 108 339 108 354 93 c 128,-1,15
 369 78 369 78 391 78 c 256,16,17
 413 78 413 78 428 93 c 128,-1,18
 443 108 443 108 443 130 c 256,19,20
 443 152 443 152 428 167 c 128,-1,21
 413 182 413 182 391 182 c 256,22,23
 369 182 369 182 354 167 c 128,-1,24
 339 152 339 152 339 130 c 1,25,-1
 339 130 l 1,13,14
391 260 m 1,26,27
 464 273 464 273 512 308 c 128,-1,28
 560 343 560 343 560 384 c 0,29,30
 560 435 560 435 529.5 471 c 128,-1,31
 499 507 499 507 456 507 c 1,32,-1
 456 585 l 1,33,-1
 573 585 l 2,34,35
 600 585 600 585 619 604 c 128,-1,36
 638 623 638 623 638 650 c 0,37,38
 638 673 638 673 624.5 696.5 c 128,-1,39
 611 720 611 720 586 741 c 1,40,-1
 638 793 l 1,41,42
 675 762 675 762 695.5 724.5 c 128,-1,43
 716 687 716 687 716 650 c 0,44,45
 716 594 716 594 680.5 553 c 128,-1,46
 645 512 645 512 593 507 c 1,47,48
 615 485 615 485 626.5 451.5 c 128,-1,49
 638 418 638 418 638 377 c 0,50,51
 638 330 638 330 595 285.5 c 128,-1,52
 552 241 552 241 482 215 c 1,53,54
 501 199 501 199 511 177 c 128,-1,55
 521 155 521 155 521 130 c 0,56,57
 521 76 521 76 483 38 c 128,-1,58
 445 0 445 0 391 0 c 256,59,60
 337 0 337 0 299 38 c 128,-1,61
 261 76 261 76 261 130 c 0,62,63
 261 142 261 142 264.5 156.5 c 128,-1,64
 268 171 268 171 274 189 c 1,65,66
 186 197 186 197 126 262 c 128,-1,67
 66 327 66 327 66 416 c 0,68,69
 66 491 66 491 123 544.5 c 128,-1,70
 180 598 180 598 261 598 c 0,71,72
 315 598 315 598 353 560 c 128,-1,73
 391 522 391 522 391 468 c 256,74,75
 391 414 391 414 353 376 c 128,-1,76
 315 338 315 338 261 338 c 0,77,78
 220 338 220 338 187 375 c 128,-1,79
 154 412 154 412 144 468 c 1,80,-1
 131 416 l 1,81,82
 131 337 131 337 210 289.5 c 128,-1,83
 289 242 289 242 391 260 c 1,84,-1
 391 260 l 1,26,27
EndSplineSet
EndChar

StartChar: U0CB5
Encoding: 3253 3253 53
Width: 722
GlyphClass: 2
Flags: W
AnchorPoint: "Anchor-0" 391 -24 basechar 0
LayerCount: 2
Fore
SplineSet
70 507 m 1,0,-1
 70 585 l 1,1,-1
 577 585 l 2,2,3
 604 585 604 585 623 604 c 128,-1,4
 642 623 642 623 642 650 c 0,5,6
 642 673 642 673 628.5 696.5 c 128,-1,7
 615 720 615 720 590 741 c 1,8,-1
 642 793 l 1,9,10
 679 762 679 762 699.5 724.5 c 128,-1,11
 720 687 720 687 720 650 c 0,12,13
 720 591 720 591 678 549 c 128,-1,14
 636 507 636 507 577 507 c 2,15,-1
 525 507 l 1,16,17
 613 475 613 475 666.5 402 c 128,-1,18
 720 329 720 329 720 241 c 0,19,20
 720 132 720 132 674 66 c 128,-1,21
 628 0 628 0 551 0 c 0,22,23
 499 0 499 0 456 30.5 c 128,-1,24
 413 61 413 61 395 111 c 1,25,26
 377 61 377 61 334 30.5 c 128,-1,27
 291 0 291 0 239 0 c 0,28,29
 169 0 169 0 119.5 47.5 c 128,-1,30
 70 95 70 95 70 163 c 0,31,32
 70 225 70 225 108 268.5 c 128,-1,33
 146 312 146 312 200 312 c 0,34,35
 243 312 243 312 273.5 277.5 c 128,-1,36
 304 243 304 243 304 195 c 1,37,-1
 239 195 l 1,38,39
 239 211 239 211 227.5 222.5 c 128,-1,40
 216 234 216 234 200 234 c 256,41,42
 184 234 184 234 172.5 215 c 128,-1,43
 161 196 161 196 161 169 c 0,44,45
 161 137 161 137 184 114 c 128,-1,46
 207 91 207 91 239 91 c 0,47,48
 287 91 287 91 321.5 133 c 128,-1,49
 356 175 356 175 356 234 c 1,50,-1
 434 234 l 1,51,52
 434 175 434 175 468.5 133 c 128,-1,53
 503 91 503 91 551 91 c 0,54,55
 592 91 592 91 617 130 c 128,-1,56
 642 169 642 169 642 234 c 0,57,58
 642 347 642 347 531.5 427 c 128,-1,59
 421 507 421 507 265 507 c 2,60,-1
 70 507 l 1,61,-1
 70 507 l 1,0,-1
EndSplineSet
EndChar

StartChar: U0CB6
Encoding: 3254 3254 54
Width: 623
GlyphClass: 2
Flags: W
AnchorPoint: "Anchor-0" 381 -17 basechar 0
LayerCount: 2
Fore
SplineSet
168 182 m 1,0,1
 168 144 168 144 217.5 117.5 c 128,-1,2
 267 91 267 91 337 91 c 0,3,4
 429 91 429 91 493.5 144.5 c 128,-1,5
 558 198 558 198 558 273 c 0,6,7
 558 288 558 288 554.5 304 c 128,-1,8
 551 320 551 320 545 338 c 1,9,10
 521 296 521 296 472 271.5 c 128,-1,11
 423 247 423 247 363 247 c 2,12,-1
 259 247 l 2,13,14
 221 247 221 247 194.5 228 c 128,-1,15
 168 209 168 209 168 182 c 1,16,-1
 168 182 l 1,0,1
207 507 m 1,17,-1
 77 507 l 1,18,-1
 77 585 l 1,19,-1
 519 585 l 2,20,21
 546 585 546 585 565 604 c 128,-1,22
 584 623 584 623 584 650 c 0,23,24
 584 673 584 673 570.5 696.5 c 128,-1,25
 557 720 557 720 532 741 c 1,26,-1
 584 793 l 1,27,28
 621 762 621 762 641.5 724.5 c 128,-1,29
 662 687 662 687 662 650 c 0,30,31
 662 591 662 591 620 549 c 128,-1,32
 578 507 578 507 519 507 c 1,33,34
 579 472 579 472 614 409.5 c 128,-1,35
 649 347 649 347 649 273 c 0,36,37
 649 160 649 160 557.5 80 c 128,-1,38
 466 0 466 0 337 0 c 0,39,40
 229 0 229 0 153 53.5 c 128,-1,41
 77 107 77 107 77 182 c 0,42,43
 77 241 77 241 130.5 283 c 128,-1,44
 184 325 184 325 259 325 c 2,45,-1
 363 325 l 2,46,47
 417 325 417 325 455 351.5 c 128,-1,48
 493 378 493 378 493 416 c 256,49,50
 493 454 493 454 455 480.5 c 128,-1,51
 417 507 417 507 363 507 c 0,52,53
 339 507 339 507 310.5 493.5 c 128,-1,54
 282 480 282 480 252 455 c 1,55,56
 263 455 263 455 270.5 440 c 128,-1,57
 278 425 278 425 278 403 c 0,58,59
 278 387 278 387 259 375.5 c 128,-1,60
 240 364 240 364 213 364 c 0,61,62
 191 364 191 364 176 381.5 c 128,-1,63
 161 399 161 399 161 423 c 0,64,65
 161 445 161 445 173 467 c 128,-1,66
 185 489 185 489 207 507 c 1,67,-1
 207 507 l 1,17,-1
EndSplineSet
EndChar

StartChar: U0CB7
Encoding: 3255 3255 55
Width: 764
GlyphClass: 2
Flags: W
AnchorPoint: "Anchor-0" 425 -67 basechar 0
LayerCount: 2
Fore
SplineSet
343 325 m 1,0,-1
 343 429 l 1,1,-1
 447 429 l 1,2,-1
 447 325 l 1,3,-1
 343 325 l 1,4,-1
 343 325 l 1,0,-1
70 163 m 1,5,6
 70 225 70 225 108 268.5 c 128,-1,7
 146 312 146 312 200 312 c 0,8,9
 243 312 243 312 273.5 277.5 c 128,-1,10
 304 243 304 243 304 195 c 1,11,-1
 239 195 l 1,12,13
 239 211 239 211 227.5 222.5 c 128,-1,14
 216 234 216 234 200 234 c 256,15,16
 184 234 184 234 172.5 215 c 128,-1,17
 161 196 161 196 161 169 c 0,18,19
 161 137 161 137 184 114 c 128,-1,20
 207 91 207 91 239 91 c 0,21,22
 287 91 287 91 321.5 133 c 128,-1,23
 356 175 356 175 356 234 c 1,24,-1
 434 234 l 1,25,26
 434 175 434 175 468.5 133 c 128,-1,27
 503 91 503 91 551 91 c 0,28,29
 559 91 559 91 566.5 93 c 128,-1,30
 574 95 574 95 582 99 c 1,31,-1
 491 195 l 1,32,-1
 491 260 l 1,33,-1
 556 260 l 1,34,-1
 636 173 l 1,35,36
 639 185 639 185 640.5 200.5 c 128,-1,37
 642 216 642 216 642 234 c 0,38,39
 642 278 642 278 618.5 325 c 128,-1,40
 595 372 595 372 551 416 c 1,41,-1
 623 462 l 1,42,43
 670 415 670 415 695 358 c 128,-1,44
 720 301 720 301 720 241 c 0,45,46
 720 202 720 202 714 167.5 c 128,-1,47
 708 133 708 133 696 105 c 1,48,-1
 790 0 l 1,49,-1
 790 -52 l 1,50,-1
 725 -52 l 1,51,-1
 644 35 l 1,52,53
 623 18 623 18 599 9 c 128,-1,54
 575 0 575 0 551 0 c 0,55,56
 499 0 499 0 456 30.5 c 128,-1,57
 413 61 413 61 395 111 c 1,58,59
 377 61 377 61 334 30.5 c 128,-1,60
 291 0 291 0 239 0 c 0,61,62
 169 0 169 0 119.5 47.5 c 128,-1,63
 70 95 70 95 70 163 c 1,64,-1
 70 163 l 1,5,6
70 585 m 1,65,-1
 577 585 l 2,66,67
 604 585 604 585 623 604 c 128,-1,68
 642 623 642 623 642 650 c 0,69,70
 642 673 642 673 628.5 696.5 c 128,-1,71
 615 720 615 720 590 741 c 1,72,-1
 642 793 l 1,73,74
 679 762 679 762 699.5 724.5 c 128,-1,75
 720 687 720 687 720 650 c 0,76,77
 720 591 720 591 678 549 c 128,-1,78
 636 507 636 507 577 507 c 2,79,-1
 70 507 l 1,80,-1
 70 585 l 1,81,-1
 70 585 l 1,65,-1
EndSplineSet
EndChar

StartChar: U0CB8
Encoding: 3256 3256 56
Width: 545
GlyphClass: 2
Flags: W
AnchorPoint: "Anchor-0" 300 -25 basechar 0
LayerCount: 2
Fore
SplineSet
194 325 m 1,0,-1
 194 429 l 1,1,-1
 298 429 l 1,2,-1
 298 325 l 1,3,-1
 194 325 l 1,4,-1
 194 325 l 1,0,-1
51 0 m 1,5,6
 51 97 51 97 102.5 165.5 c 128,-1,7
 154 234 154 234 226 234 c 0,8,9
 267 234 267 234 303.5 211.5 c 128,-1,10
 340 189 340 189 363 150 c 0,11,12
 379 123 379 123 398 107 c 128,-1,13
 417 91 417 91 434 91 c 0,14,15
 456 91 456 91 471 121.5 c 128,-1,16
 486 152 486 152 486 195 c 0,17,18
 486 234 486 234 473 277 c 128,-1,19
 460 320 460 320 434 364 c 1,20,-1
 499 410 l 1,21,22
 534 368 534 368 552.5 313 c 128,-1,23
 571 258 571 258 571 195 c 0,24,25
 571 111 571 111 531 52 c 128,-1,26
 491 -7 491 -7 434 -7 c 0,27,28
 398 -7 398 -7 363.5 17.5 c 128,-1,29
 329 42 329 42 304 85 c 0,30,31
 285 118 285 118 266 137 c 128,-1,32
 247 156 247 156 233 156 c 0,33,34
 195 156 195 156 168.5 110.5 c 128,-1,35
 142 65 142 65 142 0 c 1,36,-1
 51 0 l 1,37,-1
 51 0 l 1,5,6
51 585 m 1,38,-1
 428 585 l 2,39,40
 455 585 455 585 474 604 c 128,-1,41
 493 623 493 623 493 650 c 0,42,43
 493 673 493 673 479.5 696.5 c 128,-1,44
 466 720 466 720 441 741 c 1,45,-1
 486 793 l 1,46,47
 526 759 526 759 548.5 721.5 c 128,-1,48
 571 684 571 684 571 650 c 0,49,50
 571 591 571 591 529 549 c 128,-1,51
 487 507 487 507 428 507 c 2,52,-1
 51 507 l 1,53,-1
 51 585 l 1,54,-1
 51 585 l 1,38,-1
EndSplineSet
EndChar

StartChar: U0CB9
Encoding: 3257 3257 57
Width: 744
GlyphClass: 2
Flags: W
AnchorPoint: "Anchor-0" 440 -10 basechar 0
LayerCount: 2
Fore
SplineSet
172 195 m 1,0,1
 172 152 172 152 202.5 121.5 c 128,-1,2
 233 91 233 91 276 91 c 256,3,4
 319 91 319 91 349.5 121.5 c 128,-1,5
 380 152 380 152 380 195 c 256,6,7
 380 238 380 238 349.5 268.5 c 128,-1,8
 319 299 319 299 276 299 c 256,9,10
 233 299 233 299 202.5 268.5 c 128,-1,11
 172 238 172 238 172 195 c 1,12,-1
 172 195 l 1,0,1
471 195 m 1,13,14
 471 152 471 152 501.5 121.5 c 128,-1,15
 532 91 532 91 575 91 c 256,16,17
 618 91 618 91 648.5 121.5 c 128,-1,18
 679 152 679 152 679 195 c 256,19,20
 679 238 679 238 648.5 268.5 c 128,-1,21
 618 299 618 299 575 299 c 256,22,23
 532 299 532 299 501.5 268.5 c 128,-1,24
 471 238 471 238 471 195 c 1,25,-1
 471 195 l 1,13,14
289 507 m 1,26,-1
 81 507 l 1,27,-1
 81 585 l 1,28,-1
 627 585 l 2,29,30
 654 585 654 585 673 604 c 128,-1,31
 692 623 692 623 692 650 c 0,32,33
 692 678 692 678 682 701.5 c 128,-1,34
 672 725 672 725 653 741 c 1,35,-1
 692 793 l 1,36,37
 729 762 729 762 749.5 724.5 c 128,-1,38
 770 687 770 687 770 650 c 0,39,40
 770 591 770 591 728 549 c 128,-1,41
 686 507 686 507 627 507 c 2,42,-1
 393 507 l 1,43,44
 424 481 424 481 441 436.5 c 128,-1,45
 458 392 458 392 458 338 c 1,46,47
 488 363 488 363 518 376.5 c 128,-1,48
 548 390 548 390 575 390 c 0,49,50
 656 390 656 390 713 333 c 128,-1,51
 770 276 770 276 770 195 c 256,52,53
 770 114 770 114 713 57 c 128,-1,54
 656 0 656 0 575 0 c 0,55,56
 530 0 530 0 489.5 24.5 c 128,-1,57
 449 49 449 49 425 91 c 1,58,59
 401 49 401 49 361 24.5 c 128,-1,60
 321 0 321 0 276 0 c 0,61,62
 195 0 195 0 138 57 c 128,-1,63
 81 114 81 114 81 195 c 256,64,65
 81 276 81 276 138 333 c 128,-1,66
 195 390 195 390 276 390 c 0,67,68
 303 390 303 390 333 376.5 c 128,-1,69
 363 363 363 363 393 338 c 1,70,71
 393 397 393 397 364.5 443.5 c 128,-1,72
 336 490 336 490 289 507 c 1,73,-1
 289 507 l 1,26,-1
EndSplineSet
EndChar

StartChar: U0CBC
Encoding: 3260 3260 58
Width: 0
GlyphClass: 2
Flags: W
LayerCount: 2
Fore
SplineSet
-527 -169 m 1,0,1
 -527 -142 -527 -142 -508 -123 c 128,-1,2
 -489 -104 -489 -104 -462 -104 c 256,3,4
 -435 -104 -435 -104 -416 -123 c 128,-1,5
 -397 -142 -397 -142 -397 -169 c 256,6,7
 -397 -196 -397 -196 -416 -215 c 128,-1,8
 -435 -234 -435 -234 -462 -234 c 256,9,10
 -489 -234 -489 -234 -508 -215 c 128,-1,11
 -527 -196 -527 -196 -527 -169 c 1,12,-1
 -527 -169 l 1,0,1
-202 -169 m 1,13,14
 -202 -142 -202 -142 -183 -123 c 128,-1,15
 -164 -104 -164 -104 -137 -104 c 256,16,17
 -110 -104 -110 -104 -91 -123 c 128,-1,18
 -72 -142 -72 -142 -72 -169 c 256,19,20
 -72 -196 -72 -196 -91 -215 c 128,-1,21
 -110 -234 -110 -234 -137 -234 c 256,22,23
 -164 -234 -164 -234 -183 -215 c 128,-1,24
 -202 -196 -202 -196 -202 -169 c 1,25,-1
 -202 -169 l 1,13,14
EndSplineSet
EndChar

StartChar: U0CBD
Encoding: 3261 3261 59
Width: 637
GlyphClass: 2
Flags: W
LayerCount: 2
Fore
SplineSet
72 163 m 1,0,-1
 137 208 l 1,1,2
 180 147 180 147 235 112.5 c 128,-1,3
 290 78 290 78 345 78 c 0,4,5
 399 78 399 78 437 104.5 c 128,-1,6
 475 131 475 131 475 169 c 0,7,8
 475 203 475 203 439.5 229 c 128,-1,9
 404 255 404 255 351 260 c 0,10,11
 249 269 249 269 180 321.5 c 128,-1,12
 111 374 111 374 111 442 c 0,13,14
 111 501 111 501 164.5 543 c 128,-1,15
 218 585 218 585 293 585 c 2,16,-1
 527 585 l 1,17,-1
 527 507 l 1,18,-1
 293 507 l 2,19,20
 255 507 255 507 228.5 488 c 128,-1,21
 202 469 202 469 202 442 c 0,22,23
 202 404 202 404 248.5 374 c 128,-1,24
 295 344 295 344 364 338 c 0,25,26
 450 331 450 331 508 282 c 128,-1,27
 566 233 566 233 566 169 c 0,28,29
 566 99 566 99 501.5 49.5 c 128,-1,30
 437 0 437 0 345 0 c 0,31,32
 270 0 270 0 198 43 c 128,-1,33
 126 86 126 86 72 163 c 1,34,-1
 72 163 l 1,0,-1
EndSplineSet
EndChar

StartChar: U0CBE
Encoding: 3262 3262 60
Width: 523
GlyphClass: 2
Flags: W
LayerCount: 2
Fore
SplineSet
-4 585 m 1,0,-1
 314 585 l 2,1,2
 459 585 459 585 562 493.5 c 128,-1,3
 665 402 665 402 665 273 c 0,4,5
 665 160 665 160 594.5 80 c 128,-1,6
 524 0 524 0 425 0 c 0,7,8
 347 0 347 0 291.5 49.5 c 128,-1,9
 236 99 236 99 236 169 c 256,10,11
 236 239 236 239 285.5 288.5 c 128,-1,12
 335 338 335 338 405 338 c 0,13,14
 443 338 443 338 469.5 313.5 c 128,-1,15
 496 289 496 289 496 254 c 0,16,17
 496 224 496 224 477 203 c 128,-1,18
 458 182 458 182 431 182 c 256,19,20
 404 182 404 182 385 201 c 128,-1,21
 366 220 366 220 366 247 c 1,22,23
 339 237 339 237 324.5 215 c 128,-1,24
 310 193 310 193 314 169 c 1,25,26
 314 131 314 131 346.5 104.5 c 128,-1,27
 379 78 379 78 425 78 c 0,28,29
 487 78 487 78 530.5 135 c 128,-1,30
 574 192 574 192 574 273 c 0,31,32
 574 370 574 370 498 438.5 c 128,-1,33
 422 507 422 507 314 507 c 2,34,-1
 -4 507 l 1,35,-1
 -4 585 l 1,36,-1
 -4 585 l 1,0,-1
EndSplineSet
EndChar

StartChar: U0CBF
Encoding: 3263 3263 61
Width: 302
GlyphClass: 2
Flags: W
LayerCount: 2
Fore
SplineSet
9 683 m 1,0,1
 9 731 9 731 49 765.5 c 128,-1,2
 89 800 89 800 146 800 c 0,3,4
 211 800 211 800 256.5 748.5 c 128,-1,5
 302 697 302 697 302 624 c 0,6,7
 302 546 302 546 250.5 491 c 128,-1,8
 199 436 199 436 126 436 c 0,9,10
 85 436 85 436 53 448 c 128,-1,11
 21 460 21 460 3 481 c 1,12,-1
 29 540 l 1,13,14
 45 521 45 521 70 511 c 128,-1,15
 95 501 95 501 126 501 c 0,16,17
 170 501 170 501 199.5 540 c 128,-1,18
 229 579 229 579 224 631 c 1,19,20
 210 601 210 601 185.5 583.5 c 128,-1,21
 161 566 161 566 133 566 c 0,22,23
 82 566 82 566 45.5 600.5 c 128,-1,24
 9 635 9 635 9 683 c 1,25,-1
 9 683 l 1,0,1
81 683 m 1,26,27
 81 667 81 667 96 655.5 c 128,-1,28
 111 644 111 644 133 644 c 256,29,30
 155 644 155 644 170 657 c 128,-1,31
 185 670 185 670 185 689 c 256,32,33
 185 708 185 708 170 721.5 c 128,-1,34
 155 735 155 735 133 735 c 256,35,36
 111 735 111 735 96 720 c 128,-1,37
 81 705 81 705 81 683 c 1,38,-1
 81 683 l 1,26,27
EndSplineSet
EndChar

StartChar: U0CC0
Encoding: 3264 3264 62
Width: 919
GlyphClass: 2
Flags: W
LayerCount: 2
Fore
SplineSet
78 579 m 1,0,1
 78 627 78 627 118 661.5 c 128,-1,2
 158 696 158 696 215 696 c 0,3,4
 280 696 280 696 325.5 644.5 c 128,-1,5
 371 593 371 593 371 520 c 0,6,7
 371 442 371 442 319.5 387 c 128,-1,8
 268 332 268 332 195 332 c 0,9,10
 154 332 154 332 122 344 c 128,-1,11
 90 356 90 356 72 377 c 1,12,-1
 98 436 l 1,13,14
 114 417 114 417 139 407 c 128,-1,15
 164 397 164 397 195 397 c 0,16,17
 239 397 239 397 268.5 436 c 128,-1,18
 298 475 298 475 293 527 c 1,19,20
 279 497 279 497 254.5 479.5 c 128,-1,21
 230 462 230 462 202 462 c 0,22,23
 151 462 151 462 114.5 496.5 c 128,-1,24
 78 531 78 531 78 579 c 1,25,-1
 78 579 l 1,0,1
150 579 m 1,26,27
 150 557 150 557 165 542 c 128,-1,28
 180 527 180 527 202 527 c 256,29,30
 224 527 224 527 239 544 c 128,-1,31
 254 561 254 561 254 585 c 0,32,33
 254 604 254 604 239 617.5 c 128,-1,34
 224 631 224 631 202 631 c 256,35,36
 180 631 180 631 165 616 c 128,-1,37
 150 601 150 601 150 579 c 1,38,-1
 150 579 l 1,26,27
666 468 m 1,39,40
 666 446 666 446 681 431 c 128,-1,41
 696 416 696 416 718 416 c 256,42,43
 740 416 740 416 755 431 c 128,-1,44
 770 446 770 446 770 468 c 256,45,46
 770 490 770 490 755 505 c 128,-1,47
 740 520 740 520 718 520 c 256,48,49
 696 520 696 520 681 505 c 128,-1,50
 666 490 666 490 666 468 c 1,51,-1
 666 468 l 1,39,40
458 338 m 1,52,53
 458 446 458 446 530.5 522 c 128,-1,54
 603 598 603 598 705 598 c 0,55,56
 764 598 764 598 806 560 c 128,-1,57
 848 522 848 522 848 468 c 256,58,59
 848 414 848 414 810 376 c 128,-1,60
 772 338 772 338 718 338 c 256,61,62
 664 338 664 338 626 376 c 128,-1,63
 588 414 588 414 588 468 c 1,64,65
 569 445 569 445 559 411.5 c 128,-1,66
 549 378 549 378 549 338 c 0,67,68
 549 239 549 239 619.5 147 c 128,-1,69
 690 55 690 55 809 0 c 1,70,-1
 666 0 l 1,71,72
 569 56 569 56 513.5 146.5 c 128,-1,73
 458 237 458 237 458 338 c 1,74,-1
 458 338 l 1,52,53
EndSplineSet
EndChar

StartChar: U0CC1
Encoding: 3265 3265 63
Width: 448
GlyphClass: 4
Flags: W
LayerCount: 2
Fore
SplineSet
201 507 m 1,0,-1
 208 585 l 1,1,2
 318 585 318 585 396 499.5 c 128,-1,3
 474 414 474 414 474 293 c 256,4,5
 474 172 474 172 394 86 c 128,-1,6
 314 0 314 0 201 0 c 0,7,8
 122 0 122 0 61.5 51.5 c 128,-1,9
 1 103 1 103 -13 182 c 1,10,-1
 -13 325 l 1,11,12
 6 218 6 218 66.5 148 c 128,-1,13
 127 78 127 78 201 78 c 0,14,15
 276 78 276 78 329.5 141 c 128,-1,16
 383 204 383 204 383 293 c 256,17,18
 383 382 383 382 329.5 444.5 c 128,-1,19
 276 507 276 507 201 507 c 1,20,-1
 201 507 l 1,0,-1
EndSplineSet
EndChar

StartChar: U0CC2
Encoding: 3266 3266 64
Width: 825
GlyphClass: 4
Flags: W
LayerCount: 2
Fore
SplineSet
734 302 m 1,0,1
 734 399 734 399 682.5 463 c 128,-1,2
 631 527 631 527 552 527 c 0,3,4
 477 527 477 527 423.5 449 c 128,-1,5
 370 371 370 371 370 260 c 0,6,7
 370 152 370 152 307.5 76 c 128,-1,8
 245 0 245 0 156 0 c 0,9,10
 94 0 94 0 46 42.5 c 128,-1,11
 -2 85 -2 85 -13 150 c 1,12,-1
 -7 260 l 1,13,14
 6 187 6 187 52 139 c 128,-1,15
 98 91 98 91 156 91 c 0,16,17
 207 91 207 91 243 140.5 c 128,-1,18
 279 190 279 190 279 260 c 0,19,20
 279 400 279 400 359 499 c 128,-1,21
 439 598 439 598 552 598 c 0,22,23
 676 598 676 598 750.5 516.5 c 128,-1,24
 825 435 825 435 825 299 c 0,25,26
 825 169 825 169 766 84.5 c 128,-1,27
 707 0 707 0 617 0 c 0,28,29
 547 0 547 0 497.5 51.5 c 128,-1,30
 448 103 448 103 448 176 c 0,31,32
 448 238 448 238 486 281.5 c 128,-1,33
 524 325 524 325 578 325 c 0,34,35
 610 325 610 325 633 302 c 128,-1,36
 656 279 656 279 656 247 c 256,37,38
 656 215 656 215 637 192 c 128,-1,39
 618 169 618 169 591 169 c 0,40,41
 573 169 573 169 557.5 178 c 128,-1,42
 542 187 542 187 533 202 c 1,43,44
 530 196 530 196 528 190.5 c 128,-1,45
 526 185 526 185 526 182 c 0,46,47
 526 139 526 139 552.5 108.5 c 128,-1,48
 579 78 579 78 617 78 c 0,49,50
 670 78 670 78 702 139 c 128,-1,51
 734 200 734 200 734 302 c 1,52,-1
 734 302 l 1,0,1
EndSplineSet
EndChar

StartChar: U0CC3
Encoding: 3267 3267 65
Width: 126
GlyphClass: 4
Flags: W
LayerCount: 2
Fore
SplineSet
-112 -195 m 129,-1,1
 -112 -206 -112 -206 -104.5 -213.5 c 128,-1,2
 -97 -221 -97 -221 -86 -221 c 256,3,4
 -75 -221 -75 -221 -67.5 -213.5 c 128,-1,5
 -60 -206 -60 -206 -60 -195 c 256,6,7
 -60 -184 -60 -184 -67.5 -176.5 c 128,-1,8
 -75 -169 -75 -169 -86 -169 c 256,9,10
 -97 -169 -97 -169 -104.5 -176.5 c 128,-1,0
 -112 -184 -112 -184 -112 -195 c 129,-1,1
-229 -267 m 1,11,12
 -229 -199 -229 -199 -187 -151.5 c 128,-1,13
 -145 -104 -145 -104 -86 -104 c 0,14,15
 -48 -104 -48 -104 -21.5 -130.5 c 128,-1,16
 5 -157 5 -157 5 -195 c 256,17,18
 5 -233 5 -233 -21.5 -259.5 c 128,-1,19
 -48 -286 -48 -286 -86 -286 c 0,20,21
 -107 -286 -107 -286 -124.5 -271.5 c 128,-1,22
 -142 -257 -142 -257 -151 -234 c 1,23,24
 -155 -242 -155 -242 -157 -251 c 128,-1,25
 -159 -260 -159 -260 -159 -268 c 0,26,27
 -159 -313 -159 -313 -122.5 -345 c 128,-1,28
 -86 -377 -86 -377 -34 -377 c 0,29,30
 20 -377 20 -377 58 -331.5 c 128,-1,31
 96 -286 96 -286 96 -221 c 0,32,33
 96 -148 96 -148 76 -81.5 c 128,-1,34
 56 -15 56 -15 18 39 c 1,35,-1
 90 72 l 1,36,37
 131 1 131 1 152.5 -74 c 128,-1,38
 174 -149 174 -149 174 -221 c 0,39,40
 174 -315 174 -315 113 -382 c 128,-1,41
 52 -449 52 -449 -34 -449 c 0,42,43
 -115 -449 -115 -449 -172 -395.5 c 128,-1,44
 -229 -342 -229 -342 -229 -267 c 1,11,12
EndSplineSet
Substitution2: "Single Substitution lookup 19-1" glyph97
Substitution2: "Single Substitution lookup 18-1" glyph94
EndChar

StartChar: U0CC4
Encoding: 3268 3268 66
Width: 137
GlyphClass: 4
Flags: W
LayerCount: 2
Fore
SplineSet
-123 -202 m 129,-1,1
 -123 -213 -123 -213 -115.5 -220.5 c 128,-1,2
 -108 -228 -108 -228 -97 -228 c 256,3,4
 -86 -228 -86 -228 -78.5 -220.5 c 128,-1,5
 -71 -213 -71 -213 -71 -202 c 256,6,7
 -71 -191 -71 -191 -78.5 -183.5 c 128,-1,8
 -86 -176 -86 -176 -97 -176 c 256,9,10
 -108 -176 -108 -176 -115.5 -183.5 c 128,-1,0
 -123 -191 -123 -191 -123 -202 c 129,-1,1
-234 -247 m 1,11,12
 -234 -185 -234 -185 -194 -141.5 c 128,-1,13
 -154 -98 -154 -98 -97 -98 c 0,14,15
 -59 -98 -59 -98 -32.5 -128.5 c 128,-1,16
 -6 -159 -6 -159 -6 -202 c 0,17,18
 -6 -240 -6 -240 -32.5 -266.5 c 128,-1,19
 -59 -293 -59 -293 -97 -293 c 0,20,21
 -118 -293 -118 -293 -135.5 -278.5 c 128,-1,22
 -153 -264 -153 -264 -162 -241 c 1,23,24
 -162 -300 -162 -300 -127.5 -342 c 128,-1,25
 -93 -384 -93 -384 -45 -384 c 0,26,27
 9 -384 9 -384 47 -327 c 128,-1,28
 85 -270 85 -270 85 -189 c 0,29,30
 85 -124 85 -124 66.5 -69 c 128,-1,31
 48 -14 48 -14 13 25 c 1,32,-1
 251 25 l 2,33,34
 357 25 357 25 432 -42 c 128,-1,35
 507 -109 507 -109 507 -204 c 0,36,37
 507 -286 507 -286 451.5 -344.5 c 128,-1,38
 396 -403 396 -403 317 -403 c 0,39,40
 266 -403 266 -403 230.5 -367 c 128,-1,41
 195 -331 195 -331 195 -280 c 256,42,43
 195 -229 195 -229 225.5 -192.5 c 128,-1,44
 256 -156 256 -156 299 -156 c 0,45,46
 335 -156 335 -156 360 -174 c 128,-1,47
 385 -192 385 -192 385 -218 c 0,48,49
 385 -240 385 -240 371 -255 c 128,-1,50
 357 -270 357 -270 337 -270 c 0,51,52
 318 -270 318 -270 304 -256 c 128,-1,53
 290 -242 290 -242 290 -222 c 1,54,55
 272 -228 272 -228 261.5 -244 c 128,-1,56
 251 -260 251 -260 251 -280 c 0,57,58
 251 -307 251 -307 270.5 -326.5 c 128,-1,59
 290 -346 290 -346 317 -346 c 0,60,61
 368 -346 368 -346 404.5 -304.5 c 128,-1,62
 441 -263 441 -263 441 -204 c 0,63,64
 441 -134 441 -134 385.5 -84 c 128,-1,65
 330 -34 330 -34 251 -34 c 2,66,-1
 131 -34 l 1,67,68
 147 -71 147 -71 155 -110.5 c 128,-1,69
 163 -150 163 -150 163 -189 c 0,70,71
 163 -297 163 -297 102 -373 c 128,-1,72
 41 -449 41 -449 -45 -449 c 0,73,74
 -123 -449 -123 -449 -178.5 -390 c 128,-1,75
 -234 -331 -234 -331 -234 -247 c 1,11,12
EndSplineSet
Substitution2: "Single Substitution lookup 19-1" glyph98
Substitution2: "Single Substitution lookup 18-1" glyph95
EndChar

StartChar: U0CC6
Encoding: 3270 3270 67
Width: 619
GlyphClass: 4
Flags: W
LayerCount: 2
Fore
SplineSet
72 507 m 1,0,-1
 72 585 l 1,1,-1
 378 585 l 2,2,3
 416 585 416 585 442.5 608 c 128,-1,4
 469 631 469 631 469 663 c 0,5,6
 469 690 469 690 450 709 c 128,-1,7
 431 728 431 728 404 728 c 0,8,9
 392 728 392 728 383 724.5 c 128,-1,10
 374 721 374 721 372 715 c 1,11,12
 389 712 389 712 400 697.5 c 128,-1,13
 411 683 411 683 411 663 c 0,14,15
 411 641 411 641 393.5 626 c 128,-1,16
 376 611 376 611 352 611 c 0,17,18
 325 611 325 611 306 634 c 128,-1,19
 287 657 287 657 287 689 c 0,20,21
 287 737 287 737 321.5 771.5 c 128,-1,22
 356 806 356 806 404 806 c 0,23,24
 463 806 463 806 505 764 c 128,-1,25
 547 722 547 722 547 663 c 0,26,27
 547 598 547 598 497.5 552.5 c 128,-1,28
 448 507 448 507 378 507 c 2,29,-1
 72 507 l 1,30,-1
 72 507 l 1,0,-1
EndSplineSet
EndChar

StartChar: U0CC7
Encoding: 3271 3271 68
Width: 1009
GlyphClass: 4
Flags: W
LayerCount: 2
Fore
SplineSet
72 507 m 1,0,-1
 72 585 l 1,1,-1
 404 585 l 2,2,3
 442 585 442 585 468.5 608 c 128,-1,4
 495 631 495 631 495 663 c 0,5,6
 495 690 495 690 476 709 c 128,-1,7
 457 728 457 728 430 728 c 0,8,9
 418 728 418 728 409 724.5 c 128,-1,10
 400 721 400 721 398 715 c 1,11,12
 415 712 415 712 426 697.5 c 128,-1,13
 437 683 437 683 437 663 c 0,14,15
 437 641 437 641 419.5 626 c 128,-1,16
 402 611 402 611 378 611 c 0,17,18
 351 611 351 611 332 634 c 128,-1,19
 313 657 313 657 313 689 c 0,20,21
 313 737 313 737 347.5 771.5 c 128,-1,22
 382 806 382 806 430 806 c 0,23,24
 489 806 489 806 531 764 c 128,-1,25
 573 722 573 722 573 663 c 0,26,27
 573 598 573 598 523.5 552.5 c 128,-1,28
 474 507 474 507 404 507 c 2,29,-1
 72 507 l 1,30,-1
 72 507 l 1,0,-1
755 468 m 1,31,32
 755 446 755 446 770 431 c 128,-1,33
 785 416 785 416 807 416 c 256,34,35
 829 416 829 416 844 431 c 128,-1,36
 859 446 859 446 859 468 c 256,37,38
 859 490 859 490 844 505 c 128,-1,39
 829 520 829 520 807 520 c 256,40,41
 785 520 785 520 770 505 c 128,-1,42
 755 490 755 490 755 468 c 1,43,-1
 755 468 l 1,31,32
547 338 m 1,44,45
 547 446 547 446 619.5 522 c 128,-1,46
 692 598 692 598 794 598 c 0,47,48
 853 598 853 598 895 560 c 128,-1,49
 937 522 937 522 937 468 c 256,50,51
 937 414 937 414 899 376 c 128,-1,52
 861 338 861 338 807 338 c 256,53,54
 753 338 753 338 715 376 c 128,-1,55
 677 414 677 414 677 468 c 1,56,57
 658 445 658 445 648 411.5 c 128,-1,58
 638 378 638 378 638 338 c 0,59,60
 638 239 638 239 708.5 147 c 128,-1,61
 779 55 779 55 898 0 c 1,62,-1
 755 0 l 1,63,64
 658 56 658 56 602.5 146.5 c 128,-1,65
 547 237 547 237 547 338 c 1,66,-1
 547 338 l 1,44,45
EndSplineSet
EndChar

StartChar: U0CC8
Encoding: 3272 3272 69
Width: 645
GlyphClass: 4
Flags: W
LayerCount: 2
Fore
SplineSet
72 507 m 1,0,-1
 72 585 l 1,1,-1
 404 585 l 2,2,3
 442 585 442 585 468.5 608 c 128,-1,4
 495 631 495 631 495 663 c 0,5,6
 495 690 495 690 476 709 c 128,-1,7
 457 728 457 728 430 728 c 0,8,9
 418 728 418 728 409 724.5 c 128,-1,10
 400 721 400 721 398 715 c 1,11,12
 415 712 415 712 426 697.5 c 128,-1,13
 437 683 437 683 437 663 c 0,14,15
 437 641 437 641 419.5 626 c 128,-1,16
 402 611 402 611 378 611 c 0,17,18
 351 611 351 611 332 634 c 128,-1,19
 313 657 313 657 313 689 c 0,20,21
 313 737 313 737 347.5 771.5 c 128,-1,22
 382 806 382 806 430 806 c 0,23,24
 489 806 489 806 531 764 c 128,-1,25
 573 722 573 722 573 663 c 0,26,27
 573 598 573 598 523.5 552.5 c 128,-1,28
 474 507 474 507 404 507 c 2,29,-1
 72 507 l 1,30,-1
 72 507 l 1,0,-1
209 -202 m 1,31,32
 209 -213 209 -213 216.5 -220.5 c 128,-1,33
 224 -228 224 -228 235 -228 c 256,34,35
 246 -228 246 -228 253.5 -220.5 c 128,-1,36
 261 -213 261 -213 261 -202 c 256,37,38
 261 -191 261 -191 253.5 -183.5 c 128,-1,39
 246 -176 246 -176 235 -176 c 256,40,41
 224 -176 224 -176 216.5 -183.5 c 128,-1,42
 209 -191 209 -191 209 -202 c 1,43,-1
 209 -202 l 1,31,32
99 -247 m 1,44,45
 99 -191 99 -191 135 -151 c 128,-1,46
 171 -111 171 -111 222 -111 c 0,47,48
 265 -111 265 -111 295.5 -137.5 c 128,-1,49
 326 -164 326 -164 326 -202 c 256,50,51
 326 -240 326 -240 299.5 -266.5 c 128,-1,52
 273 -293 273 -293 235 -293 c 0,53,54
 214 -293 214 -293 196.5 -278.5 c 128,-1,55
 179 -264 179 -264 170 -241 c 1,56,57
 170 -300 170 -300 208 -342 c 128,-1,58
 246 -384 246 -384 300 -384 c 256,59,60
 354 -384 354 -384 392 -347.5 c 128,-1,61
 430 -311 430 -311 430 -260 c 0,62,63
 430 -216 430 -216 415 -177.5 c 128,-1,64
 400 -139 400 -139 372 -111 c 1,65,66
 403 -85 403 -85 420 -54 c 128,-1,67
 437 -23 437 -23 437 7 c 0,68,69
 437 38 437 38 427 65 c 128,-1,70
 417 92 417 92 398 111 c 1,71,-1
 463 143 l 1,72,73
 485 117 485 117 496.5 82 c 128,-1,74
 508 47 508 47 508 7 c 0,75,76
 508 -31 508 -31 496.5 -63 c 128,-1,77
 485 -95 485 -95 463 -117 c 1,78,79
 485 -143 485 -143 496.5 -181.5 c 128,-1,80
 508 -220 508 -220 508 -267 c 0,81,82
 508 -348 508 -348 447 -405 c 128,-1,83
 386 -462 386 -462 300 -462 c 0,84,85
 217 -462 217 -462 158 -399 c 128,-1,86
 99 -336 99 -336 99 -247 c 1,87,-1
 99 -247 l 1,44,45
EndSplineSet
EndChar

StartChar: U0CCA
Encoding: 3274 3274 70
Width: 1210
GlyphClass: 4
Flags: W
LayerCount: 2
Fore
SplineSet
72 507 m 1,0,-1
 72 585 l 1,1,-1
 391 585 l 2,2,3
 429 585 429 585 455.5 608 c 128,-1,4
 482 631 482 631 482 663 c 0,5,6
 482 690 482 690 463 709 c 128,-1,7
 444 728 444 728 417 728 c 0,8,9
 405 728 405 728 396 724.5 c 128,-1,10
 387 721 387 721 385 715 c 1,11,12
 402 712 402 712 413 697.5 c 128,-1,13
 424 683 424 683 424 663 c 0,14,15
 424 641 424 641 406.5 626 c 128,-1,16
 389 611 389 611 365 611 c 0,17,18
 338 611 338 611 319 634 c 128,-1,19
 300 657 300 657 300 689 c 0,20,21
 300 737 300 737 334.5 771.5 c 128,-1,22
 369 806 369 806 417 806 c 0,23,24
 476 806 476 806 518 764 c 128,-1,25
 560 722 560 722 560 663 c 0,26,27
 560 598 560 598 510.5 552.5 c 128,-1,28
 461 507 461 507 391 507 c 2,29,-1
 72 507 l 1,30,-1
 72 507 l 1,0,-1
1048 302 m 1,31,32
 1048 399 1048 399 996.5 463 c 128,-1,33
 945 527 945 527 866 527 c 0,34,35
 791 527 791 527 737.5 449 c 128,-1,36
 684 371 684 371 684 260 c 0,37,38
 684 152 684 152 621 76 c 128,-1,39
 558 0 558 0 469 0 c 0,40,41
 407 0 407 0 359 42.5 c 128,-1,42
 311 85 311 85 300 150 c 1,43,-1
 307 260 l 1,44,45
 320 187 320 187 366 139 c 128,-1,46
 412 91 412 91 469 91 c 0,47,48
 520 91 520 91 556.5 140.5 c 128,-1,49
 593 190 593 190 593 260 c 0,50,51
 593 400 593 400 673 499 c 128,-1,52
 753 598 753 598 866 598 c 0,53,54
 990 598 990 598 1064.5 516.5 c 128,-1,55
 1139 435 1139 435 1139 299 c 0,56,57
 1139 169 1139 169 1080 84.5 c 128,-1,58
 1021 0 1021 0 931 0 c 0,59,60
 861 0 861 0 811.5 51.5 c 128,-1,61
 762 103 762 103 762 176 c 0,62,63
 762 238 762 238 800 281.5 c 128,-1,64
 838 325 838 325 892 325 c 0,65,66
 924 325 924 325 947 302 c 128,-1,67
 970 279 970 279 970 247 c 256,68,69
 970 215 970 215 951 192 c 128,-1,70
 932 169 932 169 905 169 c 0,71,72
 886 169 886 169 870.5 178 c 128,-1,73
 855 187 855 187 846 202 c 1,74,75
 843 196 843 196 841.5 191 c 128,-1,76
 840 186 840 186 840 182 c 0,77,78
 840 139 840 139 866.5 108.5 c 128,-1,79
 893 78 893 78 931 78 c 0,80,81
 984 78 984 78 1016 139 c 128,-1,82
 1048 200 1048 200 1048 302 c 1,83,-1
 1048 302 l 1,31,32
EndSplineSet
EndChar

StartChar: U0CCB
Encoding: 3275 3275 71
Width: 1726
GlyphClass: 4
Flags: W
LayerCount: 2
Fore
SplineSet
72 507 m 1,0,-1
 72 585 l 1,1,-1
 443 585 l 2,2,3
 481 585 481 585 507.5 608 c 128,-1,4
 534 631 534 631 534 663 c 0,5,6
 534 690 534 690 515 709 c 128,-1,7
 496 728 496 728 469 728 c 0,8,9
 457 728 457 728 448 724.5 c 128,-1,10
 439 721 439 721 437 715 c 1,11,12
 454 712 454 712 465 697.5 c 128,-1,13
 476 683 476 683 476 663 c 0,14,15
 476 641 476 641 458.5 626 c 128,-1,16
 441 611 441 611 417 611 c 0,17,18
 390 611 390 611 371 634 c 128,-1,19
 352 657 352 657 352 689 c 0,20,21
 352 737 352 737 386.5 771.5 c 128,-1,22
 421 806 421 806 469 806 c 0,23,24
 528 806 528 806 570 764 c 128,-1,25
 612 722 612 722 612 663 c 0,26,27
 612 598 612 598 562.5 552.5 c 128,-1,28
 513 507 513 507 443 507 c 2,29,-1
 72 507 l 1,30,-1
 72 507 l 1,0,-1
1100 302 m 1,31,32
 1100 399 1100 399 1048.5 463 c 128,-1,33
 997 527 997 527 918 527 c 0,34,35
 843 527 843 527 789.5 449 c 128,-1,36
 736 371 736 371 736 260 c 0,37,38
 736 152 736 152 673 76 c 128,-1,39
 610 0 610 0 521 0 c 0,40,41
 459 0 459 0 411 42.5 c 128,-1,42
 363 85 363 85 352 150 c 1,43,-1
 359 260 l 1,44,45
 372 187 372 187 418 139 c 128,-1,46
 464 91 464 91 521 91 c 0,47,48
 572 91 572 91 608.5 140.5 c 128,-1,49
 645 190 645 190 645 260 c 0,50,51
 645 400 645 400 725 499 c 128,-1,52
 805 598 805 598 918 598 c 0,53,54
 1042 598 1042 598 1116.5 516.5 c 128,-1,55
 1191 435 1191 435 1191 299 c 0,56,57
 1191 169 1191 169 1132 84.5 c 128,-1,58
 1073 0 1073 0 983 0 c 0,59,60
 913 0 913 0 863.5 51.5 c 128,-1,61
 814 103 814 103 814 176 c 0,62,63
 814 238 814 238 852 281.5 c 128,-1,64
 890 325 890 325 944 325 c 0,65,66
 976 325 976 325 999 302 c 128,-1,67
 1022 279 1022 279 1022 247 c 256,68,69
 1022 215 1022 215 1003 192 c 128,-1,70
 984 169 984 169 957 169 c 0,71,72
 938 169 938 169 922.5 178 c 128,-1,73
 907 187 907 187 898 202 c 1,74,75
 895 196 895 196 893.5 191 c 128,-1,76
 892 186 892 186 892 182 c 0,77,78
 892 139 892 139 918.5 108.5 c 128,-1,79
 945 78 945 78 983 78 c 0,80,81
 1036 78 1036 78 1068 139 c 128,-1,82
 1100 200 1100 200 1100 302 c 1,83,-1
 1100 302 l 1,31,32
1473 468 m 1,84,85
 1473 446 1473 446 1488 431 c 128,-1,86
 1503 416 1503 416 1525 416 c 256,87,88
 1547 416 1547 416 1562 431 c 128,-1,89
 1577 446 1577 446 1577 468 c 256,90,91
 1577 490 1577 490 1562 505 c 128,-1,92
 1547 520 1547 520 1525 520 c 256,93,94
 1503 520 1503 520 1488 505 c 128,-1,95
 1473 490 1473 490 1473 468 c 1,96,-1
 1473 468 l 1,84,85
1265 338 m 1,97,98
 1265 446 1265 446 1337.5 522 c 128,-1,99
 1410 598 1410 598 1512 598 c 0,100,101
 1571 598 1571 598 1613 560 c 128,-1,102
 1655 522 1655 522 1655 468 c 256,103,104
 1655 414 1655 414 1617 376 c 128,-1,105
 1579 338 1579 338 1525 338 c 256,106,107
 1471 338 1471 338 1433 376 c 128,-1,108
 1395 414 1395 414 1395 468 c 1,109,110
 1376 445 1376 445 1366 411.5 c 128,-1,111
 1356 378 1356 378 1356 338 c 0,112,113
 1356 239 1356 239 1426.5 147 c 128,-1,114
 1497 55 1497 55 1616 0 c 1,115,-1
 1473 0 l 1,116,117
 1376 56 1376 56 1320.5 146.5 c 128,-1,118
 1265 237 1265 237 1265 338 c 1,119,-1
 1265 338 l 1,97,98
EndSplineSet
EndChar

StartChar: U0CCC
Encoding: 3276 3276 72
Width: 529
GlyphClass: 4
Flags: W
LayerCount: 2
Fore
SplineSet
111 585 m 1,0,-1
 293 585 l 2,1,2
 315 585 315 585 330 600 c 128,-1,3
 345 615 345 615 345 637 c 256,4,5
 345 659 345 659 331 680 c 128,-1,6
 317 701 317 701 293 715 c 1,7,-1
 111 715 l 1,8,-1
 111 793 l 1,9,-1
 462 793 l 2,10,11
 597 793 597 793 692 686.5 c 128,-1,12
 787 580 787 580 787 429 c 0,13,14
 787 327 787 327 722.5 254.5 c 128,-1,15
 658 182 658 182 566 182 c 0,16,17
 485 182 485 182 428 235.5 c 128,-1,18
 371 289 371 289 371 364 c 0,19,20
 371 423 371 423 409 465 c 128,-1,21
 447 507 447 507 501 507 c 0,22,23
 539 507 539 507 565.5 484 c 128,-1,24
 592 461 592 461 592 429 c 256,25,26
 592 397 592 397 573 374 c 128,-1,27
 554 351 554 351 527 351 c 0,28,29
 508 351 508 351 490.5 365 c 128,-1,30
 473 379 473 379 462 403 c 1,31,32
 456 394 456 394 452.5 384 c 128,-1,33
 449 374 449 374 449 364 c 0,34,35
 449 321 449 321 483.5 290.5 c 128,-1,36
 518 260 518 260 566 260 c 0,37,38
 625 260 625 260 667 309.5 c 128,-1,39
 709 359 709 359 709 429 c 0,40,41
 709 547 709 547 636.5 631 c 128,-1,42
 564 715 564 715 462 715 c 2,43,-1
 390 715 l 1,44,45
 406 696 406 696 414.5 676 c 128,-1,46
 423 656 423 656 423 637 c 0,47,48
 423 583 423 583 385 545 c 128,-1,49
 347 507 347 507 293 507 c 2,50,-1
 111 507 l 1,51,-1
 111 585 l 1,52,-1
 111 585 l 1,0,-1
EndSplineSet
EndChar

StartChar: U0CCD
Encoding: 3277 3277 73
Width: 354
GlyphClass: 4
Flags: W
LayerCount: 2
Fore
SplineSet
307 475 m 1,0,1
 307 445 307 445 322 424 c 128,-1,2
 337 403 337 403 359 403 c 256,3,4
 381 403 381 403 396 422 c 128,-1,5
 411 441 411 441 411 468 c 0,6,7
 411 484 411 484 396 495.5 c 128,-1,8
 381 507 381 507 359 507 c 2,9,-1
 307 507 l 1,10,-1
 307 475 l 1,11,-1
 307 475 l 1,0,1
21 585 m 1,12,-1
 242 585 l 1,13,14
 248 657 248 657 293 705.5 c 128,-1,15
 338 754 338 754 398 754 c 0,16,17
 438 754 438 754 472 729 c 128,-1,18
 506 704 506 704 521 663 c 1,19,-1
 456 624 l 1,20,21
 442 648 442 648 426.5 662 c 128,-1,22
 411 676 411 676 398 676 c 0,23,24
 366 676 366 676 343 649.5 c 128,-1,25
 320 623 320 623 320 585 c 1,26,-1
 359 585 l 2,27,28
 413 585 413 585 451 547 c 128,-1,29
 489 509 489 509 489 455 c 256,30,31
 489 401 489 401 451 363 c 128,-1,32
 413 325 413 325 359 325 c 256,33,34
 305 325 305 325 267 369 c 128,-1,35
 229 413 229 413 229 475 c 2,36,-1
 229 507 l 1,37,-1
 21 507 l 1,38,-1
 21 585 l 1,39,-1
 21 585 l 1,12,-1
EndSplineSet
EndChar

StartChar: U0CD5
Encoding: 3285 3285 74
Width: 463
GlyphClass: 2
Flags: W
LayerCount: 2
Fore
SplineSet
307 468 m 1,0,1
 307 446 307 446 322 431 c 128,-1,2
 337 416 337 416 359 416 c 256,3,4
 381 416 381 416 396 431 c 128,-1,5
 411 446 411 446 411 468 c 256,6,7
 411 490 411 490 396 505 c 128,-1,8
 381 520 381 520 359 520 c 256,9,10
 337 520 337 520 322 505 c 128,-1,11
 307 490 307 490 307 468 c 1,12,-1
 307 468 l 1,0,1
99 338 m 1,13,14
 99 446 99 446 171.5 522 c 128,-1,15
 244 598 244 598 346 598 c 0,16,17
 405 598 405 598 447 560 c 128,-1,18
 489 522 489 522 489 468 c 256,19,20
 489 414 489 414 451 376 c 128,-1,21
 413 338 413 338 359 338 c 256,22,23
 305 338 305 338 267 376 c 128,-1,24
 229 414 229 414 229 468 c 1,25,26
 210 445 210 445 200 411.5 c 128,-1,27
 190 378 190 378 190 338 c 0,28,29
 190 239 190 239 260.5 147 c 128,-1,30
 331 55 331 55 450 0 c 1,31,-1
 307 0 l 1,32,33
 210 56 210 56 154.5 146.5 c 128,-1,34
 99 237 99 237 99 338 c 1,35,-1
 99 338 l 1,13,14
EndSplineSet
EndChar

StartChar: U0CD6
Encoding: 3286 3286 75
Width: 176
GlyphClass: 2
Flags: W
LayerCount: 2
Fore
SplineSet
-123 -202 m 1,12,-1
 -123 -213 -123 -213 -115.5 -220.5 c 128,-1,2
 -108 -228 -108 -228 -97 -228 c 256,3,4
 -86 -228 -86 -228 -78.5 -220.5 c 128,-1,5
 -71 -213 -71 -213 -71 -202 c 256,6,7
 -71 -191 -71 -191 -78.5 -183.5 c 128,-1,8
 -86 -176 -86 -176 -97 -176 c 256,9,10
 -108 -176 -108 -176 -115.5 -183.5 c 128,-1,11
 -123 -191 -123 -191 -123 -202 c 1,12,-1
-234 -247 m 1,56,-1
 -234 -191 -234 -191 -197.5 -151 c 128,-1,15
 -161 -111 -161 -111 -110 -111 c 0,16,17
 -67 -111 -67 -111 -36.5 -137.5 c 128,-1,18
 -6 -164 -6 -164 -6 -202 c 256,19,20
 -6 -240 -6 -240 -32.5 -266.5 c 128,-1,21
 -59 -293 -59 -293 -97 -293 c 0,22,23
 -118 -293 -118 -293 -135.5 -278.5 c 128,-1,24
 -153 -264 -153 -264 -162 -241 c 1,25,26
 -162 -300 -162 -300 -124 -342 c 128,-1,27
 -86 -384 -86 -384 -32 -384 c 256,28,29
 22 -384 22 -384 60 -347.5 c 128,-1,30
 98 -311 98 -311 98 -260 c 0,31,32
 98 -217 98 -217 82.5 -178 c 128,-1,33
 67 -139 67 -139 39 -111 c 1,34,35
 70 -85 70 -85 87 -54 c 128,-1,36
 104 -23 104 -23 104 7 c 0,37,38
 104 38 104 38 94 65 c 128,-1,39
 84 92 84 92 65 111 c 1,40,-1
 130 143 l 1,41,42
 152 116 152 116 164 81 c 128,-1,43
 176 46 176 46 176 7 c 0,44,45
 176 -30 176 -30 164 -62.5 c 128,-1,46
 152 -95 152 -95 130 -117 c 1,47,48
 152 -144 152 -144 164 -182.5 c 128,-1,49
 176 -221 176 -221 176 -267 c 0,50,51
 176 -348 176 -348 115 -405 c 128,-1,52
 54 -462 54 -462 -32 -462 c 0,53,54
 -116 -462 -116 -462 -175 -399 c 128,-1,55
 -234 -336 -234 -336 -234 -247 c 1,56,-1
EndSplineSet
Substitution2: "Single Substitution lookup 19-1" glyph99
Substitution2: "Single Substitution lookup 18-1" glyph96
EndChar

StartChar: U0CDE
Encoding: 3294 3294 76
Width: 745
GlyphClass: 2
Flags: W
LayerCount: 2
Fore
SplineSet
132 455 m 1,0,1
 132 433 132 433 143.5 418 c 128,-1,2
 155 403 155 403 171 403 c 256,3,4
 187 403 187 403 198.5 418 c 128,-1,5
 210 433 210 433 210 455 c 256,6,7
 210 477 210 477 198.5 492 c 128,-1,8
 187 507 187 507 171 507 c 256,9,10
 155 507 155 507 143.5 492 c 128,-1,11
 132 477 132 477 132 455 c 1,12,-1
 132 455 l 1,0,1
483 455 m 1,13,14
 483 433 483 433 494.5 418 c 128,-1,15
 506 403 506 403 522 403 c 256,16,17
 538 403 538 403 549.5 414.5 c 128,-1,18
 561 426 561 426 561 442 c 0,19,20
 561 469 561 469 549.5 488 c 128,-1,21
 538 507 538 507 522 507 c 256,22,23
 506 507 506 507 494.5 492 c 128,-1,24
 483 477 483 477 483 455 c 1,25,-1
 483 455 l 1,13,14
21 293 m 1,26,27
 21 431 21 431 63.5 514.5 c 128,-1,28
 106 598 106 598 177 598 c 0,29,30
 231 598 231 598 269 556 c 128,-1,31
 307 514 307 514 307 455 c 256,32,33
 307 396 307 396 267 354 c 128,-1,34
 227 312 227 312 171 312 c 0,35,36
 163 312 163 312 150 315.5 c 128,-1,37
 137 319 137 319 119 325 c 1,38,-1
 116 293 l 2,39,40
 116 209 116 209 147.5 150 c 128,-1,41
 179 91 179 91 223 91 c 0,42,43
 261 91 261 91 287.5 125.5 c 128,-1,44
 314 160 314 160 314 208 c 1,45,-1
 392 208 l 1,46,47
 392 160 392 160 418.5 125.5 c 128,-1,48
 445 91 445 91 483 91 c 0,49,50
 527 91 527 91 558.5 151 c 128,-1,51
 590 211 590 211 590 295 c 2,52,-1
 587 325 l 1,53,54
 576 319 576 319 559.5 315.5 c 128,-1,55
 543 312 543 312 522 312 c 0,56,57
 468 312 468 312 430 354 c 128,-1,58
 392 396 392 396 392 455 c 256,59,60
 392 514 392 514 430 556 c 128,-1,61
 468 598 468 598 522 598 c 0,62,63
 593 598 593 598 635.5 514.5 c 128,-1,64
 678 431 678 431 678 293 c 0,65,66
 678 172 678 172 621 86 c 128,-1,67
 564 0 564 0 483 0 c 0,68,69
 435 0 435 0 397.5 21.5 c 128,-1,70
 360 43 360 43 346 78 c 1,71,72
 332 43 332 43 298 21.5 c 128,-1,73
 264 0 264 0 223 0 c 0,74,75
 139 0 139 0 80 86 c 128,-1,76
 21 172 21 172 21 293 c 1,77,-1
 21 293 l 1,26,27
EndSplineSet
EndChar

StartChar: U0CE0
Encoding: 3296 3296 77
Width: 1619
GlyphClass: 2
Flags: W
LayerCount: 2
Fore
SplineSet
189 468 m 1,0,1
 189 446 189 446 200.5 431 c 128,-1,2
 212 416 212 416 228 416 c 256,3,4
 244 416 244 416 255.5 431 c 128,-1,5
 267 446 267 446 267 468 c 0,6,7
 267 482 267 482 263.5 495.5 c 128,-1,8
 260 509 260 509 254 520 c 1,9,10
 227 520 227 520 208 505 c 128,-1,11
 189 490 189 490 189 468 c 1,12,-1
 189 468 l 1,0,1
189 130 m 1,13,14
 189 108 189 108 208 93 c 128,-1,15
 227 78 227 78 254 78 c 1,16,17
 260 89 260 89 263.5 102.5 c 128,-1,18
 267 116 267 116 267 130 c 0,19,20
 267 152 267 152 255.5 167 c 128,-1,21
 244 182 244 182 228 182 c 256,22,23
 212 182 212 182 200.5 167 c 128,-1,24
 189 152 189 152 189 130 c 1,25,-1
 189 130 l 1,13,14
98 130 m 1,26,27
 98 184 98 184 136 222 c 128,-1,28
 174 260 174 260 228 260 c 0,29,30
 274 260 274 260 311 223 c 128,-1,31
 348 186 348 186 358 130 c 1,32,33
 377 146 377 146 387 190 c 128,-1,34
 397 234 397 234 397 299 c 0,35,36
 397 358 397 358 387 398.5 c 128,-1,37
 377 439 377 439 358 455 c 1,38,39
 358 407 358 407 320 372.5 c 128,-1,40
 282 338 282 338 228 338 c 256,41,42
 174 338 174 338 136 376 c 128,-1,43
 98 414 98 414 98 468 c 256,44,45
 98 522 98 522 143.5 560 c 128,-1,46
 189 598 189 598 254 598 c 0,47,48
 351 598 351 598 419.5 510.5 c 128,-1,49
 488 423 488 423 488 299 c 2,50,-1
 488 247 l 1,51,52
 501 174 501 174 538 126 c 128,-1,53
 575 78 575 78 618 78 c 0,54,55
 680 78 680 78 723.5 141 c 128,-1,56
 767 204 767 204 767 293 c 256,57,58
 767 382 767 382 723.5 444.5 c 128,-1,59
 680 507 680 507 618 507 c 2,60,-1
 585 507 l 1,61,-1
 585 585 l 1,62,-1
 715 585 l 2,63,64
 739 585 739 585 756.5 604 c 128,-1,65
 774 623 774 623 774 650 c 0,66,67
 774 672 774 672 760 693 c 128,-1,68
 746 714 746 714 722 728 c 1,69,-1
 767 793 l 1,70,71
 812 772 812 772 838.5 733.5 c 128,-1,72
 865 695 865 695 865 650 c 0,73,74
 865 595 865 595 839 554.5 c 128,-1,75
 813 514 813 514 774 507 c 1,76,77
 814 473 814 473 836 417 c 128,-1,78
 858 361 858 361 858 293 c 0,79,80
 858 259 858 259 857 241.5 c 128,-1,81
 856 224 856 224 853 215 c 1,82,83
 872 159 872 159 905.5 125 c 128,-1,84
 939 91 939 91 975 91 c 0,85,86
 1026 91 1026 91 1062.5 140.5 c 128,-1,87
 1099 190 1099 190 1099 260 c 0,88,89
 1099 400 1099 400 1179 499 c 128,-1,90
 1259 598 1259 598 1372 598 c 0,91,92
 1496 598 1496 598 1570.5 516.5 c 128,-1,93
 1645 435 1645 435 1645 299 c 0,94,95
 1645 169 1645 169 1586 84.5 c 128,-1,96
 1527 0 1527 0 1437 0 c 0,97,98
 1367 0 1367 0 1317.5 51.5 c 128,-1,99
 1268 103 1268 103 1268 176 c 0,100,101
 1268 238 1268 238 1306 281.5 c 128,-1,102
 1344 325 1344 325 1398 325 c 0,103,104
 1430 325 1430 325 1453 302 c 128,-1,105
 1476 279 1476 279 1476 247 c 256,106,107
 1476 215 1476 215 1457 192 c 128,-1,108
 1438 169 1438 169 1411 169 c 0,109,110
 1392 169 1392 169 1376.5 178 c 128,-1,111
 1361 187 1361 187 1352 202 c 1,112,113
 1349 196 1349 196 1347.5 191 c 128,-1,114
 1346 186 1346 186 1346 182 c 0,115,116
 1346 139 1346 139 1372.5 108.5 c 128,-1,117
 1399 78 1399 78 1437 78 c 0,118,119
 1490 78 1490 78 1522 139 c 128,-1,120
 1554 200 1554 200 1554 302 c 0,121,122
 1554 399 1554 399 1502.5 463 c 128,-1,123
 1451 527 1451 527 1372 527 c 0,124,125
 1297 527 1297 527 1243.5 449 c 128,-1,126
 1190 371 1190 371 1190 260 c 0,127,128
 1190 152 1190 152 1127 76 c 128,-1,129
 1064 0 1064 0 975 0 c 0,130,131
 920 0 920 0 875.5 33.5 c 128,-1,132
 831 67 831 67 813 122 c 1,133,134
 779 65 779 65 727 32.5 c 128,-1,135
 675 0 675 0 618 0 c 0,136,137
 566 0 566 0 520 31.5 c 128,-1,138
 474 63 474 63 449 117 c 1,139,140
 424 63 424 63 371 31.5 c 128,-1,141
 318 0 318 0 254 0 c 0,142,143
 189 0 189 0 143.5 38 c 128,-1,144
 98 76 98 76 98 130 c 1,145,-1
 98 130 l 1,26,27
EndSplineSet
EndChar

StartChar: U0CE1
Encoding: 3297 3297 78
Width: 1440
GlyphClass: 2
Flags: W
LayerCount: 2
Fore
SplineSet
56 429 m 1,0,1
 56 497 56 497 107.5 544.5 c 128,-1,2
 159 592 159 592 231 592 c 0,3,4
 282 592 282 592 325 560 c 128,-1,5
 368 528 368 528 387 475 c 1,6,7
 406 528 406 528 449 560 c 128,-1,8
 492 592 492 592 543 592 c 0,9,10
 613 592 613 592 662.5 546.5 c 128,-1,11
 712 501 712 501 712 436 c 0,12,13
 712 394 712 394 676.5 319 c 128,-1,14
 641 244 641 244 641 202 c 0,15,16
 641 148 641 148 671.5 110 c 128,-1,17
 702 72 702 72 745 72 c 0,18,19
 801 72 801 72 841 135.5 c 128,-1,20
 881 199 881 199 881 289 c 0,21,22
 881 346 881 346 859.5 402.5 c 128,-1,23
 838 459 838 459 797 507 c 1,24,-1
 868 585 l 1,25,-1
 1115 585 l 2,26,27
 1260 585 1260 585 1363 493.5 c 128,-1,28
 1466 402 1466 402 1466 273 c 0,29,30
 1466 160 1466 160 1395.5 80 c 128,-1,31
 1325 0 1325 0 1226 0 c 0,32,33
 1148 0 1148 0 1092.5 49.5 c 128,-1,34
 1037 99 1037 99 1037 169 c 256,35,36
 1037 239 1037 239 1079 288.5 c 128,-1,37
 1121 338 1121 338 1180 338 c 0,38,39
 1228 338 1228 338 1262.5 313.5 c 128,-1,40
 1297 289 1297 289 1297 254 c 0,41,42
 1297 224 1297 224 1278 203 c 128,-1,43
 1259 182 1259 182 1232 182 c 256,44,45
 1205 182 1205 182 1186 201 c 128,-1,46
 1167 220 1167 220 1167 247 c 1,47,48
 1144 238 1144 238 1129.5 217 c 128,-1,49
 1115 196 1115 196 1115 169 c 0,50,51
 1115 131 1115 131 1147.5 104.5 c 128,-1,52
 1180 78 1180 78 1226 78 c 0,53,54
 1288 78 1288 78 1331.5 135 c 128,-1,55
 1375 192 1375 192 1375 273 c 0,56,57
 1375 370 1375 370 1299 438.5 c 128,-1,58
 1223 507 1223 507 1115 507 c 2,59,-1
 909 507 l 1,60,61
 940 453 940 453 956 397 c 128,-1,62
 972 341 972 341 972 286 c 0,63,64
 972 165 972 165 905.5 79 c 128,-1,65
 839 -7 839 -7 745 -7 c 0,66,67
 664 -7 664 -7 607 54 c 128,-1,68
 550 115 550 115 550 202 c 0,69,70
 550 244 550 244 585.5 319 c 128,-1,71
 621 394 621 394 621 436 c 0,72,73
 621 468 621 468 598 491 c 128,-1,74
 575 514 575 514 543 514 c 0,75,76
 495 514 495 514 460.5 468.5 c 128,-1,77
 426 423 426 423 426 358 c 1,78,-1
 348 358 l 1,79,80
 348 423 348 423 313.5 468.5 c 128,-1,81
 279 514 279 514 231 514 c 0,82,83
 193 514 193 514 166.5 489 c 128,-1,84
 140 464 140 464 140 429 c 0,85,86
 140 403 140 403 155.5 376 c 128,-1,87
 171 349 171 349 199 325 c 1,88,-1
 153 267 l 1,89,90
 108 293 108 293 82 336.5 c 128,-1,91
 56 380 56 380 56 429 c 1,92,-1
 56 429 l 1,0,1
EndSplineSet
EndChar

StartChar: U0CE2
Encoding: 3298 3298 79
Width: 0
GlyphClass: 2
Flags: W
LayerCount: 2
Fore
SplineSet
10 -191 m 1,0,1
 10 -220 10 -220 -24.5 -265 c 128,-1,2
 -59 -310 -59 -310 -59 -339 c 0,3,4
 -59 -370 -59 -370 -33.5 -391.5 c 128,-1,5
 -8 -413 -8 -413 28 -413 c 1,6,-1
 28 -488 l 1,7,8
 -44 -488 -44 -488 -94.5 -444.5 c 128,-1,9
 -145 -401 -145 -401 -145 -339 c 0,10,11
 -145 -311 -145 -311 -111 -265 c 128,-1,12
 -77 -219 -77 -219 -77 -191 c 0,13,14
 -77 -160 -77 -160 -98.5 -138.5 c 128,-1,15
 -120 -117 -120 -117 -151 -117 c 0,16,17
 -197 -117 -197 -117 -229.5 -160.5 c 128,-1,18
 -262 -204 -262 -204 -262 -265 c 1,19,-1
 -336 -265 l 1,20,21
 -336 -204 -336 -204 -369 -160.5 c 128,-1,22
 -402 -117 -402 -117 -448 -117 c 0,23,24
 -483 -117 -483 -117 -508 -140.5 c 128,-1,25
 -533 -164 -533 -164 -533 -198 c 0,26,27
 -533 -223 -533 -223 -519 -248.5 c 128,-1,28
 -505 -274 -505 -274 -479 -296 c 1,29,-1
 -522 -351 l 1,30,31
 -565 -326 -565 -326 -589.5 -285 c 128,-1,32
 -614 -244 -614 -244 -614 -198 c 0,33,34
 -614 -134 -614 -134 -565.5 -88.5 c 128,-1,35
 -517 -43 -517 -43 -448 -43 c 0,36,37
 -399 -43 -399 -43 -358 -73 c 128,-1,38
 -317 -103 -317 -103 -299 -153 c 1,39,40
 -281 -103 -281 -103 -240.5 -73 c 128,-1,41
 -200 -43 -200 -43 -151 -43 c 0,42,43
 -84 -43 -84 -43 -37 -86.5 c 128,-1,44
 10 -130 10 -130 10 -191 c 1,45,-1
 10 -191 l 1,0,1
EndSplineSet
EndChar

StartChar: U0CE3
Encoding: 3299 3299 80
Width: 0
GlyphClass: 2
Flags: W
LayerCount: 2
Fore
SplineSet
10 -198 m 1,0,1
 10 -242 10 -242 -10.5 -273 c 128,-1,2
 -31 -304 -31 -304 -60 -304 c 0,3,4
 -78 -304 -78 -304 -91 -316.5 c 128,-1,5
 -104 -329 -104 -329 -104 -346 c 0,6,7
 -104 -377 -104 -377 -78.5 -398.5 c 128,-1,8
 -53 -420 -53 -420 -17 -420 c 2,9,-1
 28 -420 l 1,10,-1
 28 -494 l 1,11,-1
 -17 -494 l 2,12,13
 -53 -494 -53 -494 -78.5 -511.5 c 128,-1,14
 -104 -529 -104 -529 -104 -554 c 0,15,16
 -104 -585 -104 -585 -78.5 -606.5 c 128,-1,17
 -53 -628 -53 -628 -17 -628 c 2,18,-1
 28 -628 l 1,19,-1
 28 -702 l 1,20,-1
 -17 -702 l 2,21,22
 -89 -702 -89 -702 -139.5 -658.5 c 128,-1,23
 -190 -615 -190 -615 -190 -554 c 0,24,25
 -190 -518 -190 -518 -168 -490 c 128,-1,26
 -146 -462 -146 -462 -111 -454 c 1,27,28
 -145 -451 -145 -451 -167.5 -420 c 128,-1,29
 -190 -389 -190 -389 -190 -346 c 0,30,31
 -190 -307 -190 -307 -168 -279.5 c 128,-1,32
 -146 -252 -146 -252 -115 -252 c 0,33,34
 -99 -252 -99 -252 -88 -236 c 128,-1,35
 -77 -220 -77 -220 -77 -198 c 0,36,37
 -77 -167 -77 -167 -98.5 -145.5 c 128,-1,38
 -120 -124 -120 -124 -151 -124 c 0,39,40
 -197 -124 -197 -124 -229.5 -167.5 c 128,-1,41
 -262 -211 -262 -211 -262 -272 c 1,42,-1
 -336 -272 l 1,43,44
 -336 -211 -336 -211 -369 -167.5 c 128,-1,45
 -402 -124 -402 -124 -448 -124 c 0,46,47
 -483 -124 -483 -124 -508 -147.5 c 128,-1,48
 -533 -171 -533 -171 -533 -204 c 0,49,50
 -533 -230 -533 -230 -519 -255.5 c 128,-1,51
 -505 -281 -505 -281 -479 -303 c 1,52,-1
 -522 -358 l 1,53,54
 -565 -333 -565 -333 -589.5 -292 c 128,-1,55
 -614 -251 -614 -251 -614 -204 c 0,56,57
 -614 -140 -614 -140 -565.5 -94.5 c 128,-1,58
 -517 -49 -517 -49 -448 -49 c 0,59,60
 -399 -49 -399 -49 -358 -79.5 c 128,-1,61
 -317 -110 -317 -110 -299 -160 c 1,62,63
 -281 -110 -281 -110 -240 -79.5 c 128,-1,64
 -199 -49 -199 -49 -151 -49 c 0,65,66
 -84 -49 -84 -49 -37 -92.5 c 128,-1,67
 10 -136 10 -136 10 -198 c 1,68,-1
 10 -198 l 1,0,1
EndSplineSet
EndChar

StartChar: U0CE6
Encoding: 3302 3302 81
Width: 715
GlyphClass: 2
Flags: W
LayerCount: 2
Fore
SplineSet
72 364 m 1,0,1
 72 509 72 509 156 612 c 128,-1,2
 240 715 240 715 358 715 c 256,3,4
 476 715 476 715 560 612 c 128,-1,5
 644 509 644 509 644 364 c 0,6,7
 644 213 644 213 560 106.5 c 128,-1,8
 476 0 476 0 358 0 c 256,9,10
 240 0 240 0 156 106.5 c 128,-1,11
 72 213 72 213 72 364 c 1,12,-1
 72 364 l 1,0,1
163 364 m 1,13,14
 163 246 163 246 220 162 c 128,-1,15
 277 78 277 78 358 78 c 256,16,17
 439 78 439 78 496 162 c 128,-1,18
 553 246 553 246 553 364 c 0,19,20
 553 477 553 477 496 557 c 128,-1,21
 439 637 439 637 358 637 c 256,22,23
 277 637 277 637 220 557 c 128,-1,24
 163 477 163 477 163 364 c 1,25,-1
 163 364 l 1,13,14
EndSplineSet
EndChar

StartChar: U0CE7
Encoding: 3303 3303 82
Width: 715
GlyphClass: 2
Flags: W
LayerCount: 2
Fore
SplineSet
72 351 m 1,0,1
 72 502 72 502 156 608.5 c 128,-1,2
 240 715 240 715 358 715 c 256,3,4
 476 715 476 715 560 608.5 c 128,-1,5
 644 502 644 502 644 351 c 0,6,7
 644 256 644 256 610.5 165.5 c 128,-1,8
 577 75 577 75 514 0 c 1,9,-1
 436 52 l 1,10,11
 493 120 493 120 523 197 c 128,-1,12
 553 274 553 274 553 351 c 0,13,14
 553 469 553 469 496 553 c 128,-1,15
 439 637 439 637 358 637 c 256,16,17
 277 637 277 637 220 553 c 128,-1,18
 163 469 163 469 163 351 c 0,19,20
 163 274 163 274 193 197 c 128,-1,21
 223 120 223 120 280 52 c 1,22,-1
 202 0 l 1,23,24
 139 75 139 75 105.5 165.5 c 128,-1,25
 72 256 72 256 72 351 c 1,26,-1
 72 351 l 1,0,1
EndSplineSet
EndChar

StartChar: U0CE8
Encoding: 3304 3304 83
Width: 715
GlyphClass: 2
Flags: W
LayerCount: 2
Fore
SplineSet
72 0 m 1,0,-1
 72 91 l 1,1,-1
 332 91 l 2,2,3
 424 91 424 91 488.5 171 c 128,-1,4
 553 251 553 251 553 364 c 256,5,6
 553 477 553 477 513 557 c 128,-1,7
 473 637 473 637 416 637 c 0,8,9
 387 637 387 637 366 606.5 c 128,-1,10
 345 576 345 576 345 533 c 0,11,12
 345 506 345 506 360 487 c 128,-1,13
 375 468 375 468 397 468 c 0,14,15
 405 468 405 468 412.5 479 c 128,-1,16
 420 490 420 490 423 507 c 1,17,-1
 475 507 l 1,18,19
 475 459 475 459 452 424.5 c 128,-1,20
 429 390 429 390 397 390 c 0,21,22
 343 390 343 390 305 432 c 128,-1,23
 267 474 267 474 267 533 c 0,24,25
 267 608 267 608 309 661.5 c 128,-1,26
 351 715 351 715 410 715 c 0,27,28
 507 715 507 715 575.5 612 c 128,-1,29
 644 509 644 509 644 364 c 0,30,31
 644 213 644 213 552.5 106.5 c 128,-1,32
 461 0 461 0 332 0 c 2,33,-1
 72 0 l 1,34,-1
 72 0 l 1,0,-1
EndSplineSet
EndChar

StartChar: U0CE9
Encoding: 3305 3305 84
Width: 714
GlyphClass: 2
Flags: W
LayerCount: 2
Fore
SplineSet
146 189 m 1,0,1
 146 159 146 159 165 138 c 128,-1,2
 184 117 184 117 211 117 c 0,3,4
 246 117 246 117 276.5 130.5 c 128,-1,5
 307 144 307 144 328 169 c 1,6,7
 297 206 297 206 266.5 226.5 c 128,-1,8
 236 247 236 247 211 247 c 0,9,10
 184 247 184 247 165 230 c 128,-1,11
 146 213 146 213 146 189 c 1,12,-1
 146 189 l 1,0,1
68 182 m 1,13,14
 68 241 68 241 110 283 c 128,-1,15
 152 325 152 325 211 325 c 0,16,17
 248 325 248 325 285.5 304.5 c 128,-1,18
 323 284 323 284 354 247 c 1,19,20
 367 295 367 295 373.5 331 c 128,-1,21
 380 367 380 367 380 390 c 0,22,23
 380 492 380 492 338 564.5 c 128,-1,24
 296 637 296 637 237 637 c 0,25,26
 199 637 199 637 172.5 610.5 c 128,-1,27
 146 584 146 584 146 546 c 0,28,29
 146 524 146 524 161 509 c 128,-1,30
 176 494 176 494 198 494 c 0,31,32
 207 494 207 494 214.5 501.5 c 128,-1,33
 222 509 222 509 224 520 c 1,34,-1
 302 520 l 1,35,36
 302 477 302 477 271.5 446.5 c 128,-1,37
 241 416 241 416 198 416 c 0,38,39
 144 416 144 416 106 454 c 128,-1,40
 68 492 68 492 68 546 c 0,41,42
 68 616 68 616 117.5 665.5 c 128,-1,43
 167 715 167 715 237 715 c 0,44,45
 329 715 329 715 393.5 620 c 128,-1,46
 458 525 458 525 458 390 c 0,47,48
 458 318 458 318 448 263.5 c 128,-1,49
 438 209 438 209 419 176 c 1,50,51
 453 136 453 136 487 113.5 c 128,-1,52
 521 91 521 91 549 91 c 0,53,54
 561 91 561 91 576 99.5 c 128,-1,55
 591 108 591 108 607 124 c 1,56,-1
 646 59 l 1,57,58
 622 31 622 31 597 15.5 c 128,-1,59
 572 0 572 0 549 0 c 0,60,61
 502 0 502 0 456.5 31.5 c 128,-1,62
 411 63 411 63 380 117 c 1,63,64
 349 80 349 80 304.5 59.5 c 128,-1,65
 260 39 260 39 211 39 c 0,66,67
 152 39 152 39 110 81 c 128,-1,68
 68 123 68 123 68 182 c 1,69,-1
 68 182 l 1,13,14
EndSplineSet
EndChar

StartChar: U0CEA
Encoding: 3306 3306 85
Width: 715
GlyphClass: 2
Flags: W
LayerCount: 2
Fore
SplineSet
325 130 m 1,0,1
 325 108 325 108 340 93 c 128,-1,2
 355 78 355 78 377 78 c 256,3,4
 399 78 399 78 414 93 c 128,-1,5
 429 108 429 108 429 130 c 256,6,7
 429 152 429 152 414 167 c 128,-1,8
 399 182 399 182 377 182 c 256,9,10
 355 182 355 182 340 167 c 128,-1,11
 325 152 325 152 325 130 c 1,12,-1
 325 130 l 1,0,1
52 481 m 1,13,14
 52 578 52 578 105.5 646.5 c 128,-1,15
 159 715 159 715 234 715 c 0,16,17
 293 715 293 715 335 675 c 128,-1,18
 377 635 377 635 377 579 c 0,19,20
 377 528 377 528 339 491.5 c 128,-1,21
 301 455 301 455 247 455 c 0,22,23
 229 455 229 455 212.5 458.5 c 128,-1,24
 196 462 196 462 182 468 c 1,25,-1
 202 527 l 1,26,27
 213 521 213 521 224.5 517.5 c 128,-1,28
 236 514 236 514 247 514 c 0,29,30
 269 514 269 514 284 533 c 128,-1,31
 299 552 299 552 299 579 c 0,32,33
 299 603 299 603 282 620 c 128,-1,34
 265 637 265 637 241 637 c 0,35,36
 195 637 195 637 162.5 589.5 c 128,-1,37
 130 542 130 542 130 475 c 0,38,39
 130 381 130 381 202.5 314 c 128,-1,40
 275 247 275 247 377 247 c 0,41,42
 465 255 465 255 525 313 c 128,-1,43
 585 371 585 371 585 449 c 0,44,45
 585 509 585 509 557.5 565.5 c 128,-1,46
 530 622 530 622 481 663 c 1,47,-1
 546 702 l 1,48,49
 602 655 602 655 632.5 589 c 128,-1,50
 663 523 663 523 663 449 c 0,51,52
 663 372 663 372 613.5 303 c 128,-1,53
 564 234 564 234 481 195 c 1,54,55
 494 177 494 177 500.5 160.5 c 128,-1,56
 507 144 507 144 507 130 c 0,57,58
 507 76 507 76 469 38 c 128,-1,59
 431 0 431 0 377 0 c 256,60,61
 323 0 323 0 285 38 c 128,-1,62
 247 76 247 76 247 130 c 0,63,64
 247 137 247 137 255 157 c 128,-1,65
 263 177 263 177 267 189 c 1,66,67
 172 214 172 214 112 295.5 c 128,-1,68
 52 377 52 377 52 481 c 1,69,-1
 52 481 l 1,13,14
EndSplineSet
EndChar

StartChar: U0CEB
Encoding: 3307 3307 86
Width: 715
GlyphClass: 2
Flags: W
LayerCount: 2
Fore
SplineSet
156 130 m 1,0,1
 156 108 156 108 167.5 93 c 128,-1,2
 179 78 179 78 195 78 c 0,3,4
 237 78 237 78 270.5 138 c 128,-1,5
 304 198 304 198 312 286 c 1,6,7
 242 260 242 260 199 217.5 c 128,-1,8
 156 175 156 175 156 130 c 1,9,-1
 156 130 l 1,0,1
507 611 m 1,10,11
 507 591 507 591 515.5 566.5 c 128,-1,12
 524 542 524 542 540 514 c 1,13,14
 565 557 565 557 575 578 c 128,-1,15
 585 599 585 599 585 611 c 0,16,17
 585 627 585 627 573.5 638.5 c 128,-1,18
 562 650 562 650 546 650 c 256,19,20
 530 650 530 650 518.5 638.5 c 128,-1,21
 507 627 507 627 507 611 c 1,22,-1
 507 611 l 1,10,11
65 585 m 1,23,24
 65 639 65 639 103 677 c 128,-1,25
 141 715 141 715 195 715 c 0,26,27
 273 715 273 715 328.5 618 c 128,-1,28
 384 521 384 521 384 384 c 1,29,30
 415 398 415 398 441 416 c 128,-1,31
 467 434 467 434 488 455 c 1,32,33
 465 494 465 494 453.5 534 c 128,-1,34
 442 574 442 574 442 611 c 0,35,36
 442 654 442 654 472.5 684.5 c 128,-1,37
 503 715 503 715 546 715 c 256,38,39
 589 715 589 715 619.5 684.5 c 128,-1,40
 650 654 650 654 650 611 c 0,41,42
 650 567 650 567 628 525 c 128,-1,43
 606 483 606 483 566 449 c 1,44,45
 595 388 595 388 609.5 327 c 128,-1,46
 624 266 624 266 624 208 c 0,47,48
 624 146 624 146 589 90.5 c 128,-1,49
 554 35 554 35 494 0 c 1,50,-1
 442 65 l 1,51,52
 490 93 490 93 518 131 c 128,-1,53
 546 169 546 169 546 208 c 0,54,55
 546 270 546 270 538 319.5 c 128,-1,56
 530 369 530 369 514 403 c 1,57,58
 479 374 479 374 448 352.5 c 128,-1,59
 417 331 417 331 390 319 c 1,60,61
 390 187 390 187 333 93.5 c 128,-1,62
 276 0 276 0 195 0 c 0,63,64
 141 0 141 0 103 38 c 128,-1,65
 65 76 65 76 65 130 c 0,66,67
 65 192 65 192 133 255 c 128,-1,68
 201 318 201 318 312 358 c 1,69,70
 312 474 312 474 277.5 555.5 c 128,-1,71
 243 637 243 637 195 637 c 0,72,73
 173 637 173 637 158 622 c 128,-1,74
 143 607 143 607 143 585 c 256,75,76
 143 563 143 563 158 548 c 128,-1,77
 173 533 173 533 195 533 c 0,78,79
 202 533 202 533 209 536.5 c 128,-1,80
 216 540 216 540 221 546 c 1,81,-1
 260 494 l 1,82,83
 237 475 237 475 220.5 465 c 128,-1,84
 204 455 204 455 195 455 c 0,85,86
 141 455 141 455 103 493 c 128,-1,87
 65 531 65 531 65 585 c 1,88,-1
 65 585 l 1,23,24
EndSplineSet
EndChar

StartChar: U0CEC
Encoding: 3308 3308 87
Width: 715
GlyphClass: 2
Flags: W
LayerCount: 2
Fore
SplineSet
78 221 m 1,0,1
 78 264 78 264 102 305.5 c 128,-1,2
 126 347 126 347 169 377 c 1,3,4
 169 414 169 414 201.5 481 c 128,-1,5
 234 548 234 548 234 585 c 0,6,7
 234 607 234 607 219 622 c 128,-1,8
 204 637 204 637 182 637 c 0,9,10
 167 637 167 637 150 627 c 128,-1,11
 133 617 133 617 117 598 c 1,12,-1
 78 657 l 1,13,14
 101 685 101 685 128.5 700 c 128,-1,15
 156 715 156 715 182 715 c 0,16,17
 236 715 236 715 274 677 c 128,-1,18
 312 639 312 639 312 585 c 0,19,20
 312 556 312 556 283 507 c 128,-1,21
 254 458 254 458 254 429 c 1,22,23
 289 442 289 442 320 448.5 c 128,-1,24
 351 455 351 455 377 455 c 0,25,26
 436 455 436 455 478 424.5 c 128,-1,27
 520 394 520 394 520 351 c 0,28,29
 520 300 520 300 474.5 264 c 128,-1,30
 429 228 429 228 364 228 c 0,31,32
 314 228 314 228 270 245 c 128,-1,33
 226 262 226 262 195 293 c 1,34,35
 182 275 182 275 175.5 256.5 c 128,-1,36
 169 238 169 238 169 221 c 0,37,38
 169 162 169 162 222.5 120 c 128,-1,39
 276 78 276 78 351 78 c 2,40,-1
 637 78 l 1,41,-1
 637 0 l 1,42,-1
 338 0 l 2,43,44
 230 0 230 0 154 64.5 c 128,-1,45
 78 129 78 129 78 221 c 1,46,-1
 78 221 l 1,0,1
247 351 m 1,47,48
 257 333 257 333 288.5 322.5 c 128,-1,49
 320 312 320 312 364 312 c 0,50,51
 391 312 391 312 410 323.5 c 128,-1,52
 429 335 429 335 429 351 c 0,53,54
 429 362 429 362 414 369.5 c 128,-1,55
 399 377 399 377 377 377 c 2,56,-1
 312 377 l 2,57,58
 296 377 296 377 279 370.5 c 128,-1,59
 262 364 262 364 247 351 c 1,60,-1
 247 351 l 1,47,48
EndSplineSet
EndChar

StartChar: U0CED
Encoding: 3309 3309 88
Width: 715
GlyphClass: 2
Flags: W
LayerCount: 2
Fore
SplineSet
78 195 m 1,0,1
 78 247 78 247 116.5 299.5 c 128,-1,2
 155 352 155 352 221 390 c 0,3,4
 299 435 299 435 344.5 480.5 c 128,-1,5
 390 526 390 526 390 559 c 0,6,7
 390 591 390 591 367 614 c 128,-1,8
 344 637 344 637 312 637 c 0,9,10
 275 637 275 637 266 596 c 128,-1,11
 257 555 257 555 286 520 c 1,12,-1
 234 481 l 1,13,14
 206 504 206 504 191 531.5 c 128,-1,15
 176 559 176 559 176 585 c 0,16,17
 176 639 176 639 216 677 c 128,-1,18
 256 715 256 715 312 715 c 0,19,20
 377 715 377 715 422.5 669.5 c 128,-1,21
 468 624 468 624 468 559 c 0,22,23
 468 509 468 509 433 460.5 c 128,-1,24
 398 412 398 412 338 377 c 0,25,26
 260 332 260 332 214.5 283 c 128,-1,27
 169 234 169 234 169 195 c 0,28,29
 169 147 169 147 199.5 112.5 c 128,-1,30
 230 78 230 78 273 78 c 2,31,-1
 637 78 l 1,32,-1
 637 0 l 1,33,-1
 273 0 l 2,34,35
 192 0 192 0 135 57 c 128,-1,36
 78 114 78 114 78 195 c 1,37,-1
 78 195 l 1,0,1
EndSplineSet
EndChar

StartChar: U0CEE
Encoding: 3310 3310 89
Width: 715
GlyphClass: 2
Flags: W
LayerCount: 2
Fore
SplineSet
208 585 m 1,0,1
 208 563 208 563 223 548 c 128,-1,2
 238 533 238 533 260 533 c 256,3,4
 282 533 282 533 297 548 c 128,-1,5
 312 563 312 563 312 585 c 256,6,7
 312 607 312 607 297 622 c 128,-1,8
 282 637 282 637 260 637 c 256,9,10
 238 637 238 637 223 622 c 128,-1,11
 208 607 208 607 208 585 c 1,12,-1
 208 585 l 1,0,1
65 455 m 1,13,14
 65 563 65 563 122 639 c 128,-1,15
 179 715 179 715 260 715 c 0,16,17
 314 715 314 715 352 677 c 128,-1,18
 390 639 390 639 390 585 c 256,19,20
 390 531 390 531 352 493 c 128,-1,21
 314 455 314 455 260 455 c 0,22,23
 228 455 228 455 200.5 469 c 128,-1,24
 173 483 173 483 156 507 c 1,25,26
 154 502 154 502 153 486.5 c 128,-1,27
 152 471 152 471 152 451 c 0,28,29
 152 282 152 282 213.5 180 c 128,-1,30
 275 78 275 78 377 78 c 0,31,32
 447 78 447 78 496.5 123.5 c 128,-1,33
 546 169 546 169 546 234 c 0,34,35
 546 295 546 295 500.5 409.5 c 128,-1,36
 455 524 455 524 455 585 c 0,37,38
 455 639 455 639 493 677 c 128,-1,39
 531 715 531 715 585 715 c 2,40,-1
 650 715 l 1,41,-1
 650 637 l 1,42,-1
 585 637 l 2,43,44
 569 637 569 637 557.5 622 c 128,-1,45
 546 607 546 607 546 585 c 0,46,47
 546 524 546 524 591.5 409.5 c 128,-1,48
 637 295 637 295 637 234 c 0,49,50
 637 137 637 137 561 68.5 c 128,-1,51
 485 0 485 0 377 0 c 0,52,53
 223 0 223 0 144 115 c 128,-1,54
 65 230 65 230 65 455 c 1,55,-1
 65 455 l 1,13,14
EndSplineSet
EndChar

StartChar: U0CEF
Encoding: 3311 3311 90
Width: 715
GlyphClass: 2
Flags: W
LayerCount: 2
Fore
SplineSet
215 364 m 1,0,1
 248 336 248 336 280 321 c 128,-1,2
 312 306 312 306 338 306 c 0,3,4
 360 306 360 306 375 323 c 128,-1,5
 390 340 390 340 390 364 c 256,6,7
 390 388 390 388 371 405.5 c 128,-1,8
 352 423 352 423 325 423 c 0,9,10
 306 423 306 423 277.5 408 c 128,-1,11
 249 393 249 393 215 364 c 1,12,-1
 215 364 l 1,0,1
78 234 m 1,13,14
 78 274 78 274 88 307.5 c 128,-1,15
 98 341 98 341 117 364 c 1,16,17
 98 397 98 397 88 430 c 128,-1,18
 78 463 78 463 78 494 c 0,19,20
 78 586 78 586 154 650.5 c 128,-1,21
 230 715 230 715 338 715 c 2,22,-1
 637 715 l 1,23,-1
 637 637 l 1,24,-1
 338 637 l 2,25,26
 268 637 268 637 218.5 595 c 128,-1,27
 169 553 169 553 169 494 c 0,28,29
 169 473 169 473 171 458 c 128,-1,30
 173 443 173 443 176 433 c 1,31,32
 205 462 205 462 247 478 c 128,-1,33
 289 494 289 494 338 494 c 0,34,35
 392 494 392 494 430 456 c 128,-1,36
 468 418 468 418 468 364 c 256,37,38
 468 310 468 310 430 272 c 128,-1,39
 392 234 392 234 338 234 c 0,40,41
 292 234 292 234 252 247.5 c 128,-1,42
 212 261 212 261 182 286 c 1,43,44
 176 268 176 268 172.5 255 c 128,-1,45
 169 242 169 242 169 234 c 0,46,47
 169 179 169 179 201.5 135.5 c 128,-1,48
 234 92 234 92 286 78 c 1,49,-1
 286 0 l 1,50,51
 196 16 196 16 137 82 c 128,-1,52
 78 148 78 148 78 234 c 1,53,-1
 78 234 l 1,13,14
EndSplineSet
EndChar

StartChar: U0CF1
Encoding: 3313 3313 91
Width: 611
GlyphClass: 2
Flags: W
LayerCount: 2
Fore
SplineSet
72 0 m 1,0,-1
 254 374 l 1,1,-1
 72 748 l 1,2,-1
 540 748 l 1,3,-1
 358 374 l 1,4,-1
 540 0 l 1,5,-1
 72 0 l 1,6,-1
 72 0 l 1,0,-1
202 91 m 1,7,-1
 416 91 l 1,8,-1
 308 289 l 1,9,-1
 202 91 l 1,10,-1
 202 91 l 1,7,-1
308 458 m 1,11,-1
 423 683 l 1,12,-1
 189 683 l 1,13,-1
 308 458 l 1,14,-1
 308 458 l 1,11,-1
EndSplineSet
EndChar

StartChar: U0CF2
Encoding: 3314 3314 92
Width: 922
GlyphClass: 2
Flags: W
LayerCount: 2
Fore
SplineSet
243 -2 m 1,0,1
 172 -2 172 -2 122 55.5 c 128,-1,2
 72 113 72 113 72 195 c 0,3,4
 72 275 72 275 122 331.5 c 128,-1,5
 172 388 172 388 243 388 c 0,6,7
 315 388 315 388 366 331.5 c 128,-1,8
 417 275 417 275 417 195 c 0,9,10
 417 113 417 113 366 55.5 c 128,-1,11
 315 -2 315 -2 243 -2 c 1,12,-1
 243 -2 l 1,0,1
243 98 m 1,13,14
 280 98 280 98 306 126.5 c 128,-1,15
 332 155 332 155 332 195 c 0,16,17
 332 234 332 234 306 262 c 128,-1,18
 280 290 280 290 243 290 c 0,19,20
 207 290 207 290 181.5 262 c 128,-1,21
 156 234 156 234 156 195 c 0,22,23
 156 155 156 155 181.5 126.5 c 128,-1,24
 207 98 207 98 243 98 c 1,25,-1
 243 98 l 1,13,14
676 -2 m 1,26,27
 604 -2 604 -2 553.5 55.5 c 128,-1,28
 503 113 503 113 503 195 c 0,29,30
 503 275 503 275 553.5 331.5 c 128,-1,31
 604 388 604 388 676 388 c 256,32,33
 748 388 748 388 799 331.5 c 128,-1,34
 850 275 850 275 850 195 c 0,35,36
 850 113 850 113 799 55.5 c 128,-1,37
 748 -2 748 -2 676 -2 c 1,38,-1
 676 -2 l 1,26,27
676 98 m 1,39,40
 712 98 712 98 737.5 126.5 c 128,-1,41
 763 155 763 155 763 195 c 0,42,43
 763 234 763 234 737.5 262 c 128,-1,44
 712 290 712 290 676 290 c 256,45,46
 640 290 640 290 615 262 c 128,-1,47
 590 234 590 234 590 195 c 0,48,49
 590 155 590 155 615 126.5 c 128,-1,50
 640 98 640 98 676 98 c 1,51,-1
 676 98 l 1,39,40
EndSplineSet
EndChar

StartChar: afii61664
Encoding: 8204 8204 93
Width: 0
GlyphClass: 2
Flags: W
LayerCount: 2
Fore
SplineSet
0 -488 m 1,0,-1
 0 806 l 1,1,-1
 52 806 l 1,2,-1
 52 -488 l 1,3,-1
 0 -488 l 1,4,-1
 0 -488 l 1,0,-1
EndSplineSet
EndChar

StartChar: afii301
Encoding: 8205 8205 94
Width: 0
GlyphClass: 2
Flags: W
LayerCount: 2
Fore
SplineSet
0 -488 m 1,0,-1
 0 806 l 1,1,-1
 234 806 l 1,2,-1
 234 754 l 1,3,-1
 52 754 l 1,4,-1
 52 -488 l 1,5,-1
 0 -488 l 1,6,-1
 0 -488 l 1,0,-1
EndSplineSet
EndChar

StartChar: uni25CC
Encoding: 9676 9676 95
Width: 845
GlyphClass: 2
Flags: W
LayerCount: 2
Fore
SplineSet
376 655 m 1,0,1
 376 674 376 674 390 688 c 128,-1,2
 404 702 404 702 423 702 c 256,3,4
 442 702 442 702 455.5 688 c 128,-1,5
 469 674 469 674 469 655 c 256,6,7
 469 636 469 636 455.5 622 c 128,-1,8
 442 608 442 608 423 608 c 256,9,10
 404 608 404 608 390 622 c 128,-1,11
 376 636 376 636 376 655 c 1,12,-1
 376 655 l 1,0,1
376 47 m 1,13,14
 376 66 376 66 390 80 c 128,-1,15
 404 94 404 94 423 94 c 256,16,17
 442 94 442 94 455.5 80 c 128,-1,18
 469 66 469 66 469 47 c 256,19,20
 469 28 469 28 455.5 14 c 128,-1,21
 442 0 442 0 423 0 c 256,22,23
 404 0 404 0 390 14 c 128,-1,24
 376 28 376 28 376 47 c 1,25,-1
 376 47 l 1,13,14
72 351 m 1,26,27
 72 370 72 370 85.5 384 c 128,-1,28
 99 398 99 398 118 398 c 256,29,30
 137 398 137 398 151 384 c 128,-1,31
 165 370 165 370 165 351 c 256,32,33
 165 332 165 332 151 318 c 128,-1,34
 137 304 137 304 118 304 c 256,35,36
 99 304 99 304 85.5 318 c 128,-1,37
 72 332 72 332 72 351 c 1,38,-1
 72 351 l 1,26,27
680 351 m 1,39,40
 680 370 680 370 694 384 c 128,-1,41
 708 398 708 398 727 398 c 256,42,43
 746 398 746 398 760 384 c 128,-1,44
 774 370 774 370 774 351 c 256,45,46
 774 332 774 332 760 318 c 128,-1,47
 746 304 746 304 727 304 c 256,48,49
 708 304 708 304 694 318 c 128,-1,50
 680 332 680 332 680 351 c 1,51,-1
 680 351 l 1,39,40
113 199 m 1,52,53
 113 218 113 218 127 232 c 128,-1,54
 141 246 141 246 160 246 c 256,55,56
 179 246 179 246 193 232 c 128,-1,57
 207 218 207 218 207 199 c 256,58,59
 207 180 207 180 193 166 c 128,-1,60
 179 152 179 152 160 152 c 256,61,62
 141 152 141 152 127 166 c 128,-1,63
 113 180 113 180 113 199 c 1,64,-1
 113 199 l 1,52,53
640 503 m 1,65,66
 640 522 640 522 653.5 536 c 128,-1,67
 667 550 667 550 686 550 c 256,68,69
 705 550 705 550 719 536 c 128,-1,70
 733 522 733 522 733 503 c 256,71,72
 733 484 733 484 719 470 c 128,-1,73
 705 456 705 456 686 456 c 256,74,75
 667 456 667 456 653.5 470 c 128,-1,76
 640 484 640 484 640 503 c 1,77,-1
 640 503 l 1,65,66
528 615 m 1,78,79
 528 634 528 634 542 648 c 128,-1,80
 556 662 556 662 575 662 c 256,81,82
 594 662 594 662 607.5 648 c 128,-1,83
 621 634 621 634 621 615 c 256,84,85
 621 596 621 596 607.5 582 c 128,-1,86
 594 568 594 568 575 568 c 256,87,88
 556 568 556 568 542 582 c 128,-1,89
 528 596 528 596 528 615 c 1,90,-1
 528 615 l 1,78,79
224 88 m 1,91,92
 224 107 224 107 237.5 121 c 128,-1,93
 251 135 251 135 270 135 c 256,94,95
 289 135 289 135 303 121 c 128,-1,96
 317 107 317 107 317 88 c 0,97,98
 317 68 317 68 303 54 c 128,-1,99
 289 40 289 40 270 40 c 256,100,101
 251 40 251 40 237.5 54 c 128,-1,102
 224 68 224 68 224 88 c 1,103,-1
 224 88 l 1,91,92
113 503 m 1,104,105
 113 522 113 522 127 536 c 128,-1,106
 141 550 141 550 160 550 c 256,107,108
 179 550 179 550 193 536 c 128,-1,109
 207 522 207 522 207 503 c 256,110,111
 207 484 207 484 193 470 c 128,-1,112
 179 456 179 456 160 456 c 256,113,114
 141 456 141 456 127 470 c 128,-1,115
 113 484 113 484 113 503 c 1,116,-1
 113 503 l 1,104,105
640 199 m 1,117,118
 640 218 640 218 653.5 232 c 128,-1,119
 667 246 667 246 686 246 c 256,120,121
 705 246 705 246 719 232 c 128,-1,122
 733 218 733 218 733 199 c 256,123,124
 733 180 733 180 719 166 c 128,-1,125
 705 152 705 152 686 152 c 256,126,127
 667 152 667 152 653.5 166 c 128,-1,128
 640 180 640 180 640 199 c 1,129,-1
 640 199 l 1,117,118
224 615 m 1,130,131
 224 634 224 634 237.5 648 c 128,-1,132
 251 662 251 662 270 662 c 256,133,134
 289 662 289 662 303 648 c 128,-1,135
 317 634 317 634 317 615 c 256,136,137
 317 596 317 596 303 582 c 128,-1,138
 289 568 289 568 270 568 c 256,139,140
 251 568 251 568 237.5 582 c 128,-1,141
 224 596 224 596 224 615 c 1,142,-1
 224 615 l 1,130,131
528 88 m 1,143,144
 528 107 528 107 542 121 c 128,-1,145
 556 135 556 135 575 135 c 256,146,147
 594 135 594 135 607.5 121 c 128,-1,148
 621 107 621 107 621 88 c 0,149,150
 621 68 621 68 607.5 54 c 128,-1,151
 594 40 594 40 575 40 c 256,152,153
 556 40 556 40 542 54 c 128,-1,154
 528 68 528 68 528 88 c 1,155,-1
 528 88 l 1,143,144
EndSplineSet
EndChar

StartChar: shifted_rightparen
Encoding: 65537 -1 96
Width: 639
GlyphClass: 2
Flags: W
LayerCount: 2
Fore
SplineSet
273 -220 m 1,0,1
 370 -104 370 -104 421.5 40 c 128,-1,2
 473 184 473 184 473 340 c 0,3,4
 473 495 473 495 421.5 639 c 128,-1,5
 370 783 370 783 273 899 c 1,6,-1
 339 899 l 1,7,8
 437 783 437 783 488 639 c 128,-1,9
 539 495 539 495 539 340 c 0,10,11
 539 184 539 184 488 40 c 128,-1,12
 437 -104 437 -104 339 -220 c 1,13,-1
 273 -220 l 1,14,-1
 273 -220 l 1,0,1
EndSplineSet
Ligature2: "'akhn' Akhand in Kannada lookup 1" afii301 parenright
EndChar

StartChar: glyph94
Encoding: 65538 -1 97
Width: 426
GlyphClass: 2
Flags: W
LayerCount: 2
Fore
SplineSet
157 -35 m 133,-1,1
 157 -46 157 -46 164.5 -53.5 c 132,-1,2
 172 -61 172 -61 183 -61 c 260,3,4
 194 -61 194 -61 201.5 -53.5 c 132,-1,5
 209 -46 209 -46 209 -35 c 260,6,7
 209 -24 209 -24 201.5 -16.5 c 132,-1,8
 194 -9 194 -9 183 -9 c 260,9,10
 172 -9 172 -9 164.5 -16.5 c 132,-1,0
 157 -24 157 -24 157 -35 c 133,-1,1
40 -107 m 5,11,12
 40 -39 40 -39 82 8.5 c 132,-1,13
 124 56 124 56 183 56 c 4,14,15
 221 56 221 56 247.5 29.5 c 132,-1,16
 274 3 274 3 274 -35 c 260,17,18
 274 -73 274 -73 247.5 -99.5 c 132,-1,19
 221 -126 221 -126 183 -126 c 4,20,21
 162 -126 162 -126 144.5 -111.5 c 132,-1,22
 127 -97 127 -97 118 -74 c 5,23,24
 114 -82 114 -82 112 -91 c 132,-1,25
 110 -100 110 -100 110 -108 c 4,26,27
 110 -153 110 -153 146.5 -185 c 132,-1,28
 183 -217 183 -217 235 -217 c 4,29,30
 289 -217 289 -217 327 -171.5 c 132,-1,31
 365 -126 365 -126 365 -61 c 4,32,33
 365 12 365 12 345 78.5 c 132,-1,34
 325 145 325 145 287 199 c 5,35,-1
 359 232 l 5,36,37
 400 161 400 161 421.5 86 c 132,-1,38
 443 11 443 11 443 -61 c 4,39,40
 443 -155 443 -155 382 -222 c 132,-1,41
 321 -289 321 -289 235 -289 c 4,42,43
 154 -289 154 -289 97 -235.5 c 132,-1,44
 40 -182 40 -182 40 -107 c 5,11,12
EndSplineSet
EndChar

StartChar: glyph95
Encoding: 65539 -1 98
Width: 768
GlyphClass: 2
Flags: W
LayerCount: 2
Fore
SplineSet
151 -42 m 133,-1,1
 151 -53 151 -53 158.5 -60.5 c 132,-1,2
 166 -68 166 -68 177 -68 c 260,3,4
 188 -68 188 -68 195.5 -60.5 c 132,-1,5
 203 -53 203 -53 203 -42 c 260,6,7
 203 -31 203 -31 195.5 -23.5 c 132,-1,8
 188 -16 188 -16 177 -16 c 260,9,10
 166 -16 166 -16 158.5 -23.5 c 132,-1,0
 151 -31 151 -31 151 -42 c 133,-1,1
40 -87 m 5,11,12
 40 -25 40 -25 80 18.5 c 132,-1,13
 120 62 120 62 177 62 c 4,14,15
 215 62 215 62 241.5 31.5 c 132,-1,16
 268 1 268 1 268 -42 c 4,17,18
 268 -80 268 -80 241.5 -106.5 c 132,-1,19
 215 -133 215 -133 177 -133 c 4,20,21
 156 -133 156 -133 138.5 -118.5 c 132,-1,22
 121 -104 121 -104 112 -81 c 5,23,24
 112 -140 112 -140 146.5 -182 c 132,-1,25
 181 -224 181 -224 229 -224 c 4,26,27
 283 -224 283 -224 321 -167 c 132,-1,28
 359 -110 359 -110 359 -29 c 4,29,30
 359 36 359 36 340.5 91 c 132,-1,31
 322 146 322 146 287 185 c 5,32,-1
 525 185 l 6,33,34
 631 185 631 185 706 118 c 132,-1,35
 781 51 781 51 781 -44 c 4,36,37
 781 -126 781 -126 725.5 -184.5 c 132,-1,38
 670 -243 670 -243 591 -243 c 4,39,40
 540 -243 540 -243 504.5 -207 c 132,-1,41
 469 -171 469 -171 469 -120 c 260,42,43
 469 -69 469 -69 499.5 -32.5 c 132,-1,44
 530 4 530 4 573 4 c 4,45,46
 609 4 609 4 634 -14 c 132,-1,47
 659 -32 659 -32 659 -58 c 4,48,49
 659 -80 659 -80 645 -95 c 132,-1,50
 631 -110 631 -110 611 -110 c 4,51,52
 592 -110 592 -110 578 -96 c 132,-1,53
 564 -82 564 -82 564 -62 c 5,54,55
 546 -68 546 -68 535.5 -84 c 132,-1,56
 525 -100 525 -100 525 -120 c 4,57,58
 525 -147 525 -147 544.5 -166.5 c 132,-1,59
 564 -186 564 -186 591 -186 c 4,60,61
 642 -186 642 -186 678.5 -144.5 c 132,-1,62
 715 -103 715 -103 715 -44 c 4,63,64
 715 26 715 26 659.5 76 c 132,-1,65
 604 126 604 126 525 126 c 6,66,-1
 405 126 l 5,67,68
 421 89 421 89 429 49.5 c 132,-1,69
 437 10 437 10 437 -29 c 4,70,71
 437 -137 437 -137 376 -213 c 132,-1,72
 315 -289 315 -289 229 -289 c 4,73,74
 151 -289 151 -289 95.5 -230 c 132,-1,75
 40 -171 40 -171 40 -87 c 5,11,12
EndSplineSet
EndChar

StartChar: glyph96
Encoding: 65540 -1 99
Width: 446
GlyphClass: 2
Flags: W
LayerCount: 2
Fore
SplineSet
151 -37 m 129,-1,1
 151 -48 151 -48 158.5 -55.5 c 128,-1,2
 166 -63 166 -63 177 -63 c 256,3,4
 188 -63 188 -63 195.5 -55.5 c 128,-1,5
 203 -48 203 -48 203 -37 c 256,6,7
 203 -26 203 -26 195.5 -18.5 c 128,-1,8
 188 -11 188 -11 177 -11 c 256,9,10
 166 -11 166 -11 158.5 -18.5 c 128,-1,0
 151 -26 151 -26 151 -37 c 129,-1,1
40 -82 m 1,11,12
 40 -26 40 -26 76.5 14 c 128,-1,13
 113 54 113 54 164 54 c 0,14,15
 207 54 207 54 237.5 27.5 c 128,-1,16
 268 1 268 1 268 -37 c 256,17,18
 268 -75 268 -75 241.5 -101.5 c 128,-1,19
 215 -128 215 -128 177 -128 c 0,20,21
 156 -128 156 -128 138.5 -113.5 c 128,-1,22
 121 -99 121 -99 112 -76 c 1,23,24
 112 -135 112 -135 150 -177 c 128,-1,25
 188 -219 188 -219 242 -219 c 256,26,27
 296 -219 296 -219 334 -182.5 c 128,-1,28
 372 -146 372 -146 372 -95 c 0,29,30
 372 -52 372 -52 356.5 -13 c 128,-1,31
 341 26 341 26 313 54 c 1,32,33
 344 80 344 80 361 111 c 128,-1,34
 378 142 378 142 378 172 c 0,35,36
 378 203 378 203 368 230 c 128,-1,37
 358 257 358 257 339 276 c 1,38,-1
 404 308 l 1,39,40
 426 281 426 281 438 246 c 128,-1,41
 450 211 450 211 450 172 c 0,42,43
 450 135 450 135 438 102.5 c 128,-1,44
 426 70 426 70 404 48 c 1,45,46
 426 21 426 21 438 -17.5 c 128,-1,47
 450 -56 450 -56 450 -102 c 0,48,49
 450 -183 450 -183 389 -240 c 128,-1,50
 328 -297 328 -297 242 -297 c 0,51,52
 158 -297 158 -297 99 -234 c 128,-1,53
 40 -171 40 -171 40 -82 c 1,11,12
EndSplineSet
EndChar

StartChar: glyph97
Encoding: 65541 -1 100
Width: 546
GlyphClass: 2
Flags: W
LayerCount: 2
Fore
SplineSet
277 -35 m 129,-1,1
 277 -46 277 -46 284.5 -53.5 c 128,-1,2
 292 -61 292 -61 303 -61 c 256,3,4
 314 -61 314 -61 321.5 -53.5 c 128,-1,5
 329 -46 329 -46 329 -35 c 256,6,7
 329 -24 329 -24 321.5 -16.5 c 128,-1,8
 314 -9 314 -9 303 -9 c 256,9,10
 292 -9 292 -9 284.5 -16.5 c 128,-1,0
 277 -24 277 -24 277 -35 c 129,-1,1
160 -107 m 1,11,12
 160 -39 160 -39 202 8.5 c 128,-1,13
 244 56 244 56 303 56 c 0,14,15
 341 56 341 56 367.5 29.5 c 128,-1,16
 394 3 394 3 394 -35 c 256,17,18
 394 -73 394 -73 367.5 -99.5 c 128,-1,19
 341 -126 341 -126 303 -126 c 0,20,21
 282 -126 282 -126 264.5 -111.5 c 128,-1,22
 247 -97 247 -97 238 -74 c 1,23,24
 234 -82 234 -82 232 -91 c 128,-1,25
 230 -100 230 -100 230 -108 c 0,26,27
 230 -153 230 -153 266.5 -185 c 128,-1,28
 303 -217 303 -217 355 -217 c 0,29,30
 409 -217 409 -217 447 -171.5 c 128,-1,31
 485 -126 485 -126 485 -61 c 0,32,33
 485 12 485 12 465 78.5 c 128,-1,34
 445 145 445 145 407 199 c 1,35,-1
 479 232 l 1,36,37
 520 161 520 161 541.5 86 c 128,-1,38
 563 11 563 11 563 -61 c 0,39,40
 563 -155 563 -155 502 -222 c 128,-1,41
 441 -289 441 -289 355 -289 c 0,42,43
 274 -289 274 -289 217 -235.5 c 128,-1,44
 160 -182 160 -182 160 -107 c 1,11,12
EndSplineSet
EndChar

StartChar: glyph98
Encoding: 65542 -1 101
Width: 888
GlyphClass: 2
Flags: W
LayerCount: 2
Fore
SplineSet
271 -42 m 133,-1,1
 271 -53 271 -53 278.5 -60.5 c 132,-1,2
 286 -68 286 -68 297 -68 c 260,3,4
 308 -68 308 -68 315.5 -60.5 c 132,-1,5
 323 -53 323 -53 323 -42 c 260,6,7
 323 -31 323 -31 315.5 -23.5 c 132,-1,8
 308 -16 308 -16 297 -16 c 260,9,10
 286 -16 286 -16 278.5 -23.5 c 132,-1,0
 271 -31 271 -31 271 -42 c 133,-1,1
160 -87 m 5,11,12
 160 -25 160 -25 200 18.5 c 132,-1,13
 240 62 240 62 297 62 c 4,14,15
 335 62 335 62 361.5 31.5 c 132,-1,16
 388 1 388 1 388 -42 c 4,17,18
 388 -80 388 -80 361.5 -106.5 c 132,-1,19
 335 -133 335 -133 297 -133 c 4,20,21
 276 -133 276 -133 258.5 -118.5 c 132,-1,22
 241 -104 241 -104 232 -81 c 5,23,24
 232 -140 232 -140 266.5 -182 c 132,-1,25
 301 -224 301 -224 349 -224 c 4,26,27
 403 -224 403 -224 441 -167 c 132,-1,28
 479 -110 479 -110 479 -29 c 4,29,30
 479 36 479 36 460.5 91 c 132,-1,31
 442 146 442 146 407 185 c 5,32,-1
 645 185 l 6,33,34
 751 185 751 185 826 118 c 132,-1,35
 901 51 901 51 901 -44 c 4,36,37
 901 -126 901 -126 845.5 -184.5 c 132,-1,38
 790 -243 790 -243 711 -243 c 4,39,40
 660 -243 660 -243 624.5 -207 c 132,-1,41
 589 -171 589 -171 589 -120 c 260,42,43
 589 -69 589 -69 619.5 -32.5 c 132,-1,44
 650 4 650 4 693 4 c 4,45,46
 729 4 729 4 754 -14 c 132,-1,47
 779 -32 779 -32 779 -58 c 4,48,49
 779 -80 779 -80 765 -95 c 132,-1,50
 751 -110 751 -110 731 -110 c 4,51,52
 712 -110 712 -110 698 -96 c 132,-1,53
 684 -82 684 -82 684 -62 c 5,54,55
 666 -68 666 -68 655.5 -84 c 132,-1,56
 645 -100 645 -100 645 -120 c 4,57,58
 645 -147 645 -147 664.5 -166.5 c 132,-1,59
 684 -186 684 -186 711 -186 c 4,60,61
 762 -186 762 -186 798.5 -144.5 c 132,-1,62
 835 -103 835 -103 835 -44 c 4,63,64
 835 26 835 26 779.5 76 c 132,-1,65
 724 126 724 126 645 126 c 6,66,-1
 525 126 l 5,67,68
 541 89 541 89 549 49.5 c 132,-1,69
 557 10 557 10 557 -29 c 4,70,71
 557 -137 557 -137 496 -213 c 132,-1,72
 435 -289 435 -289 349 -289 c 4,73,74
 271 -289 271 -289 215.5 -230 c 132,-1,75
 160 -171 160 -171 160 -87 c 5,11,12
EndSplineSet
EndChar

StartChar: glyph99
Encoding: 65543 -1 102
Width: 566
GlyphClass: 2
Flags: W
LayerCount: 2
Fore
SplineSet
271 -37 m 129,-1,1
 271 -48 271 -48 278.5 -55.5 c 128,-1,2
 286 -63 286 -63 297 -63 c 256,3,4
 308 -63 308 -63 315.5 -55.5 c 128,-1,5
 323 -48 323 -48 323 -37 c 256,6,7
 323 -26 323 -26 315.5 -18.5 c 128,-1,8
 308 -11 308 -11 297 -11 c 256,9,10
 286 -11 286 -11 278.5 -18.5 c 128,-1,0
 271 -26 271 -26 271 -37 c 129,-1,1
160 -82 m 1,11,12
 160 -26 160 -26 196.5 14 c 128,-1,13
 233 54 233 54 284 54 c 0,14,15
 327 54 327 54 357.5 27.5 c 128,-1,16
 388 1 388 1 388 -37 c 256,17,18
 388 -75 388 -75 361.5 -101.5 c 128,-1,19
 335 -128 335 -128 297 -128 c 0,20,21
 276 -128 276 -128 258.5 -113.5 c 128,-1,22
 241 -99 241 -99 232 -76 c 1,23,24
 232 -135 232 -135 270 -177 c 128,-1,25
 308 -219 308 -219 362 -219 c 256,26,27
 416 -219 416 -219 454 -182.5 c 128,-1,28
 492 -146 492 -146 492 -95 c 0,29,30
 492 -52 492 -52 476.5 -13 c 128,-1,31
 461 26 461 26 433 54 c 1,32,33
 464 80 464 80 481 111 c 128,-1,34
 498 142 498 142 498 172 c 0,35,36
 498 203 498 203 488 230 c 128,-1,37
 478 257 478 257 459 276 c 1,38,-1
 524 308 l 1,39,40
 546 281 546 281 558 246 c 128,-1,41
 570 211 570 211 570 172 c 0,42,43
 570 135 570 135 558 102.5 c 128,-1,44
 546 70 546 70 524 48 c 1,45,46
 546 21 546 21 558 -17.5 c 128,-1,47
 570 -56 570 -56 570 -102 c 0,48,49
 570 -183 570 -183 509 -240 c 128,-1,50
 448 -297 448 -297 362 -297 c 0,51,52
 278 -297 278 -297 219 -234 c 128,-1,53
 160 -171 160 -171 160 -82 c 1,11,12
EndSplineSet
EndChar

StartChar: glyph100
Encoding: 65544 -1 103
Width: 800
GlyphClass: 2
Flags: W
LayerCount: 2
Fore
SplineSet
100 -380 m 1,0,-1
 100 320 l 1,1,-1
 700 320 l 1,2,-1
 700 -380 l 1,3,-1
 100 -380 l 1,4,-1
 100 -380 l 1,0,-1
150 -330 m 1,5,-1
 650 -330 l 1,6,-1
 650 270 l 1,7,-1
 150 270 l 1,8,-1
 150 -330 l 1,9,-1
 150 -330 l 1,5,-1
EndSplineSet
EndChar

StartChar: glyph101
Encoding: 65545 -1 104
Width: 800
GlyphClass: 2
Flags: W
LayerCount: 2
Fore
SplineSet
100 -380 m 1,0,-1
 100 320 l 1,1,-1
 700 320 l 1,2,-1
 700 -380 l 1,3,-1
 100 -380 l 1,4,-1
 100 -380 l 1,0,-1
150 -330 m 1,5,-1
 650 -330 l 1,6,-1
 650 270 l 1,7,-1
 150 270 l 1,8,-1
 150 -330 l 1,9,-1
 150 -330 l 1,5,-1
EndSplineSet
EndChar

StartChar: glyph102
Encoding: 65546 -1 105
Width: 800
GlyphClass: 2
Flags: W
LayerCount: 2
Fore
SplineSet
100 -380 m 1,0,-1
 100 320 l 1,1,-1
 700 320 l 1,2,-1
 700 -380 l 1,3,-1
 100 -380 l 1,4,-1
 100 -380 l 1,0,-1
150 -330 m 1,5,-1
 650 -330 l 1,6,-1
 650 270 l 1,7,-1
 150 270 l 1,8,-1
 150 -330 l 1,9,-1
 150 -330 l 1,5,-1
EndSplineSet
EndChar

StartChar: glyph103
Encoding: 65547 -1 106
Width: 800
GlyphClass: 2
Flags: W
LayerCount: 2
Fore
SplineSet
100 -380 m 1,0,-1
 100 320 l 1,1,-1
 700 320 l 1,2,-1
 700 -380 l 1,3,-1
 100 -380 l 1,4,-1
 100 -380 l 1,0,-1
150 -330 m 1,5,-1
 650 -330 l 1,6,-1
 650 270 l 1,7,-1
 150 270 l 1,8,-1
 150 -330 l 1,9,-1
 150 -330 l 1,5,-1
EndSplineSet
EndChar

StartChar: glyph104
Encoding: 65548 -1 107
Width: 800
GlyphClass: 2
Flags: W
LayerCount: 2
Fore
SplineSet
100 -380 m 1,0,-1
 100 320 l 1,1,-1
 700 320 l 1,2,-1
 700 -380 l 1,3,-1
 100 -380 l 1,4,-1
 100 -380 l 1,0,-1
150 -330 m 1,5,-1
 650 -330 l 1,6,-1
 650 270 l 1,7,-1
 150 270 l 1,8,-1
 150 -330 l 1,9,-1
 150 -330 l 1,5,-1
EndSplineSet
EndChar

StartChar: glyph105
Encoding: 65549 -1 108
Width: 800
GlyphClass: 2
Flags: W
LayerCount: 2
Fore
SplineSet
100 -380 m 1,0,-1
 100 320 l 1,1,-1
 700 320 l 1,2,-1
 700 -380 l 1,3,-1
 100 -380 l 1,4,-1
 100 -380 l 1,0,-1
150 -330 m 1,5,-1
 650 -330 l 1,6,-1
 650 270 l 1,7,-1
 150 270 l 1,8,-1
 150 -330 l 1,9,-1
 150 -330 l 1,5,-1
EndSplineSet
EndChar

StartChar: glyph106
Encoding: 65550 -1 109
Width: 800
GlyphClass: 2
Flags: W
LayerCount: 2
Fore
SplineSet
100 -380 m 1,0,-1
 100 320 l 1,1,-1
 700 320 l 1,2,-1
 700 -380 l 1,3,-1
 100 -380 l 1,4,-1
 100 -380 l 1,0,-1
150 -330 m 1,5,-1
 650 -330 l 1,6,-1
 650 270 l 1,7,-1
 150 270 l 1,8,-1
 150 -330 l 1,9,-1
 150 -330 l 1,5,-1
EndSplineSet
EndChar

StartChar: glyph107
Encoding: 65551 -1 110
Width: 800
GlyphClass: 2
Flags: W
LayerCount: 2
Fore
SplineSet
100 -380 m 1,0,-1
 100 320 l 1,1,-1
 700 320 l 1,2,-1
 700 -380 l 1,3,-1
 100 -380 l 1,4,-1
 100 -380 l 1,0,-1
150 -330 m 1,5,-1
 650 -330 l 1,6,-1
 650 270 l 1,7,-1
 150 270 l 1,8,-1
 150 -330 l 1,9,-1
 150 -330 l 1,5,-1
EndSplineSet
EndChar

StartChar: U0C95_U0CCd_U0CB7.akhn
Encoding: 65552 -1 111
Width: 558
GlyphClass: 2
Flags: W
LayerCount: 2
Fore
SplineSet
207 221 m 129,-1,1
 207 167 207 167 241.5 129 c 128,-1,2
 276 91 276 91 324 91 c 256,3,4
 372 91 372 91 406.5 129 c 128,-1,5
 441 167 441 167 441 221 c 256,6,7
 441 275 441 275 406.5 313 c 128,-1,8
 372 351 372 351 324 351 c 256,9,10
 276 351 276 351 241.5 313 c 128,-1,0
 207 275 207 275 207 221 c 129,-1,1
64 423 m 1,11,-1
 285 423 l 1,12,-1
 285 507 l 1,13,-1
 64 507 l 1,14,-1
 64 585 l 1,15,-1
 441 585 l 2,16,17
 468 585 468 585 487 604 c 128,-1,18
 506 623 506 623 506 650 c 0,19,20
 506 665 506 665 496 682 c 128,-1,21
 486 699 486 699 467 715 c 1,22,-1
 519 767 l 1,23,24
 550 741 550 741 567 710.5 c 128,-1,25
 584 680 584 680 584 650 c 0,26,27
 584 591 584 591 542 549 c 128,-1,28
 500 507 500 507 441 507 c 2,29,-1
 363 507 l 1,30,-1
 363 423 l 1,31,-1
 584 423 l 1,32,-1
 584 351 l 1,33,-1
 473 351 l 1,34,35
 502 317 502 317 517 280 c 128,-1,36
 532 243 532 243 532 208 c 0,37,38
 532 122 532 122 471 61 c 128,-1,39
 410 0 410 0 324 0 c 256,40,41
 238 0 238 0 177 61 c 128,-1,42
 116 122 116 122 116 208 c 0,43,44
 116 244 116 244 131 281 c 128,-1,45
 146 318 146 318 174 351 c 1,46,-1
 64 351 l 1,47,-1
 64 423 l 1,11,-1
64 -234 m 129,-1,49
 64 -180 64 -180 102 -142 c 128,-1,50
 140 -104 140 -104 194 -104 c 0,51,52
 209 -104 209 -104 227.5 -112.5 c 128,-1,53
 246 -121 246 -121 265 -137 c 1,54,-1
 233 -182 l 1,55,56
 225 -176 225 -176 215 -172.5 c 128,-1,57
 205 -169 205 -169 194 -169 c 0,58,59
 172 -169 172 -169 157 -188 c 128,-1,60
 142 -207 142 -207 142 -234 c 0,61,62
 142 -258 142 -258 157 -275.5 c 128,-1,63
 172 -293 172 -293 194 -293 c 0,64,65
 232 -293 232 -293 258.5 -256.5 c 128,-1,66
 285 -220 285 -220 285 -169 c 1,67,-1
 363 -169 l 1,68,69
 363 -220 363 -220 389.5 -256.5 c 128,-1,70
 416 -293 416 -293 454 -293 c 0,71,72
 476 -293 476 -293 491 -275.5 c 128,-1,73
 506 -258 506 -258 506 -234 c 0,74,75
 506 -192 506 -192 486.5 -110.5 c 128,-1,76
 467 -29 467 -29 467 13 c 1,77,-1
 532 13 l 1,78,79
 532 -37 532 -37 549 -81 c 128,-1,80
 566 -125 566 -125 597 -156 c 0,81,82
 647 -206 647 -206 674 -267 c 128,-1,83
 701 -328 701 -328 701 -390 c 1,84,-1
 636 -390 l 1,85,86
 636 -350 636 -350 622.5 -310 c 128,-1,87
 609 -270 609 -270 584 -234 c 1,88,89
 574 -290 574 -290 537 -327 c 128,-1,90
 500 -364 500 -364 454 -364 c 0,91,92
 411 -364 411 -364 375.5 -337.5 c 128,-1,93
 340 -311 340 -311 324 -267 c 1,94,95
 308 -311 308 -311 272.5 -337.5 c 128,-1,96
 237 -364 237 -364 194 -364 c 0,97,98
 140 -364 140 -364 102 -326 c 128,-1,48
 64 -288 64 -288 64 -234 c 129,-1,49
EndSplineSet
LCarets2: 2 0 0 
Ligature2: "'akhn' Akhand in Kannada lookup 1" U0C95 U0CB7 U0CCD
Ligature2: "'akhn' Akhand in Kannada lookup 1" U0C95 U0CCD U0CB7
EndChar

StartChar: U0C9C_U0CCD_U0C9E.akhn
Encoding: 65553 -1 112
Width: 751
GlyphClass: 2
Flags: W
LayerCount: 2
Fore
SplineSet
95 -208 m 1,0,1
 95 -154 95 -154 133 -116 c 128,-1,2
 171 -78 171 -78 225 -78 c 0,3,4
 256 -78 256 -78 284 -95.5 c 128,-1,5
 312 -113 312 -113 329 -143 c 1,6,7
 346 -113 346 -113 374 -95.5 c 128,-1,8
 402 -78 402 -78 433 -78 c 0,9,10
 469 -78 469 -78 497 -90.5 c 128,-1,11
 525 -103 525 -103 537 -124 c 1,12,13
 549 -103 549 -103 573.5 -90.5 c 128,-1,14
 598 -78 598 -78 628 -78 c 0,15,16
 682 -78 682 -78 720 -114.5 c 128,-1,17
 758 -151 758 -151 758 -202 c 0,18,19
 758 -220 758 -220 748 -241.5 c 128,-1,20
 738 -263 738 -263 719 -286 c 1,21,-1
 667 -247 l 1,22,23
 673 -236 673 -236 676.5 -224.5 c 128,-1,24
 680 -213 680 -213 680 -202 c 0,25,26
 680 -178 680 -178 665 -160.5 c 128,-1,27
 650 -143 650 -143 628 -143 c 0,28,29
 607 -143 607 -143 589 -161 c 128,-1,30
 571 -179 571 -179 563 -208 c 1,31,32
 563 -254 563 -254 551 -292.5 c 128,-1,33
 539 -331 539 -331 517 -358 c 1,34,35
 554 -389 554 -389 576 -417.5 c 128,-1,36
 598 -446 598 -446 602 -468 c 1,37,-1
 524 -468 l 1,38,39
 522 -457 522 -457 512 -443.5 c 128,-1,40
 502 -430 502 -430 485 -416 c 1,41,42
 464 -441 464 -441 423 -454.5 c 128,-1,43
 382 -468 382 -468 329 -468 c 0,44,45
 275 -468 275 -468 237 -441.5 c 128,-1,46
 199 -415 199 -415 199 -377 c 256,47,48
 199 -339 199 -339 237 -312.5 c 128,-1,49
 275 -286 275 -286 329 -286 c 0,50,51
 360 -286 360 -286 393 -296 c 128,-1,52
 426 -306 426 -306 459 -325 c 1,53,54
 472 -297 472 -297 478.5 -267.5 c 128,-1,55
 485 -238 485 -238 485 -208 c 0,56,57
 485 -181 485 -181 470 -162 c 128,-1,58
 455 -143 455 -143 433 -143 c 0,59,60
 410 -143 410 -143 391.5 -161.5 c 128,-1,61
 373 -180 373 -180 368 -208 c 1,62,-1
 368 -234 l 1,63,-1
 290 -234 l 1,64,-1
 290 -208 l 1,65,66
 285 -180 285 -180 266.5 -161.5 c 128,-1,67
 248 -143 248 -143 225 -143 c 0,68,69
 203 -143 203 -143 188 -162 c 128,-1,70
 173 -181 173 -181 173 -208 c 0,71,72
 173 -216 173 -216 176.5 -226 c 128,-1,73
 180 -236 180 -236 186 -247 c 1,74,-1
 134 -286 l 1,75,76
 116 -273 116 -273 105.5 -252.5 c 128,-1,77
 95 -232 95 -232 95 -208 c 1,78,-1
 95 -208 l 1,0,1
277 -377 m 1,79,80
 277 -388 277 -388 292 -395.5 c 128,-1,81
 307 -403 307 -403 329 -403 c 0,82,83
 355 -403 355 -403 378.5 -395 c 128,-1,84
 402 -387 402 -387 420 -371 c 1,85,86
 403 -361 403 -361 380 -356 c 128,-1,87
 357 -351 357 -351 329 -351 c 0,88,89
 307 -351 307 -351 292 -358.5 c 128,-1,90
 277 -366 277 -366 277 -377 c 1,91,-1
 277 -377 l 1,79,80
355 455 m 1,92,93
 355 410 355 410 336 369 c 128,-1,94
 317 328 317 328 283 299 c 0,95,96
 249 271 249 271 230.5 240 c 128,-1,97
 212 209 212 209 212 182 c 0,98,99
 212 144 212 144 235 117.5 c 128,-1,100
 258 91 258 91 290 91 c 0,101,102
 338 91 338 91 372.5 133 c 128,-1,103
 407 175 407 175 407 234 c 1,104,-1
 485 234 l 1,105,106
 485 175 485 175 521 133 c 128,-1,107
 557 91 557 91 608 91 c 0,108,109
 643 91 643 91 668 119.5 c 128,-1,110
 693 148 693 148 693 189 c 0,111,112
 693 221 693 221 677 247 c 128,-1,113
 661 273 661 273 634 286 c 1,114,-1
 686 345 l 1,115,116
 728 321 728 321 752.5 279 c 128,-1,117
 777 237 777 237 777 189 c 0,118,119
 777 111 777 111 725.5 55.5 c 128,-1,120
 674 0 674 0 602 0 c 0,121,122
 550 0 550 0 507 30.5 c 128,-1,123
 464 61 464 61 446 111 c 1,124,125
 428 61 428 61 385 30.5 c 128,-1,126
 342 0 342 0 290 0 c 0,127,128
 220 0 220 0 170.5 53.5 c 128,-1,129
 121 107 121 107 121 182 c 0,130,131
 121 223 121 223 143 263.5 c 128,-1,132
 165 304 165 304 205 338 c 0,133,134
 236 364 236 364 253 398 c 128,-1,135
 270 432 270 432 270 468 c 0,136,137
 270 490 270 490 257 505 c 128,-1,138
 244 520 244 520 225 520 c 0,139,140
 203 520 203 520 188 505 c 128,-1,141
 173 490 173 490 173 468 c 0,142,143
 173 454 173 454 178 440.5 c 128,-1,144
 183 427 183 427 192 416 c 1,145,-1
 121 377 l 1,146,147
 102 400 102 400 92 423 c 128,-1,148
 82 446 82 446 82 468 c 0,149,150
 82 525 82 525 124 565 c 128,-1,151
 166 605 166 605 225 605 c 0,152,153
 259 605 259 605 286.5 593 c 128,-1,154
 314 581 314 581 329 559 c 1,155,156
 389 509 389 509 446 482 c 128,-1,157
 503 455 503 455 550 455 c 0,158,159
 599 455 599 455 642 490.5 c 128,-1,160
 685 526 685 526 706 585 c 1,161,-1
 771 540 l 1,162,163
 743 464 743 464 682.5 417.5 c 128,-1,164
 622 371 622 371 550 371 c 0,165,166
 504 371 504 371 453.5 392.5 c 128,-1,167
 403 414 403 414 355 455 c 1,168,-1
 355 455 l 1,92,93
EndSplineSet
Ligature2: "'akhn' Akhand in Kannada lookup 1" U0C9C U0CCD U0C9E
EndChar

StartChar: U0CA6_U0CA6_U0CCB.akhn
Encoding: 65554 -1 113
Width: 732
GlyphClass: 2
Flags: W
LayerCount: 2
Fore
SplineSet
199 234 m 1,0,1
 199 175 199 175 225.5 133 c 128,-1,2
 252 91 252 91 290 91 c 0,3,4
 333 91 333 91 363.5 133 c 128,-1,5
 394 175 394 175 394 234 c 1,6,-1
 472 234 l 1,7,8
 472 175 472 175 502.5 133 c 128,-1,9
 533 91 533 91 576 91 c 0,10,11
 614 91 614 91 640.5 136.5 c 128,-1,12
 667 182 667 182 667 247 c 0,13,14
 667 355 667 355 598.5 431 c 128,-1,15
 530 507 530 507 433 507 c 256,16,17
 336 507 336 507 267.5 427 c 128,-1,18
 199 347 199 347 199 234 c 1,19,-1
 199 234 l 1,0,1
225 507 m 1,20,-1
 108 507 l 1,21,-1
 108 585 l 1,22,-1
 641 585 l 2,23,24
 668 585 668 585 687 608 c 128,-1,25
 706 631 706 631 706 663 c 0,26,27
 706 679 706 679 692.5 699.5 c 128,-1,28
 679 720 679 720 654 741 c 1,29,-1
 693 793 l 1,30,31
 735 769 735 769 759.5 734 c 128,-1,32
 784 699 784 699 784 663 c 0,33,34
 784 598 784 598 742 552.5 c 128,-1,35
 700 507 700 507 641 507 c 1,36,37
 697 460 697 460 727.5 392 c 128,-1,38
 758 324 758 324 758 247 c 0,39,40
 758 145 758 145 704.5 72.5 c 128,-1,41
 651 0 651 0 576 0 c 0,42,43
 527 0 527 0 487 32.5 c 128,-1,44
 447 65 447 65 433 117 c 1,45,46
 419 65 419 65 379 32.5 c 128,-1,47
 339 0 339 0 290 0 c 0,48,49
 215 0 215 0 161.5 68.5 c 128,-1,50
 108 137 108 137 108 234 c 0,51,52
 108 317 108 317 138.5 388.5 c 128,-1,53
 169 460 169 460 225 507 c 1,54,-1
 225 507 l 1,20,-1
170 -325 m 1,55,56
 170 -233 170 -233 246 -168.5 c 128,-1,57
 322 -104 322 -104 430 -104 c 256,58,59
 538 -104 538 -104 614 -168.5 c 128,-1,60
 690 -233 690 -233 690 -325 c 0,61,62
 690 -384 690 -384 648 -426 c 128,-1,63
 606 -468 606 -468 547 -468 c 0,64,65
 510 -468 510 -468 478.5 -447 c 128,-1,66
 447 -426 447 -426 430 -390 c 1,67,68
 413 -426 413 -426 381.5 -447 c 128,-1,69
 350 -468 350 -468 313 -468 c 0,70,71
 254 -468 254 -468 212 -426 c 128,-1,72
 170 -384 170 -384 170 -325 c 1,73,-1
 170 -325 l 1,55,56
248 -325 m 1,74,75
 248 -357 248 -357 267 -380 c 128,-1,76
 286 -403 286 -403 313 -403 c 0,77,78
 345 -403 345 -403 368 -380 c 128,-1,79
 391 -357 391 -357 391 -325 c 1,80,-1
 469 -325 l 1,81,82
 469 -357 469 -357 492 -380 c 128,-1,83
 515 -403 515 -403 547 -403 c 0,84,85
 574 -403 574 -403 593 -380 c 128,-1,86
 612 -357 612 -357 612 -325 c 0,87,88
 612 -260 612 -260 558.5 -214.5 c 128,-1,89
 505 -169 505 -169 430 -169 c 256,90,91
 355 -169 355 -169 301.5 -214.5 c 128,-1,92
 248 -260 248 -260 248 -325 c 1,93,-1
 248 -325 l 1,74,75
EndSplineSet
Ligature2: "'akhn' Akhand in Kannada lookup 1" U0CA6 U0CA6 U0CCB
EndChar

StartChar: U0CB2_U0CB2_U0CCB.akhn
Encoding: 65555 -1 114
Width: 763
GlyphClass: 2
Flags: W
LayerCount: 2
Fore
SplineSet
282 468 m 1,0,1
 282 446 282 446 297 431 c 128,-1,2
 312 416 312 416 334 416 c 256,3,4
 356 416 356 416 371 431 c 128,-1,5
 386 446 386 446 386 468 c 256,6,7
 386 490 386 490 371 505 c 128,-1,8
 356 520 356 520 334 520 c 256,9,10
 312 520 312 520 297 505 c 128,-1,11
 282 490 282 490 282 468 c 1,12,-1
 282 468 l 1,0,1
445 91 m 1,13,14
 560 91 560 91 629 158.5 c 128,-1,15
 698 226 698 226 698 338 c 0,16,17
 698 394 698 394 662.5 443 c 128,-1,18
 627 492 627 492 568 520 c 1,19,-1
 620 598 l 1,20,21
 697 562 697 562 743 491.5 c 128,-1,22
 789 421 789 421 789 338 c 0,23,24
 789 185 789 185 695 92.5 c 128,-1,25
 601 0 601 0 445 0 c 0,26,27
 288 0 288 0 194 92.5 c 128,-1,28
 100 185 100 185 100 338 c 0,29,30
 100 446 100 446 168.5 522 c 128,-1,31
 237 598 237 598 334 598 c 0,32,33
 393 598 393 598 435 560 c 128,-1,34
 477 522 477 522 477 468 c 0,35,36
 477 412 477 412 435 372 c 128,-1,37
 393 332 393 332 334 332 c 0,38,39
 287 332 287 332 252 356 c 128,-1,40
 217 380 217 380 211 416 c 1,41,42
 201 404 201 404 196 384 c 128,-1,43
 191 364 191 364 191 338 c 0,44,45
 191 226 191 226 260.5 158.5 c 128,-1,46
 330 91 330 91 445 91 c 1,47,-1
 445 91 l 1,13,14
173 -260 m 1,48,49
 173 -195 173 -195 215 -149.5 c 128,-1,50
 257 -104 257 -104 316 -104 c 0,51,52
 362 -104 362 -104 397.5 -125.5 c 128,-1,53
 433 -147 433 -147 446 -182 c 1,54,55
 459 -147 459 -147 494.5 -125.5 c 128,-1,56
 530 -104 530 -104 576 -104 c 0,57,58
 635 -104 635 -104 677 -149.5 c 128,-1,59
 719 -195 719 -195 719 -260 c 0,60,61
 719 -287 719 -287 705.5 -317 c 128,-1,62
 692 -347 692 -347 667 -377 c 1,63,-1
 602 -338 l 1,64,65
 621 -315 621 -315 631 -295 c 128,-1,66
 641 -275 641 -275 641 -260 c 0,67,68
 641 -222 641 -222 622 -195.5 c 128,-1,69
 603 -169 603 -169 576 -169 c 0,70,71
 538 -169 538 -169 511.5 -203.5 c 128,-1,72
 485 -238 485 -238 485 -286 c 1,73,-1
 407 -286 l 1,74,75
 407 -238 407 -238 380.5 -203.5 c 128,-1,76
 354 -169 354 -169 316 -169 c 0,77,78
 289 -169 289 -169 270 -195.5 c 128,-1,79
 251 -222 251 -222 251 -260 c 0,80,81
 251 -275 251 -275 261 -295 c 128,-1,82
 271 -315 271 -315 290 -338 c 1,83,-1
 225 -377 l 1,84,85
 200 -347 200 -347 186.5 -317 c 128,-1,86
 173 -287 173 -287 173 -260 c 1,87,-1
 173 -260 l 1,48,49
EndSplineSet
Ligature2: "'akhn' Akhand in Kannada lookup 1" U0CB2 U0CB2 U0CCB
EndChar

StartChar: U0C95_U0CBE.abvs
Encoding: 65556 -1 115
Width: 1005
GlyphClass: 2
Flags: W
LayerCount: 2
Fore
SplineSet
207 221 m 1,0,1
 207 167 207 167 241.5 129 c 128,-1,2
 276 91 276 91 324 91 c 256,3,4
 372 91 372 91 406.5 129 c 128,-1,5
 441 167 441 167 441 221 c 256,6,7
 441 275 441 275 406.5 313 c 128,-1,8
 372 351 372 351 324 351 c 256,9,10
 276 351 276 351 241.5 313 c 128,-1,11
 207 275 207 275 207 221 c 1,12,-1
 207 221 l 1,0,1
64 423 m 1,13,-1
 285 423 l 1,14,-1
 285 507 l 1,15,-1
 64 507 l 1,16,-1
 64 585 l 1,17,-1
 680 585 l 2,18,19
 825 585 825 585 928 493.5 c 128,-1,20
 1031 402 1031 402 1031 273 c 0,21,22
 1031 160 1031 160 960.5 80 c 128,-1,23
 890 0 890 0 790 0 c 0,24,25
 712 0 712 0 657 49.5 c 128,-1,26
 602 99 602 99 602 169 c 256,27,28
 602 239 602 239 651.5 288.5 c 128,-1,29
 701 338 701 338 771 338 c 0,30,31
 809 338 809 338 835.5 313.5 c 128,-1,32
 862 289 862 289 862 254 c 0,33,34
 862 224 862 224 843 203 c 128,-1,35
 824 182 824 182 797 182 c 256,36,37
 770 182 770 182 751 201 c 128,-1,38
 732 220 732 220 732 247 c 1,39,40
 705 237 705 237 690.5 215 c 128,-1,41
 676 193 676 193 680 169 c 1,42,43
 680 131 680 131 712 104.5 c 128,-1,44
 744 78 744 78 790 78 c 0,45,46
 852 78 852 78 896 135 c 128,-1,47
 940 192 940 192 940 273 c 0,48,49
 940 370 940 370 864 438.5 c 128,-1,50
 788 507 788 507 680 507 c 2,51,-1
 363 507 l 1,52,-1
 363 423 l 1,53,-1
 584 423 l 1,54,-1
 584 351 l 1,55,-1
 473 351 l 1,56,57
 501 327 501 327 516.5 293 c 128,-1,58
 532 259 532 259 532 221 c 0,59,60
 532 129 532 129 471 64.5 c 128,-1,61
 410 0 410 0 324 0 c 256,62,63
 238 0 238 0 177 64.5 c 128,-1,64
 116 129 116 129 116 221 c 0,65,66
 116 256 116 256 131 289.5 c 128,-1,67
 146 323 146 323 174 351 c 1,68,-1
 64 351 l 1,69,-1
 64 423 l 1,70,-1
 64 423 l 1,13,-1
EndSplineSet
Ligature2: "'abvs' Above Base Substitutions in Kannada lookup 0" U0C95 U0CBE
EndChar

StartChar: U0C96_U0CBE.abvs
Encoding: 65557 -1 116
Width: 1321
GlyphClass: 2
Flags: W
LayerCount: 2
Fore
SplineSet
160 130 m 1,0,1
 160 114 160 114 183 102.5 c 128,-1,2
 206 91 206 91 238 91 c 0,3,4
 272 91 272 91 302 101 c 128,-1,5
 332 111 332 111 355 130 c 1,6,7
 325 155 325 155 295 168.5 c 128,-1,8
 265 182 265 182 238 182 c 0,9,10
 206 182 206 182 183 167 c 128,-1,11
 160 152 160 152 160 130 c 1,12,-1
 160 130 l 1,0,1
628 91 m 1,13,14
 693 91 693 91 738.5 152 c 128,-1,15
 784 213 784 213 784 299 c 256,16,17
 784 385 784 385 730.5 446 c 128,-1,18
 677 507 677 507 602 507 c 2,19,-1
 550 507 l 1,20,-1
 550 585 l 1,21,-1
 996 585 l 2,22,23
 1141 585 1141 585 1244 493.5 c 128,-1,24
 1347 402 1347 402 1347 273 c 0,25,26
 1347 160 1347 160 1276.5 80 c 128,-1,27
 1206 0 1206 0 1106 0 c 0,28,29
 1028 0 1028 0 973 49.5 c 128,-1,30
 918 99 918 99 918 169 c 256,31,32
 918 239 918 239 967.5 288.5 c 128,-1,33
 1017 338 1017 338 1087 338 c 0,34,35
 1125 338 1125 338 1151.5 313.5 c 128,-1,36
 1178 289 1178 289 1178 254 c 0,37,38
 1178 224 1178 224 1159 203 c 128,-1,39
 1140 182 1140 182 1113 182 c 256,40,41
 1086 182 1086 182 1067 201 c 128,-1,42
 1048 220 1048 220 1048 247 c 1,43,44
 1021 237 1021 237 1006.5 215 c 128,-1,45
 992 193 992 193 996 169 c 1,46,47
 996 131 996 131 1028 104.5 c 128,-1,48
 1060 78 1060 78 1106 78 c 0,49,50
 1168 78 1168 78 1212 135 c 128,-1,51
 1256 192 1256 192 1256 273 c 0,52,53
 1256 370 1256 370 1180 438.5 c 128,-1,54
 1104 507 1104 507 996 507 c 2,55,-1
 802 507 l 1,56,57
 837 465 837 465 856 411.5 c 128,-1,58
 875 358 875 358 875 299 c 0,59,60
 875 175 875 175 802.5 87.5 c 128,-1,61
 730 0 730 0 628 0 c 0,62,63
 563 0 563 0 506 18.5 c 128,-1,64
 449 37 449 37 407 72 c 1,65,66
 378 38 378 38 334 19 c 128,-1,67
 290 0 290 0 238 0 c 0,68,69
 168 0 168 0 118.5 38 c 128,-1,70
 69 76 69 76 69 130 c 256,71,72
 69 184 69 184 118.5 222 c 128,-1,73
 168 260 168 260 238 260 c 0,74,75
 277 260 277 260 315.5 245 c 128,-1,76
 354 230 354 230 387 202 c 1,77,78
 397 229 397 229 402 260 c 128,-1,79
 407 291 407 291 407 325 c 0,80,81
 407 406 407 406 372.5 463 c 128,-1,82
 338 520 338 520 290 520 c 0,83,84
 263 520 263 520 244 503 c 128,-1,85
 225 486 225 486 225 462 c 1,86,87
 233 471 233 471 243 476 c 128,-1,88
 253 481 253 481 264 481 c 0,89,90
 286 481 286 481 301 464 c 128,-1,91
 316 447 316 447 316 423 c 256,92,93
 316 399 316 399 297 381.5 c 128,-1,94
 278 364 278 364 251 364 c 0,95,96
 208 364 208 364 177.5 394.5 c 128,-1,97
 147 425 147 425 147 468 c 0,98,99
 147 522 147 522 189 560 c 128,-1,100
 231 598 231 598 290 598 c 0,101,102
 376 598 376 598 437 518 c 128,-1,103
 498 438 498 438 498 325 c 0,104,105
 498 275 498 275 486.5 228.5 c 128,-1,106
 475 182 475 182 452 143 c 1,107,108
 482 118 482 118 527.5 104.5 c 128,-1,109
 573 91 573 91 628 91 c 1,110,-1
 628 91 l 1,13,14
EndSplineSet
Ligature2: "'abvs' Above Base Substitutions in Kannada lookup 0" U0C96 U0CBE
EndChar

StartChar: U0C97_U0CBE.abvs
Encoding: 65558 -1 117
Width: 1117
GlyphClass: 2
Flags: W
LayerCount: 2
Fore
SplineSet
126 0 m 1,0,-1
 126 195 l 2,1,2
 126 286 126 286 153 366.5 c 128,-1,3
 180 447 180 447 230 507 c 1,4,-1
 126 507 l 1,5,-1
 126 585 l 1,6,-1
 792 585 l 2,7,8
 937 585 937 585 1040 493.5 c 128,-1,9
 1143 402 1143 402 1143 273 c 0,10,11
 1143 160 1143 160 1072.5 80 c 128,-1,12
 1002 0 1002 0 902 0 c 0,13,14
 824 0 824 0 769 49.5 c 128,-1,15
 714 99 714 99 714 169 c 256,16,17
 714 239 714 239 763.5 288.5 c 128,-1,18
 813 338 813 338 883 338 c 0,19,20
 921 338 921 338 947.5 313.5 c 128,-1,21
 974 289 974 289 974 254 c 0,22,23
 974 224 974 224 955 203 c 128,-1,24
 936 182 936 182 909 182 c 256,25,26
 882 182 882 182 863 201 c 128,-1,27
 844 220 844 220 844 247 c 1,28,29
 817 237 817 237 802.5 215 c 128,-1,30
 788 193 788 193 792 169 c 1,31,32
 792 131 792 131 824 104.5 c 128,-1,33
 856 78 856 78 902 78 c 0,34,35
 964 78 964 78 1008 135 c 128,-1,36
 1052 192 1052 192 1052 273 c 0,37,38
 1052 370 1052 370 976 438.5 c 128,-1,39
 900 507 900 507 792 507 c 2,40,-1
 542 507 l 1,41,42
 592 447 592 447 619 366.5 c 128,-1,43
 646 286 646 286 646 195 c 2,44,-1
 646 0 l 1,45,-1
 555 0 l 1,46,-1
 555 195 l 2,47,48
 555 324 555 324 505.5 415.5 c 128,-1,49
 456 507 456 507 386 507 c 256,50,51
 316 507 316 507 266.5 415.5 c 128,-1,52
 217 324 217 324 217 195 c 2,53,-1
 217 0 l 1,54,-1
 126 0 l 1,55,-1
 126 0 l 1,0,-1
EndSplineSet
Ligature2: "'abvs' Above Base Substitutions in Kannada lookup 0" U0C97 U0CBE
EndChar

StartChar: U0C98_U0CBE.abvs
Encoding: 65559 -1 118
Width: 1388
GlyphClass: 2
Flags: W
LayerCount: 2
Fore
SplineSet
343 325 m 1,0,-1
 343 429 l 1,1,-1
 447 429 l 1,2,-1
 447 325 l 1,3,-1
 343 325 l 1,4,-1
 343 325 l 1,0,-1
343 -182 m 1,5,-1
 343 -143 l 1,6,-1
 369 26 l 1,7,-1
 421 26 l 1,8,-1
 447 -143 l 1,9,-1
 447 -182 l 1,10,-1
 343 -182 l 1,11,-1
 343 -182 l 1,5,-1
785 338 m 1,12,13
 812 338 812 338 831 357 c 128,-1,14
 850 376 850 376 850 403 c 0,15,16
 850 427 850 427 838.5 454 c 128,-1,17
 827 481 827 481 805 507 c 1,18,-1
 70 507 l 1,19,-1
 70 585 l 1,20,-1
 1063 585 l 2,21,22
 1208 585 1208 585 1311 493.5 c 128,-1,23
 1414 402 1414 402 1414 273 c 0,24,25
 1414 160 1414 160 1343.5 80 c 128,-1,26
 1273 0 1273 0 1174 0 c 0,27,28
 1096 0 1096 0 1040.5 49.5 c 128,-1,29
 985 99 985 99 985 169 c 256,30,31
 985 239 985 239 1034.5 288.5 c 128,-1,32
 1084 338 1084 338 1154 338 c 0,33,34
 1192 338 1192 338 1218.5 313.5 c 128,-1,35
 1245 289 1245 289 1245 254 c 0,36,37
 1245 224 1245 224 1226 203 c 128,-1,38
 1207 182 1207 182 1180 182 c 256,39,40
 1153 182 1153 182 1134 201 c 128,-1,41
 1115 220 1115 220 1115 247 c 1,42,43
 1088 237 1088 237 1073.5 215 c 128,-1,44
 1059 193 1059 193 1063 169 c 1,45,46
 1063 131 1063 131 1095.5 104.5 c 128,-1,47
 1128 78 1128 78 1174 78 c 0,48,49
 1236 78 1236 78 1279.5 135 c 128,-1,50
 1323 192 1323 192 1323 273 c 0,51,52
 1323 370 1323 370 1247 438.5 c 128,-1,53
 1171 507 1171 507 1063 507 c 2,54,-1
 902 507 l 1,55,56
 921 480 921 480 931 453.5 c 128,-1,57
 941 427 941 427 941 403 c 0,58,59
 941 338 941 338 895.5 292.5 c 128,-1,60
 850 247 850 247 785 247 c 0,61,62
 769 247 769 247 749 253.5 c 128,-1,63
 729 260 729 260 707 273 c 1,64,65
 710 256 710 256 715 230 c 128,-1,66
 720 204 720 204 720 195 c 0,67,68
 720 114 720 114 670.5 57 c 128,-1,69
 621 0 621 0 551 0 c 0,70,71
 500 0 500 0 457 32 c 128,-1,72
 414 64 414 64 395 117 c 1,73,74
 376 64 376 64 331.5 32 c 128,-1,75
 287 0 287 0 233 0 c 0,76,77
 165 0 165 0 117.5 49.5 c 128,-1,78
 70 99 70 99 70 169 c 0,79,80
 70 228 70 228 108 270 c 128,-1,81
 146 312 146 312 200 312 c 0,82,83
 243 312 243 312 273.5 277.5 c 128,-1,84
 304 243 304 243 304 195 c 1,85,-1
 239 195 l 1,86,87
 239 211 239 211 227.5 222.5 c 128,-1,88
 216 234 216 234 200 234 c 256,89,90
 184 234 184 234 172.5 215 c 128,-1,91
 161 196 161 196 161 169 c 0,92,93
 161 137 161 137 182 114 c 128,-1,94
 203 91 203 91 233 91 c 0,95,96
 284 91 284 91 320 133 c 128,-1,97
 356 175 356 175 356 234 c 1,98,-1
 434 234 l 1,99,100
 434 175 434 175 468.5 133 c 128,-1,101
 503 91 503 91 551 91 c 0,102,103
 583 91 583 91 606 123.5 c 128,-1,104
 629 156 629 156 629 202 c 0,105,106
 629 249 629 249 609 302.5 c 128,-1,107
 589 356 589 356 551 410 c 1,108,-1
 636 455 l 1,109,110
 661 401 661 401 701.5 369.5 c 128,-1,111
 742 338 742 338 785 338 c 1,112,-1
 785 338 l 1,12,13
EndSplineSet
LCarets2: 1 0 
Ligature2: "'abvs' Above Base Substitutions in Kannada lookup 0" U0C98 U0CBE
EndChar

StartChar: U0C99_U0CBE.abvs
Encoding: 65560 -1 119
Width: 1606
GlyphClass: 2
Flags: W
LayerCount: 2
Fore
SplineSet
403 274 m 1,0,-1
 403 365 l 1,1,-1
 494 365 l 1,2,-1
 494 274 l 1,3,-1
 403 274 l 1,4,-1
 403 274 l 1,0,-1
685.5 437 m 128,-1,6
 642 467 642 467 574 471 c 1,7,8
 520 471 520 471 456.5 445.5 c 128,-1,9
 393 420 393 420 280 326 c 0,10,11
 246 297 246 297 227 259.5 c 128,-1,12
 208 222 208 222 208 183 c 0,13,14
 208 145 208 145 231 118.5 c 128,-1,15
 254 92 254 92 286 92 c 0,16,17
 334 92 334 92 368.5 132 c 128,-1,18
 403 172 403 172 403 229 c 1,19,-1
 481 229 l 1,20,21
 481 172 481 172 515.5 132 c 128,-1,22
 550 92 550 92 598 92 c 0,23,24
 636 92 636 92 662.5 118.5 c 128,-1,25
 689 145 689 145 689 183 c 0,26,27
 689 214 689 214 671.5 242 c 128,-1,28
 654 270 654 270 624 287 c 1,29,-1
 676 352 l 1,30,31
 724 324 724 324 752 279 c 128,-1,32
 780 234 780 234 780 183 c 0,33,34
 780 108 780 108 726.5 54.5 c 128,-1,35
 673 1 673 1 598 1 c 0,36,37
 552 1 552 1 509.5 32.5 c 128,-1,38
 467 64 467 64 442 118 c 1,39,40
 417 64 417 64 374.5 32.5 c 128,-1,41
 332 1 332 1 286 1 c 0,42,43
 216 1 216 1 166.5 54.5 c 128,-1,44
 117 108 117 108 117 183 c 0,45,46
 117 220 117 220 137.5 261 c 128,-1,47
 158 302 158 302 195 339 c 128,-1,48
 232 376 232 376 252.5 410 c 128,-1,49
 273 444 273 444 273 469 c 0,50,51
 273 491 273 491 258 506 c 128,-1,52
 243 521 243 521 221 521 c 128,-1,53
 199 521 199 521 184 506 c 128,-1,54
 169 491 169 491 169 469 c 0,55,56
 169 451 169 451 172.5 438 c 128,-1,57
 176 425 176 425 182 417 c 1,58,-1
 117 391 l 1,59,60
 102 406 102 406 93.5 426.5 c 128,-1,61
 85 447 85 447 85 469 c 0,62,63
 85 523 85 523 125 561 c 128,-1,64
 165 599 165 599 221 599 c 0,65,66
 275 599 275 599 313 561 c 128,-1,67
 351 523 351 523 351 469 c 1,68,69
 442 532 442 532 486.5 540.5 c 128,-1,70
 531 549 531 549 574 549 c 0,71,72
 660 548 660 548 729 496.5 c 128,-1,73
 798 445 798 445 895 391 c 1,74,75
 973 339 973 339 998 339 c 0,76,77
 1036 339 1036 339 1062.5 364 c 128,-1,78
 1089 389 1089 389 1089 424 c 0,79,80
 1089 449 1089 449 1075 471.5 c 128,-1,81
 1061 494 1061 494 1037 508 c 1,82,-1
 855 508 l 1,83,-1
 855 586 l 1,84,-1
 1281 586 l 2,85,86
 1426 586 1426 586 1529 494.5 c 128,-1,87
 1632 403 1632 403 1632 274 c 0,88,89
 1632 161 1632 161 1561.5 81 c 128,-1,90
 1491 1 1491 1 1391 1 c 0,91,92
 1313 1 1313 1 1258 50.5 c 128,-1,93
 1203 100 1203 100 1203 170 c 128,-1,94
 1203 240 1203 240 1252.5 289.5 c 128,-1,95
 1302 339 1302 339 1372 339 c 0,96,97
 1410 339 1410 339 1436.5 314.5 c 128,-1,98
 1463 290 1463 290 1463 255 c 0,99,100
 1463 225 1463 225 1444 204 c 128,-1,101
 1425 183 1425 183 1398 183 c 128,-1,102
 1371 183 1371 183 1352 202 c 128,-1,103
 1333 221 1333 221 1333 248 c 1,104,105
 1306 238 1306 238 1291.5 216 c 128,-1,106
 1277 194 1277 194 1281 170 c 1,107,108
 1281 132 1281 132 1313 105.5 c 128,-1,109
 1345 79 1345 79 1391 79 c 0,110,111
 1453 79 1453 79 1497 136 c 128,-1,112
 1541 193 1541 193 1541 274 c 0,113,114
 1541 371 1541 371 1465 439.5 c 128,-1,115
 1389 508 1389 508 1281 508 c 2,116,-1
 1152 508 l 1,117,118
 1166 487 1166 487 1173 465.5 c 128,-1,119
 1180 444 1180 444 1180 424 c 0,120,121
 1180 356 1180 356 1126.5 308.5 c 128,-1,122
 1073 261 1073 261 998 261 c 1,123,124
 925 265 925 265 855 320 c 1,125,5
 729 407 729 407 685.5 437 c 128,-1,6
EndSplineSet
LCarets2: 1 0 
Ligature2: "'abvs' Above Base Substitutions in Kannada lookup 0" U0C99 U0CBE
EndChar

StartChar: U0C9A_U0CBD.abvs
Encoding: 65561 -1 120
Width: 1255
GlyphClass: 2
Flags: W
LayerCount: 2
Fore
SplineSet
511 403 m 1,0,-1
 589 403 l 1,1,-1
 589 507 l 1,2,-1
 511 507 l 1,3,-1
 511 585 l 1,4,-1
 930 585 l 2,5,6
 1075 585 1075 585 1178 493.5 c 128,-1,7
 1281 402 1281 402 1281 273 c 0,8,9
 1281 160 1281 160 1210.5 80 c 128,-1,10
 1140 0 1140 0 1040 0 c 0,11,12
 962 0 962 0 907 49.5 c 128,-1,13
 852 99 852 99 852 169 c 256,14,15
 852 239 852 239 901.5 288.5 c 128,-1,16
 951 338 951 338 1021 338 c 0,17,18
 1059 338 1059 338 1085.5 313.5 c 128,-1,19
 1112 289 1112 289 1112 254 c 0,20,21
 1112 224 1112 224 1093 203 c 128,-1,22
 1074 182 1074 182 1047 182 c 256,23,24
 1020 182 1020 182 1001 201 c 128,-1,25
 982 220 982 220 982 247 c 1,26,27
 955 237 955 237 940.5 215 c 128,-1,28
 926 193 926 193 930 169 c 1,29,30
 930 131 930 131 962 104.5 c 128,-1,31
 994 78 994 78 1040 78 c 0,32,33
 1102 78 1102 78 1146 135 c 128,-1,34
 1190 192 1190 192 1190 273 c 0,35,36
 1190 370 1190 370 1114 438.5 c 128,-1,37
 1038 507 1038 507 930 507 c 2,38,-1
 667 507 l 1,39,-1
 667 403 l 1,40,-1
 784 403 l 1,41,-1
 784 325 l 1,42,-1
 732 325 l 1,43,44
 757 304 757 304 770.5 270 c 128,-1,45
 784 236 784 236 784 195 c 0,46,47
 784 114 784 114 730.5 57 c 128,-1,48
 677 0 677 0 602 0 c 0,49,50
 556 0 556 0 513.5 31.5 c 128,-1,51
 471 63 471 63 446 117 c 1,52,53
 421 63 421 63 378.5 31.5 c 128,-1,54
 336 0 336 0 290 0 c 0,55,56
 220 0 220 0 170.5 53.5 c 128,-1,57
 121 107 121 107 121 182 c 0,58,59
 121 226 121 226 143 272 c 128,-1,60
 165 318 165 318 205 358 c 0,61,62
 236 389 236 389 253 417.5 c 128,-1,63
 270 446 270 446 270 468 c 256,64,65
 270 490 270 490 255 505 c 128,-1,66
 240 520 240 520 218 520 c 0,67,68
 199 520 199 520 186 505 c 128,-1,69
 173 490 173 490 173 468 c 0,70,71
 173 454 173 454 176.5 440.5 c 128,-1,72
 180 427 180 427 186 416 c 1,73,-1
 114 390 l 1,74,75
 98 408 98 408 90 428.5 c 128,-1,76
 82 449 82 449 82 468 c 0,77,78
 82 525 82 525 122 565 c 128,-1,79
 162 605 162 605 218 605 c 0,80,81
 277 605 277 605 319 565 c 128,-1,82
 361 525 361 525 361 468 c 0,83,84
 361 437 361 437 340.5 399.5 c 128,-1,85
 320 362 320 362 283 325 c 0,86,87
 249 291 249 291 230.5 254 c 128,-1,88
 212 217 212 217 212 182 c 0,89,90
 212 144 212 144 235 117.5 c 128,-1,91
 258 91 258 91 290 91 c 0,92,93
 338 91 338 91 372.5 133 c 128,-1,94
 407 175 407 175 407 234 c 1,95,-1
 485 234 l 1,96,97
 485 175 485 175 519.5 133 c 128,-1,98
 554 91 554 91 602 91 c 0,99,100
 640 91 640 91 666.5 125.5 c 128,-1,101
 693 160 693 160 693 208 c 256,102,103
 693 256 693 256 664.5 290.5 c 128,-1,104
 636 325 636 325 595 325 c 2,105,-1
 511 325 l 1,106,-1
 511 403 l 1,107,-1
 511 403 l 1,0,-1
EndSplineSet
Ligature2: "'abvs' Above Base Substitutions in Kannada lookup 0" U0C9A U0CBE
EndChar

